<svg width="32" height="32" viewBox="0 0 32 32" fill="none" xmlns="http://www.w3.org/2000/svg">
<rect width="32" height="32" fill="white"/>
<path d="M28.0118 18.4645C28.0653 18.4378 28.0653 18.4199 28.0118 18.4645V18.4645ZM28.0475 17.3945C28.0207 17.3678 28.0742 17.3678 28.0475 17.3945V17.3945ZM28.4577 18.09C28.4398 18.0544 28.4844 18.0633 28.4577 18.09V18.09ZM25.6757 14.0419L25.6668 14.0508C25.6846 14.0597 25.7024 14.0508 25.7203 14.0241C25.7113 13.9795 25.6935 13.9616 25.6757 13.9795V14.0419ZM28.0653 16.6455C28.1188 16.6009 28.1188 16.5564 28.0297 16.5564L28.0653 16.6455ZM28.2526 17.1627C28.2793 17.1894 28.2882 17.1359 28.2526 17.1627V17.1627ZM28.2526 17.5372C28.2972 17.5104 28.2793 17.4659 28.2615 17.4659C28.2526 17.4659 28.2437 17.4837 28.2526 17.5372ZM28.422 18.7855C28.4666 18.7588 28.4487 18.7409 28.4309 18.7409C28.4131 18.7409 28.3863 18.7588 28.422 18.7855ZM28.4666 18.4021L28.4398 18.3754C28.4309 18.3843 28.4398 18.4289 28.4666 18.4021ZM28.0207 14.4075C28.0475 14.4342 28.0564 14.3807 28.0207 14.4075V14.4075ZM28.1099 14.2291C28.101 14.2113 28.0921 14.2024 28.0832 14.2024C28.0564 14.2024 28.0564 14.2648 28.1099 14.2291ZM28.101 15.7717C28.0653 15.7895 28.0742 15.745 28.101 15.7717V15.7717ZM28.101 16.2443L28.0742 16.2175C28.0653 16.2175 28.0742 16.271 28.101 16.2443ZM28.1634 15.1297C28.2169 15.0851 28.208 15.0405 28.1545 15.0227C28.0921 15.0584 28.0921 15.094 28.1634 15.1297ZM28.2169 15.4864C28.1902 15.5131 28.2347 15.522 28.2169 15.4864V15.4864ZM28.3328 16.387C28.4487 16.3513 28.4487 16.3156 28.3417 16.2889C28.2258 16.3156 28.2169 16.3513 28.3328 16.387ZM28.4309 15.5934C28.3952 15.5755 28.3685 15.5755 28.3417 15.5755C28.3061 15.5755 28.2882 15.6023 28.3239 15.6825C28.3596 15.6469 28.3952 15.6201 28.4309 15.5934ZM28.3328 15.2456C28.3774 15.2278 28.3596 15.201 28.3417 15.201C28.3239 15.201 28.2972 15.2189 28.3328 15.2456ZM28.4933 16.1373V16.2086C28.4933 16.1819 28.4933 16.1551 28.4933 16.1373ZM28.5022 16.5564L28.5112 16.5029C28.4844 16.5207 28.4666 16.5474 28.5022 16.5564ZM28.5022 15.7182C28.4666 15.736 28.4666 15.7182 28.5022 15.7182V15.7182ZM28.5112 15.4061C28.4755 15.415 28.4755 15.4507 28.5022 15.522V15.5042C28.5022 15.4775 28.5022 15.4418 28.5112 15.4061ZM25.6846 13.2394C25.6846 13.2661 25.6846 13.2929 25.6757 13.3286C25.7203 13.3018 25.7292 13.2661 25.6846 13.2394ZM25.7559 12.5617C25.8273 12.5261 25.8273 12.4904 25.7648 12.4458C25.7024 12.4726 25.7024 12.5082 25.7559 12.5617ZM25.9878 12.2942H25.9075C25.8986 12.321 25.9075 12.3477 25.9521 12.3745C25.9878 12.3477 25.9967 12.321 25.9878 12.2942ZM25.9967 13.3999C26.0056 13.4266 26.0145 13.4356 26.0234 13.4356C26.0413 13.4356 26.0413 13.3821 26.0056 13.3821C25.9967 13.3821 25.9967 13.3821 25.9967 13.3999ZM26.1572 14.0508L26.175 13.9616C26.1661 13.9616 26.1483 13.9616 26.1304 13.9616C26.1037 13.9616 26.0858 13.9706 26.0858 14.0062C26.0948 14.0419 26.1215 14.0508 26.1572 14.0508ZM26.2018 12.535C26.1928 12.4993 26.2553 12.535 26.2018 12.535V12.535ZM26.2642 12.5617L26.2374 12.5439C26.2285 12.5528 26.2285 12.5706 26.2463 12.5706C26.2553 12.5706 26.2553 12.5706 26.2642 12.5617ZM26.4247 12.7133C26.496 12.6687 26.6119 12.5974 26.5228 12.5885C26.4514 12.5796 26.2909 12.6687 26.4247 12.7133ZM26.4693 12.2764L26.4514 12.2853C26.4693 12.3031 26.4871 12.3121 26.5049 12.3121C26.5138 12.3121 26.5317 12.3031 26.5317 12.2764H26.4693ZM26.7635 12.5082C26.7813 12.428 26.7635 12.4012 26.7189 12.4012C26.7011 12.4012 26.6743 12.4101 26.6387 12.4191C26.6922 12.4369 26.7368 12.4636 26.7635 12.5082ZM26.817 12.5171L26.7813 12.4993C26.7724 12.4993 26.7813 12.5261 26.7992 12.5261C26.8081 12.5261 26.8081 12.5261 26.817 12.5171ZM27.1915 12.4369L27.2004 12.428C27.1915 12.4191 27.1826 12.4191 27.1737 12.4191C27.138 12.4191 27.138 12.4726 27.1558 12.4726C27.1648 12.4726 27.1737 12.4636 27.1915 12.4369ZM27.5036 12.6598L27.4768 12.6331C27.4679 12.642 27.4768 12.6866 27.5036 12.6598ZM27.6552 12.3656C27.6552 12.4458 27.673 12.4815 27.7354 12.4726C27.7265 12.4369 27.7354 12.3477 27.6908 12.3477C27.6819 12.3477 27.673 12.3566 27.6552 12.3656ZM28.0921 13.177C28.0742 13.1413 28.1188 13.1502 28.0921 13.177V13.177ZM28.0564 14.6571C28.1188 14.6215 28.0921 14.6036 28.0653 14.6036C28.0475 14.6036 28.0297 14.6125 28.0297 14.6215L28.0564 14.6571ZM28.1545 13.8725C28.0921 13.8992 28.0921 13.9349 28.1456 13.9884C28.208 13.9527 28.2169 13.9081 28.1545 13.8725ZM28.1991 13.8101C28.1812 13.7922 28.1634 13.7833 28.1545 13.7833C28.1367 13.7833 28.1188 13.7922 28.1188 13.8011C28.1188 13.8101 28.1277 13.819 28.1634 13.819C28.1723 13.819 28.1812 13.819 28.1991 13.8101ZM28.2169 14.4164L28.2347 14.3896C28.2347 14.3807 28.1902 14.3896 28.2169 14.4164ZM28.2526 14.8176C28.2793 14.8444 28.2882 14.7998 28.2526 14.8176V14.8176ZM28.5112 14.9246V14.88C28.4755 14.9068 28.4933 14.9157 28.5112 14.9246ZM28.1099 12.3299C28.1188 12.3477 28.1367 12.3566 28.1545 12.3566C28.1723 12.3566 28.1902 12.3477 28.208 12.3388C28.1902 12.321 28.1723 12.3121 28.1545 12.3121C28.1367 12.3121 28.1277 12.3121 28.1099 12.3299ZM28.0653 12.7044C28.0475 12.749 28.0742 12.7757 28.1367 12.7757C28.2437 12.7222 28.1545 12.6866 28.101 12.6866C28.0832 12.6866 28.0653 12.6955 28.0653 12.7044ZM28.2169 13.4623C28.1902 13.4891 28.2347 13.498 28.2169 13.4623V13.4623ZM28.3596 13.0521C28.3774 13.0165 28.3507 12.9986 28.3328 12.9986C28.315 12.9986 28.2972 13.0165 28.3596 13.0521ZM28.4309 13.3375C28.4309 13.2929 28.4131 13.2751 28.3952 13.2751C28.3685 13.2751 28.3328 13.3018 28.2882 13.3642C28.3061 13.3999 28.3239 13.4177 28.3417 13.4177C28.3685 13.4177 28.3952 13.391 28.4309 13.3375ZM28.3863 14.452C28.4131 14.4788 28.422 14.4342 28.3863 14.452V14.452ZM28.7876 18.8123C28.8143 18.8568 28.8143 18.9193 28.7697 19.0084C28.743 19.0084 28.7252 19.0173 28.6984 19.0173C28.6449 19.0173 28.5914 19.0084 28.5468 18.9995C28.4933 18.9906 28.4487 18.9817 28.4042 18.9817L28.3061 18.9906C28.2793 18.9817 28.2526 18.9817 28.2258 18.9817C28.1456 18.9817 28.0742 18.9906 27.994 18.9995C27.9762 19.0084 27.9583 19.0084 27.9405 19.0084C27.8959 19.0084 27.8513 18.9995 27.8067 18.9995C27.7978 18.9995 27.78 18.9995 27.7711 18.9995C27.7443 19.0084 27.7087 18.9728 27.7176 18.946C27.7176 18.9103 27.7176 18.8836 27.7176 18.8568C27.7176 18.8301 27.7354 18.8033 27.8157 18.7855L27.8781 18.732V18.6072C27.8602 18.4645 27.8513 18.3397 27.8513 18.2327C27.8513 18.1881 27.8602 18.1435 27.8602 18.1079V18.0633C27.8602 17.9919 27.8602 17.9117 27.8781 17.8225C27.8781 17.7423 27.8781 17.662 27.8692 17.5996C27.8602 17.4569 27.8602 17.3678 27.8602 17.3232V17.2429C27.8602 17.127 27.8692 17.0022 27.8781 16.8952C27.8781 16.806 27.8781 16.7347 27.8781 16.6812L27.887 16.3156V16.2443C27.8781 16.1997 27.8781 16.1551 27.8602 16.1105C27.8513 16.057 27.8513 16.0035 27.8602 15.9411C27.8781 15.8965 27.8781 15.8341 27.8781 15.736C27.8781 15.6023 27.8692 15.5131 27.8692 15.4507V15.0049C27.8692 14.9514 27.8692 14.9157 27.8781 14.8979C27.8781 14.8622 27.8781 14.8355 27.887 14.7998V14.5412C27.8781 14.4966 27.8781 14.452 27.8692 14.4164C27.8692 14.354 27.8692 14.3005 27.8692 14.2559C27.887 14.2024 27.887 14.1311 27.8781 14.0419C27.8692 13.9438 27.8692 13.8546 27.8692 13.7833C27.8692 13.712 27.8692 13.6496 27.8781 13.5961C27.8781 13.5693 27.887 13.5426 27.887 13.5247V13.3642C27.887 13.3375 27.8781 13.3196 27.8781 13.2929C27.8781 13.1948 27.8781 13.0878 27.8781 12.9897C27.8781 12.963 27.887 12.9362 27.887 12.9184C27.8513 12.9184 27.8246 12.9184 27.7978 12.9273C27.7622 12.9362 27.7265 12.9362 27.6908 12.9362C27.6552 12.9362 27.6195 12.9362 27.5838 12.9273C27.5571 12.9184 27.5303 12.9184 27.5036 12.9184C27.4947 12.9184 27.4857 12.9184 27.4768 12.9184C27.4144 12.9273 27.3609 12.9362 27.2985 12.9362C27.2539 12.9362 27.2093 12.9273 27.1558 12.9273H27.1291C27.1113 12.9273 27.0934 12.9273 27.0667 12.9273C27.0132 12.9273 26.9508 12.9273 26.8794 12.9184C26.817 12.9095 26.7635 12.9095 26.7189 12.9095C26.6565 12.9095 26.603 12.9095 26.5584 12.9273C26.5049 12.9273 26.4514 12.9273 26.3979 12.9273C26.3712 12.9184 26.3444 12.9184 26.2998 12.9184V13.07C26.2998 13.0878 26.3088 13.1146 26.3088 13.1324C26.3177 13.2037 26.3177 13.2572 26.3177 13.3107C26.3177 13.3642 26.3088 13.4088 26.3088 13.4445C26.2998 13.498 26.2998 13.5426 26.3088 13.5782C26.3177 13.6763 26.3266 13.7476 26.3355 13.7922C26.3444 13.8457 26.3444 13.9081 26.3355 13.9616L26.3266 13.9795C26.3623 14.0062 26.4247 14.0419 26.4603 14.0954C26.4603 14.1489 26.496 14.1846 26.4693 14.2291C26.4425 14.2648 26.4068 14.2648 26.3712 14.2648C26.3623 14.2648 26.3444 14.2648 26.3355 14.2648C26.2463 14.2648 26.1661 14.2381 26.0769 14.2291H25.6668C25.5954 14.2291 25.5241 14.2381 25.4617 14.247C25.426 14.2559 25.3903 14.2381 25.3903 14.2113C25.3814 14.1667 25.3636 14.1132 25.3903 14.0776C25.426 14.0241 25.4795 14.033 25.5241 13.9884C25.5152 13.8992 25.5152 13.8368 25.5241 13.7833C25.5419 13.6941 25.5419 13.6228 25.5152 13.5515C25.4973 13.5069 25.4973 13.4534 25.5063 13.3731L25.5241 13.3196C25.5508 13.2394 25.5508 13.1681 25.5241 13.1146C25.5152 13.0521 25.5152 12.9986 25.533 12.9451C25.533 12.8203 25.533 12.6866 25.533 12.5617C25.5241 12.5261 25.5152 12.4815 25.5152 12.4369C25.5063 12.4012 25.5241 12.3834 25.6222 12.321C25.64 12.2942 25.6578 12.2764 25.6935 12.2051C25.7024 12.1783 25.7292 12.1605 25.8183 12.1516H26.0145C26.1661 12.1337 26.2909 12.1248 26.389 12.1248C26.4425 12.1248 26.4871 12.1248 26.5228 12.1337H26.5584C26.5852 12.1248 26.603 12.1248 26.6298 12.1248C26.6833 12.1248 26.7368 12.1337 26.7992 12.1427C26.8348 12.1427 26.8616 12.1427 26.8973 12.1427C26.9418 12.1427 26.9864 12.1427 27.031 12.1337C27.1202 12.1337 27.1826 12.1248 27.2361 12.1248C27.2628 12.1248 27.2896 12.1248 27.3074 12.1337H27.3787C27.4412 12.1337 27.4857 12.1337 27.5214 12.1337C27.566 12.1337 27.6373 12.1427 27.7265 12.1427C27.8246 12.1516 27.8959 12.1516 27.9405 12.1516H28.2882C28.3685 12.1516 28.4309 12.1427 28.5112 12.1337C28.5379 12.1248 28.5647 12.1248 28.5914 12.1248C28.6182 12.1248 28.6449 12.1248 28.6717 12.1337C28.6895 12.1248 28.7073 12.1248 28.7252 12.1248C28.7341 12.1248 28.743 12.1248 28.7608 12.1337C28.8143 12.1605 28.8143 12.2318 28.7608 12.3388C28.7073 12.3745 28.6806 12.3834 28.6717 12.5261C28.6806 12.5706 28.6717 12.6152 28.6717 12.6598C28.6717 12.6955 28.6538 12.7133 28.636 12.7133L28.6538 13.1324C28.636 13.2037 28.636 13.2661 28.6627 13.3196C28.6717 13.3731 28.6717 13.4356 28.6627 13.4891C28.6538 13.5158 28.6449 13.5515 28.6449 13.6139C28.6449 13.7298 28.6538 13.8101 28.6538 13.8636C28.6627 13.9171 28.6717 13.9795 28.6717 14.033C28.6717 14.1043 28.6627 14.1846 28.6538 14.2737C28.636 14.3272 28.636 14.3896 28.6538 14.4431C28.6627 14.5055 28.6717 14.559 28.6717 14.6215C28.6717 14.6482 28.6627 14.6839 28.6627 14.7285C28.6627 14.782 28.6627 14.8176 28.6538 14.8444V15.0405C28.6538 15.094 28.6538 15.1743 28.6538 15.2813C28.6538 15.3794 28.6538 15.4596 28.6538 15.5042V15.5755C28.636 15.638 28.6449 15.6915 28.6538 15.7628C28.6806 15.8341 28.6806 15.9144 28.6538 15.9857C28.636 16.057 28.636 16.1284 28.6449 16.2086C28.6538 16.2532 28.6538 16.3156 28.6538 16.3959C28.6538 16.4494 28.6538 16.5029 28.6538 16.5742C28.636 16.6455 28.6449 16.7347 28.6538 16.8328C28.6717 16.8952 28.6717 16.9665 28.6538 17.0468C28.6449 17.0824 28.6449 17.1181 28.6538 17.1538C28.6627 17.2073 28.6627 17.2697 28.6627 17.3232C28.6627 17.3767 28.6627 17.4213 28.6538 17.4659V17.4926C28.6627 17.555 28.6538 17.6353 28.6449 17.7512C28.6449 17.8047 28.636 17.8582 28.636 17.9117C28.636 17.9652 28.6449 18.0187 28.6538 18.0633C28.6717 18.1168 28.6717 18.1792 28.6538 18.2327C28.6538 18.2594 28.6449 18.2951 28.6449 18.3486V18.4556C28.6538 18.5002 28.6538 18.5359 28.6538 18.5804C28.6538 18.6072 28.6538 18.6429 28.6538 18.6964C28.6627 18.7231 28.6538 18.7409 28.6627 18.7588L28.7252 18.7855C28.7519 18.7855 28.7787 18.7944 28.7876 18.8123Z" fill="black"/>
<path d="M21.03 17.5194C21.0121 17.457 21.0211 17.4748 21.03 17.5194V17.5194ZM21.0746 18.2327C21.1013 18.2327 21.2083 18.1881 21.1459 18.1525C21.1191 18.1168 21.0924 18.1079 21.0656 18.1079C21.0389 18.1079 21.0121 18.1257 20.9854 18.197C21.0121 18.2238 21.0389 18.2327 21.0746 18.2327ZM21.3956 18.732L21.351 18.6964C21.3331 18.7053 21.3421 18.7588 21.3688 18.7588C21.3688 18.7588 21.3777 18.7499 21.3956 18.732ZM21.5026 18.09C21.4936 18.0811 21.4847 18.0811 21.4758 18.0811C21.4669 18.0811 21.4401 18.09 21.4134 18.1079C21.4312 18.1257 21.4491 18.1346 21.4758 18.1346C21.4758 18.1346 21.4847 18.1346 21.4936 18.1346L21.5026 18.09ZM21.4936 16.9487L21.5026 16.9041C21.4223 16.9041 21.4223 16.922 21.4936 16.9487ZM21.4936 17.4391V17.3767C21.5026 17.341 21.5026 17.3054 21.5026 17.2697C21.4758 17.2697 21.4491 17.2875 21.4401 17.35C21.4491 17.4302 21.4669 17.448 21.4936 17.4391ZM21.4847 18.3843V18.3665C21.4491 18.3754 21.4312 18.4021 21.4669 18.4735C21.5026 18.4467 21.5382 18.42 21.5471 18.3843H21.4847ZM21.9573 18.4645C21.9306 18.4913 21.9751 18.5002 21.9573 18.4645V18.4645ZM22.626 18.7231C22.6082 18.7053 22.5904 18.6964 22.5815 18.6964C22.5636 18.6964 22.5458 18.7053 22.5458 18.7142C22.5458 18.7231 22.5636 18.7231 22.5904 18.7231C22.5993 18.7231 22.6082 18.7231 22.626 18.7231ZM22.6706 18.5894C22.6795 18.6161 22.6885 18.6161 22.6974 18.6161C22.7152 18.6161 22.7241 18.5715 22.6885 18.5715C22.6795 18.5715 22.6706 18.5715 22.6706 18.5894ZM22.8846 18.7766C22.8668 18.7409 22.9114 18.7499 22.8846 18.7766V18.7766ZM23.161 18.6072C23.2324 18.5715 23.2324 18.5537 23.1521 18.5537C23.0719 18.5715 23.0719 18.5894 23.161 18.6072ZM23.6247 18.5359L23.598 18.5091C23.589 18.518 23.598 18.5626 23.6247 18.5359ZM21.1548 15.5221C21.1459 15.4953 21.1281 15.4775 21.1102 15.4775C21.0924 15.4775 21.0656 15.4953 21.0478 15.5221C21.0656 15.5577 21.0835 15.5756 21.1013 15.5756C21.1191 15.5756 21.137 15.5577 21.1548 15.5221ZM21.1726 16.708L21.1994 16.6901C21.1994 16.6723 21.1459 16.6812 21.1726 16.708ZM21.2261 17.2162L21.244 17.1895C21.244 17.1805 21.1994 17.1895 21.2261 17.2162ZM21.2172 17.9385C21.244 17.9652 21.244 17.9206 21.2172 17.9385V17.9385ZM21.2261 18.732C21.2172 18.7409 21.3956 18.5804 21.3242 18.6072C21.2529 18.625 21.1816 18.6518 21.2261 18.732ZM21.3599 18.2684L21.3866 18.2416C21.3777 18.2327 21.3331 18.2416 21.3599 18.2684ZM21.3866 18.2327C21.458 18.2238 21.4312 18.1703 21.4312 18.1346C21.3688 18.1435 21.3956 18.197 21.3866 18.2327ZM21.4936 18.5537C21.5917 18.5359 21.6006 18.518 21.5115 18.5091C21.4134 18.5091 21.4134 18.5269 21.4936 18.5537ZM21.7166 18.7053L21.7433 18.732C21.7522 18.7231 21.7433 18.6785 21.7166 18.7053ZM21.7433 18.8212C21.7166 18.7855 21.7701 18.7944 21.7433 18.8212V18.8212ZM21.1013 14.6571C21.0567 14.6928 21.0567 14.7374 21.1191 14.7731C21.1726 14.7285 21.1726 14.6839 21.1013 14.6571ZM21.1816 16.2443C21.1459 16.2176 21.1102 16.2176 21.0656 16.2176C21.0835 16.2443 21.1013 16.2621 21.1191 16.2621C21.137 16.2621 21.1548 16.2532 21.1816 16.2443ZM21.2796 15.9768C21.1905 15.9946 21.1816 16.0125 21.2618 16.0303C21.3599 16.0214 21.3688 16.0036 21.2796 15.9768ZM21.2261 16.4048C21.2529 16.4315 21.2707 16.4405 21.2886 16.4405C21.3064 16.4405 21.3242 16.4226 21.3421 16.387C21.3242 16.3691 21.3064 16.3513 21.2886 16.3513C21.2707 16.3513 21.2529 16.3691 21.2261 16.4048ZM21.351 15.6915C21.3331 15.6736 21.3153 15.6647 21.2975 15.6647C21.2886 15.6647 21.2707 15.6736 21.2529 15.6915C21.2707 15.7004 21.2796 15.7093 21.2975 15.7093C21.3153 15.7093 21.3331 15.7093 21.351 15.6915ZM22.8311 18.2149L22.8935 18.197C22.9292 18.1881 22.956 18.1792 22.9827 18.1792C23.0184 18.1792 23.0451 18.1881 23.0719 18.197C23.1165 18.2149 23.161 18.2149 23.1967 18.1614C23.1878 18.1079 23.1878 18.0455 23.1967 17.992C23.2056 17.9741 23.2056 17.9474 23.2056 17.9206V17.6799C23.1967 17.564 23.1967 17.4837 23.1967 17.4302V17.3945C23.1967 17.35 23.1878 17.3054 23.1878 17.2608C23.1878 17.1984 23.1967 17.136 23.2056 17.0825C23.2056 17.0557 23.2056 17.02 23.1967 16.9755C23.1789 16.9041 23.1789 16.8328 23.1967 16.7615C23.2056 16.7169 23.2056 16.6723 23.2056 16.6277V16.592C23.2056 16.5653 23.2056 16.5296 23.2056 16.5029C23.1967 16.4405 23.1967 16.378 23.1967 16.3246C23.1967 16.2443 23.2056 16.1819 23.2056 16.1373L23.1967 15.9144C23.17 15.8431 23.17 15.7717 23.1967 15.6915C23.2145 15.638 23.2145 15.5845 23.1878 15.5221C23.17 15.5131 23.1432 15.5042 23.1165 15.4864L23.0095 15.4329C22.956 15.4061 22.9203 15.3883 22.9025 15.3705C22.8668 15.3526 22.84 15.3437 22.8222 15.3259C22.7776 15.2902 22.7241 15.2635 22.6706 15.2456C22.635 15.2367 22.6082 15.2367 22.5904 15.2278C22.519 15.1921 22.4655 15.1654 22.421 15.1565C22.3853 15.1386 22.3585 15.1208 22.3407 15.103C22.314 15.0851 22.2783 15.0673 22.2248 15.0406C22.198 15.0316 22.1713 15.0138 22.1445 14.996C22.0643 14.9514 22.0019 14.9068 21.9573 14.889L21.7076 14.7641C21.6809 14.7552 21.6631 14.7463 21.6452 14.782L21.6363 14.9781C21.6363 15.0316 21.6363 15.1119 21.6363 15.21C21.6363 15.317 21.6363 15.3883 21.6363 15.4418L21.6274 15.5399L21.6363 15.6915C21.6631 15.7717 21.6631 15.8431 21.6274 15.959V16.1641C21.6363 16.2086 21.6363 16.2621 21.6363 16.3246C21.6363 16.378 21.6363 16.4405 21.6274 16.5296V16.6901C21.6363 16.708 21.6363 16.7347 21.6363 16.7615C21.6541 16.8328 21.6541 16.9041 21.6363 16.9755C21.6274 17.02 21.6274 17.0557 21.6363 17.0825C21.6452 17.136 21.6452 17.1984 21.6452 17.2608C21.6452 17.3054 21.6452 17.35 21.6363 17.3945V17.4302C21.6452 17.4837 21.6363 17.564 21.6274 17.6977L21.6363 17.992C21.6541 18.0455 21.6541 18.1079 21.6363 18.1614C21.6363 18.1792 21.6363 18.197 21.6809 18.2149C21.7701 18.206 21.8503 18.197 21.9216 18.197C21.9751 18.197 22.0375 18.206 22.091 18.2149C22.1445 18.2238 22.2248 18.2238 22.3407 18.2238C22.3942 18.2238 22.4388 18.2238 22.4655 18.2149C22.4923 18.206 22.519 18.206 22.5458 18.206C22.5815 18.206 22.6082 18.206 22.635 18.2149C22.6528 18.2238 22.6795 18.2238 22.7063 18.2238H22.742C22.7776 18.2238 22.8044 18.2238 22.8311 18.2149ZM21.1548 13.5515C21.1726 13.5782 21.1816 13.5872 21.1905 13.5872C21.2083 13.5872 21.2083 13.5337 21.1726 13.5337C21.1637 13.5337 21.1637 13.5337 21.1548 13.5515ZM21.4491 14.1578C21.4491 14.1578 21.3599 14.1043 21.2975 14.1043C21.2707 14.1043 21.2529 14.1132 21.2529 14.1578C21.2618 14.1846 21.2796 14.1935 21.3153 14.1935C21.3688 14.1935 21.4401 14.1667 21.4491 14.1578ZM21.3866 15.3259L21.3599 15.3081C21.351 15.3081 21.3599 15.3526 21.3866 15.3259ZM22.528 14.5947L22.5012 14.568C22.4923 14.5769 22.5012 14.6215 22.528 14.5947ZM22.5904 14.6393C22.5547 14.6661 22.519 14.7017 22.4923 14.7285C22.519 14.7374 22.5458 14.7463 22.5725 14.7463C22.6171 14.7463 22.635 14.7196 22.5904 14.6393ZM22.6528 14.8355C22.626 14.8087 22.6082 14.7909 22.5815 14.7909C22.5636 14.7909 22.5458 14.8087 22.5369 14.8355C22.5547 14.8711 22.5725 14.8801 22.5904 14.8801C22.6082 14.8801 22.635 14.8711 22.6528 14.8355ZM22.7152 14.782L22.6885 14.7552C22.6795 14.7641 22.6885 14.8087 22.7152 14.782ZM22.7598 14.889C22.8044 14.8622 22.7865 14.8444 22.7687 14.8444C22.7509 14.8444 22.7241 14.8622 22.7598 14.889ZM23.3215 15.2813C23.375 15.2278 23.375 15.1921 23.3126 15.1654C23.2502 15.2011 23.2502 15.2456 23.3215 15.2813ZM23.375 15.6291C23.3483 15.6558 23.3929 15.6647 23.375 15.6291V15.6291ZM23.4107 17.2965C23.4375 17.3232 23.4464 17.2786 23.4107 17.2965V17.2965ZM23.4107 17.6799C23.4553 17.6531 23.4375 17.5996 23.4285 17.5996C23.4107 17.5996 23.4018 17.6264 23.4107 17.6799ZM23.4107 14.9603C23.4375 14.9871 23.4464 14.9425 23.4107 14.9603V14.9603ZM23.491 16.5296C23.6069 16.494 23.6069 16.4583 23.4999 16.4315C23.384 16.4583 23.384 16.485 23.491 16.5296ZM23.6158 18.2238C23.598 18.1881 23.6425 18.197 23.6158 18.2238V18.2238ZM23.482 15.8252C23.5177 15.7896 23.5534 15.7628 23.589 15.7361C23.5534 15.7182 23.5266 15.7182 23.5088 15.7182C23.4642 15.7182 23.4464 15.745 23.482 15.8252ZM23.491 15.3883C23.5355 15.3705 23.5177 15.3526 23.4999 15.3526C23.482 15.3526 23.4553 15.3616 23.491 15.3883ZM23.6693 15.0584L23.6515 15.0495C23.6425 15.0673 23.6782 15.0762 23.6693 15.0584ZM23.7585 16.2711C23.7406 16.2621 23.7228 16.2621 23.705 16.2621C23.6693 16.2621 23.6336 16.28 23.6069 16.3156C23.6336 16.3424 23.6604 16.3513 23.6782 16.3513C23.705 16.3513 23.7406 16.3246 23.7585 16.2711ZM23.6158 16.699C23.6515 16.7169 23.6782 16.7347 23.705 16.7347C23.7406 16.7347 23.7585 16.708 23.7674 16.6634C23.7585 16.6277 23.7406 16.6099 23.7228 16.6099C23.6782 16.6099 23.6247 16.6812 23.6158 16.699ZM23.7674 15.5577C23.7317 15.5488 23.7139 15.5399 23.6871 15.5399C23.6425 15.5399 23.6336 15.5845 23.6604 15.6647C23.696 15.6291 23.7317 15.5934 23.7674 15.5577ZM23.696 15.9055C23.7941 15.8876 23.7941 15.8698 23.7139 15.852C23.6158 15.8609 23.6069 15.8787 23.696 15.9055ZM21.1013 12.4102C21.0567 12.4547 21.0567 12.4904 21.1191 12.5261C21.1726 12.4815 21.1726 12.4458 21.1013 12.4102ZM21.3421 12.9987C21.3956 12.9897 21.3866 12.9362 21.3688 12.9362C21.3599 12.9273 21.351 12.9452 21.3421 12.9987ZM21.3688 12.6866C21.3599 12.642 21.4223 12.6866 21.3688 12.6866V12.6866ZM21.4312 13.3018C21.4223 13.2929 21.4045 13.284 21.3866 13.284C21.3688 13.284 21.351 13.2929 21.3331 13.3107C21.3421 13.3553 21.351 13.3732 21.3688 13.3732C21.3866 13.3732 21.4045 13.3464 21.4312 13.3018ZM21.4312 12.7133L21.3956 12.6955C21.3866 12.7044 21.3956 12.7222 21.4134 12.7222C21.4223 12.7222 21.4223 12.7222 21.4312 12.7133ZM21.5026 13.391C21.4936 13.3821 21.4936 13.3821 21.4847 13.3821C21.4669 13.3821 21.4491 13.391 21.5026 13.391ZM21.5561 14.4253C21.5382 14.3896 21.5828 14.3986 21.5561 14.4253V14.4253ZM21.5382 12.8025L21.6987 12.7936C21.7255 12.7668 21.7344 12.7401 21.6898 12.7401C21.6452 12.7312 21.565 12.7668 21.5382 12.8025ZM21.6541 14.3896C21.7076 14.3629 21.6898 14.3451 21.672 14.3451C21.6452 14.3451 21.6274 14.354 21.6541 14.3896ZM21.9127 14.2291C21.8771 14.2113 21.8414 14.2024 21.8057 14.2024C21.8146 14.2291 21.8325 14.247 21.8592 14.247C21.8681 14.247 21.886 14.2381 21.9127 14.2291ZM21.9306 12.6598C21.9395 12.5796 21.9216 12.5528 21.8771 12.5528C21.8592 12.5528 21.8325 12.5617 21.8057 12.5707C21.8592 12.5885 21.9038 12.6152 21.9306 12.6598ZM21.9841 12.6687L21.9484 12.6509C21.9395 12.6509 21.9484 12.6777 21.9662 12.6777C21.9662 12.6777 21.9751 12.6777 21.9841 12.6687ZM22.1267 14.2826C22.1178 14.2648 22.1 14.2648 22.1 14.2648C22.0732 14.2648 22.0732 14.3183 22.1267 14.2826ZM22.2961 14.8355C22.305 14.782 22.2961 14.7641 22.2872 14.7641C22.2694 14.7641 22.2515 14.8087 22.2961 14.8355ZM22.314 14.5056C22.3407 14.5323 22.3496 14.4877 22.314 14.5056V14.5056ZM22.4923 14.996L22.519 15.0227C22.528 15.0138 22.519 14.9692 22.4923 14.996ZM21.7166 12.4458C21.6987 12.428 21.6809 12.4191 21.672 12.4191C21.6541 12.4191 21.6363 12.4191 21.6185 12.4369C21.6363 12.4547 21.6452 12.4637 21.6631 12.4637C21.6809 12.4637 21.6987 12.4547 21.7166 12.4458ZM21.779 14.2024C21.779 14.1578 21.8325 14.2024 21.779 14.2024V14.2024ZM21.8325 14.4253C21.7344 14.4431 21.7344 14.461 21.8146 14.4699C21.9127 14.4699 21.9216 14.4521 21.8325 14.4253ZM21.8681 14.5769C21.886 14.5412 21.8592 14.5234 21.8414 14.5234C21.8236 14.5234 21.8057 14.5412 21.8681 14.5769ZM22.1178 12.4012L22.091 12.3745C22.0821 12.3834 22.091 12.428 22.1178 12.4012ZM22.3585 12.5796C22.3496 12.5707 22.3407 12.5707 22.3407 12.5707C22.305 12.5707 22.305 12.6242 22.3229 12.6242C22.3318 12.6242 22.3407 12.6152 22.3585 12.5796ZM22.635 12.4012C22.6617 12.428 22.6706 12.3834 22.635 12.4012V12.4012ZM22.8222 12.5172C22.8133 12.5974 22.84 12.6331 22.8935 12.6242C22.8846 12.5885 22.8935 12.4993 22.8579 12.4993C22.849 12.4993 22.8311 12.5082 22.8222 12.5172ZM23.054 12.3032C23.0451 12.3299 23.0451 12.3745 23.054 12.4191C23.0808 12.3834 23.1165 12.3567 23.1521 12.321L23.054 12.3032ZM23.3661 12.4904C23.3483 12.4726 23.3305 12.4637 23.3126 12.4637C23.3037 12.4637 23.2859 12.4726 23.268 12.4815C23.2859 12.4993 23.2948 12.5082 23.3126 12.5082C23.3305 12.5082 23.3483 12.4993 23.3661 12.4904ZM23.7585 12.5885C23.7317 12.5528 23.7852 12.5617 23.7585 12.5885V12.5885ZM23.9903 15.8787C23.9992 15.9322 23.9992 15.9946 23.9903 16.0481C23.9725 16.1195 23.9635 16.1908 23.9725 16.2711V16.6188C23.9725 16.6634 23.9725 16.7347 23.9725 16.8328C23.9814 16.922 23.9814 16.9933 23.9814 17.0379C23.9903 17.0735 23.9903 17.1181 23.9903 17.1805V17.2519C23.9992 17.2965 23.9903 17.3856 23.9814 17.5283C23.9725 17.5907 23.9725 17.671 23.9814 17.7512C23.9903 17.8404 23.9992 17.9206 23.9903 17.992V18.0365C23.9903 18.0722 23.9992 18.1168 23.9992 18.1614C23.9992 18.2684 23.9903 18.3843 23.9725 18.5359V18.7409C23.9725 18.7944 23.9546 18.8212 23.8922 18.8212C23.8833 18.839 23.7228 18.9906 23.7139 18.9995C23.696 18.9995 23.6782 19.0084 23.6515 19.0084C23.6158 19.0084 23.5801 18.9995 23.5445 18.9906L23.4731 19.0174C23.4196 19.0174 23.3661 19.0174 23.3126 19.0174C23.268 19.0084 23.1967 18.9995 23.0986 18.9906C23.054 18.9906 23.0095 18.9906 22.9649 18.9906C22.8668 18.9906 22.7598 18.9906 22.6617 18.9906C22.6082 18.9817 22.5636 18.9817 22.5101 18.9817C22.4655 18.9817 22.412 18.9817 22.3585 18.9906C22.207 18.9906 22.0643 18.9906 21.9127 18.9906C21.8771 18.9906 21.8414 18.9817 21.8146 18.9817C21.7701 18.9817 21.7344 18.9906 21.6987 18.9995C21.6809 18.9995 21.6541 18.9995 21.6274 18.9995C21.5917 18.9995 21.565 18.9995 21.5382 18.9995C21.458 18.9817 21.3688 18.9817 21.2886 18.9817C21.2083 18.9817 21.137 18.9817 21.0567 18.9906C21.0389 18.9906 21.0032 18.9995 20.9497 18.9995H20.8606C20.8338 19.0084 20.8071 18.9995 20.7892 19.0084C20.7446 19.0174 20.7001 18.9817 20.7179 18.9371C20.7179 18.9104 20.7268 18.8925 20.7179 18.8569C20.709 18.8212 20.7446 18.7766 20.7892 18.7855C20.7981 18.7944 20.8338 18.7499 20.8695 18.732V18.5359C20.8516 18.3843 20.8427 18.2684 20.8427 18.1614C20.8427 18.1168 20.8427 18.0722 20.8516 18.0365V17.992C20.8427 17.9206 20.8427 17.8404 20.8606 17.7512C20.8695 17.671 20.8606 17.5907 20.8516 17.5283C20.8427 17.3856 20.8427 17.2965 20.8516 17.2519V17.1805C20.8516 17.1181 20.8516 17.0735 20.8516 17.0379C20.8516 16.9933 20.8606 16.922 20.8606 16.8328C20.8695 16.7347 20.8695 16.6634 20.8695 16.6188V16.2711C20.8695 16.1908 20.8695 16.1195 20.8516 16.0481C20.8338 15.9946 20.8338 15.9322 20.8516 15.8787C20.8606 15.8341 20.8695 15.7628 20.8695 15.6647C20.8606 15.5399 20.8516 15.4507 20.8516 15.3883L20.8606 14.9425C20.8606 14.889 20.8606 14.8533 20.8606 14.8355C20.8695 14.7552 20.8784 14.6839 20.8784 14.6126C20.8784 14.5234 20.8695 14.4342 20.8606 14.354C20.8516 14.2916 20.8516 14.2381 20.8606 14.1935C20.8695 14.14 20.8695 14.0687 20.8606 13.9795C20.8606 13.8814 20.8606 13.7922 20.8606 13.7209C20.8606 13.6496 20.8606 13.5872 20.8606 13.5337C20.8695 13.4802 20.8695 13.4356 20.8695 13.3821C20.8695 13.3286 20.8695 13.284 20.8606 13.2394C20.8606 13.1681 20.8606 13.1146 20.8606 13.0611C20.8606 13.0076 20.8606 12.963 20.8606 12.9273C20.8695 12.8827 20.8695 12.8382 20.8606 12.7936C20.8516 12.6955 20.8516 12.6331 20.8427 12.5796C20.8249 12.5261 20.8249 12.4726 20.8427 12.4191V12.4012C20.8249 12.3834 20.7981 12.3656 20.7714 12.3656C20.7357 12.3567 20.709 12.3299 20.7268 12.1872C20.7268 12.1605 20.7536 12.1516 20.7803 12.1516C20.7892 12.1516 20.7981 12.1516 20.8071 12.1516C20.8427 12.1694 20.8695 12.1694 20.8962 12.1694C21.0032 12.1694 21.1102 12.1694 21.2172 12.1694C21.2796 12.1516 21.3421 12.1516 21.3956 12.1516C21.4312 12.1516 21.4669 12.1516 21.4936 12.1605C21.5204 12.1605 21.5561 12.1694 21.5828 12.1694C21.6363 12.1694 21.6809 12.1605 21.7255 12.1427C21.7433 12.1337 21.7701 12.1337 21.8057 12.1337C21.8325 12.1337 21.8592 12.1337 21.8949 12.1427L21.9573 12.1605C21.984 12.1694 22.0108 12.1694 22.0286 12.1694H22.1C22.1178 12.1694 22.1356 12.1694 22.1624 12.1605C22.1891 12.1516 22.2159 12.1516 22.2426 12.1516C22.2694 12.1516 22.2961 12.1516 22.3318 12.1605C22.3496 12.1694 22.3942 12.1694 22.4566 12.1694C22.5636 12.1694 22.6439 12.1694 22.7063 12.1605C22.7598 12.1516 22.8133 12.1516 22.8757 12.1516C22.947 12.1516 23.0273 12.1516 23.161 12.1694H23.2859C23.3394 12.1516 23.3929 12.1516 23.4731 12.1516C23.5266 12.1337 23.589 12.1337 23.6425 12.1337C23.6782 12.1337 23.705 12.1337 23.7495 12.1337L23.7852 12.0446C23.7941 12.0178 23.812 12 23.8387 12.0089C23.8565 12.0089 23.8655 12.0089 23.8744 12.0089C23.9011 12.0089 23.919 12.0089 23.9457 12C23.9903 12 24.017 12.0535 23.9903 12.0892C23.9635 12.1605 23.9903 12.2229 23.9725 12.321C23.9725 12.4458 23.9725 12.5796 23.9725 12.7044C23.9725 12.8203 23.9992 12.9541 23.9457 13.1057C23.9279 13.1146 23.919 13.1146 23.91 13.1146C23.8209 13.1146 23.803 13.1057 23.7763 13.0076L23.7317 12.9362C23.6515 12.9273 23.5801 12.9273 23.5088 12.9273C23.4196 12.9273 23.3394 12.9362 23.2502 12.9452C23.1967 12.9452 23.1432 12.9452 23.0897 12.9452C23.063 12.9362 23.0273 12.9362 22.9827 12.9362C22.947 12.9362 22.9114 12.9362 22.8757 12.9362C22.7776 12.9452 22.6974 12.9452 22.6171 12.9452C22.5458 12.9452 22.4834 12.9452 22.4388 12.9362C22.3407 12.9362 22.2337 12.9362 22.1356 12.9362C22.0643 12.9452 22.0108 12.9452 21.9573 12.9452C21.9038 12.9452 21.8592 12.9452 21.8325 12.9362C21.8057 12.9362 21.779 12.9362 21.7522 12.9362C21.7344 12.9362 21.7166 12.9362 21.6631 12.9987L21.6274 13.1057L21.6452 13.2572C21.6541 13.3197 21.6541 13.3732 21.6452 13.4267C21.6363 13.4445 21.6363 13.4712 21.6274 13.5069V13.6496C21.6363 13.712 21.6363 13.7655 21.6452 13.8012C21.6452 13.8279 21.6452 13.8547 21.6541 13.8814C21.6898 13.8992 21.7255 13.9171 21.7433 13.9349C21.8146 13.9884 21.9038 14.0241 22.0019 14.033C22.0732 14.0508 22.2426 14.1578 22.2961 14.2024C22.3853 14.2648 22.4834 14.3094 22.5815 14.354C22.6974 14.3896 22.8133 14.4342 22.9203 14.5056C22.9381 14.5145 22.9649 14.5234 23.0005 14.5412C23.0273 14.5501 23.054 14.5591 23.0719 14.568C23.1789 14.6036 23.2591 14.6393 23.3215 14.6928C23.3483 14.7285 23.4018 14.7641 23.4642 14.782C23.491 14.782 23.5266 14.7998 23.5712 14.8355C23.6247 14.8801 23.6782 14.9068 23.7139 14.9157C23.7674 14.9336 23.812 14.9514 23.8476 14.9692C23.8565 14.9692 23.8655 14.9692 23.8744 14.9692C23.9011 14.9692 23.919 14.9692 23.9457 14.9871C23.9814 15.0138 23.9814 15.0495 23.9903 15.1386C23.9992 15.1654 23.9992 15.1832 23.9814 15.2456V15.3883C23.9814 15.4507 23.9814 15.5399 23.9725 15.6647C23.9725 15.7628 23.9725 15.8341 23.9903 15.8787Z" fill="black"/>
<path d="M16.4381 18.8033L16.4737 18.7588C16.4737 18.7588 16.4648 18.7588 16.4559 18.7588C16.4202 18.7588 16.3846 18.7766 16.4381 18.8033ZM16.5361 17.9563C16.5272 17.9384 16.5094 17.9295 16.5094 17.9295C16.4826 17.9295 16.4826 17.9919 16.5361 17.9563ZM16.4826 18.732C16.4826 18.7499 16.4916 18.7498 16.4916 18.7498C16.5094 18.7498 16.5272 18.7231 16.4826 18.732ZM16.7056 18.518C16.7145 18.4645 16.7056 18.4467 16.6966 18.4467C16.6788 18.4467 16.661 18.4913 16.7056 18.518ZM16.7234 18.1792C16.7501 18.2059 16.7591 18.1614 16.7234 18.1792V18.1792ZM16.9909 17.6531C16.9998 17.6174 17.0087 17.5907 16.982 17.5461C16.9374 17.5818 16.9374 17.6174 16.9909 17.6531ZM17.0444 17.2697C17.0444 17.234 17.0266 17.2251 17.0087 17.2251C16.9909 17.2251 16.9731 17.234 16.9731 17.2429C16.9731 17.2608 16.9909 17.2697 17.0444 17.2697ZM18.4354 17.448L18.4443 17.4302C18.4354 17.4302 18.4265 17.4302 18.4175 17.4302C18.3819 17.4302 18.3819 17.4837 18.4086 17.4837C18.4175 17.4837 18.4265 17.4748 18.4354 17.448ZM16.8661 15.4507C16.9106 15.4507 16.9196 15.4329 16.8661 15.4507V15.4507ZM17.0622 16.7971L17.0801 16.7704C17.0801 16.7614 17.0355 16.7704 17.0622 16.7971ZM17.0176 15.0049C17.0355 14.9692 17.0087 14.9514 16.9909 14.9514C16.9731 14.9514 16.9552 14.9692 17.0176 15.0049ZM17.0622 15.638L17.0801 15.6112C17.0801 15.6023 17.0355 15.6112 17.0622 15.638ZM17.0801 16.4672L17.0533 16.4405C17.0444 16.4494 17.0533 16.494 17.0801 16.4672ZM17.0533 16.0481C17.0801 16.0749 17.089 16.0303 17.0533 16.0481V16.0481ZM17.1246 15.1565C17.089 15.1743 17.0979 15.1297 17.1246 15.1565V15.1565ZM17.1781 15.8787C17.2227 15.852 17.2049 15.8341 17.1871 15.8341C17.1692 15.8341 17.1425 15.852 17.1781 15.8787ZM17.2406 16.2354L17.3119 16.271C17.3119 16.2265 17.3119 16.1462 17.2762 16.1462C17.2673 16.1462 17.2495 16.1551 17.2406 16.173C17.2406 16.1997 17.2406 16.2175 17.2406 16.2354ZM17.3208 14.7552C17.303 14.7374 17.2851 14.7285 17.2762 14.7285C17.2584 14.7285 17.2406 14.7374 17.2406 14.7463C17.2406 14.7552 17.2495 14.7552 17.2851 14.7552C17.2941 14.7552 17.303 14.7552 17.3208 14.7552ZM17.3119 15.4418L17.2851 15.424C17.2762 15.424 17.2851 15.4685 17.3119 15.4418ZM17.2851 15.1208C17.3119 15.1475 17.3208 15.103 17.2851 15.1208V15.1208ZM17.2851 14.6125C17.3119 14.6393 17.3208 14.5858 17.2851 14.6125V14.6125ZM17.303 13.5515C17.2851 13.5158 17.3297 13.5247 17.303 13.5515V13.5515ZM17.4813 16.066C17.517 16.0214 17.5616 15.9946 17.5883 15.9411C17.5616 15.9322 17.5437 15.9233 17.5259 15.9233C17.4635 15.9233 17.4546 15.9857 17.4813 16.066ZM17.6329 13.6317V13.6139C17.6151 13.605 17.5972 13.605 17.5794 13.605C17.5437 13.605 17.5081 13.6228 17.4813 13.6585C17.5081 13.6852 17.5259 13.6941 17.5526 13.6941C17.5794 13.6941 17.6061 13.6763 17.6329 13.6317ZM17.8023 15.7717C17.8291 15.7985 17.8736 15.8252 17.9093 15.843V15.8163C17.9004 15.7539 17.8826 15.6558 17.8736 15.531C17.8558 15.4329 17.838 15.3705 17.8112 15.3259C17.7934 15.2724 17.7845 15.2189 17.7845 15.1565C17.7934 15.0851 17.7845 15.0138 17.7666 14.9335L17.7042 14.5947C17.6953 14.5501 17.6864 14.5055 17.6686 14.4431C17.6686 14.461 17.6686 14.4877 17.6686 14.5145C17.6686 14.568 17.6686 14.6304 17.6596 14.6928C17.6507 14.7106 17.6418 14.7463 17.6329 14.7998C17.624 14.8444 17.6151 14.88 17.6061 14.9068L17.5705 15.103C17.5616 15.1565 17.5526 15.2367 17.5348 15.3348C17.517 15.4418 17.4991 15.5131 17.4902 15.5666L17.4813 15.629L17.5437 15.6558C17.5883 15.6825 17.624 15.6915 17.6507 15.7004C17.7042 15.7182 17.7577 15.745 17.8023 15.7717ZM17.6953 16.1373C17.7042 16.1462 17.7221 16.1551 17.7399 16.1551C17.7577 16.1551 17.7756 16.1462 17.7934 16.1373C17.7756 16.1195 17.7577 16.1105 17.7399 16.1105C17.7221 16.1105 17.7131 16.1195 17.6953 16.1373ZM18.1679 15.1386C18.2125 15.103 18.1946 15.0584 18.1768 15.0584C18.1679 15.0584 18.159 15.0762 18.1679 15.1386ZM18.2125 15.4596C18.257 15.4329 18.2392 15.3794 18.2214 15.3794C18.2125 15.3794 18.2035 15.4061 18.2125 15.4596ZM18.2303 16.5653C18.2125 16.5296 18.257 16.5385 18.2303 16.5653V16.5653ZM18.3462 16.1997C18.4265 16.164 18.3551 16.1284 18.2927 16.1284C18.2749 16.1284 18.257 16.1284 18.2481 16.1373C18.257 16.1819 18.2749 16.2086 18.3105 16.2086C18.3195 16.2086 18.3284 16.2086 18.3462 16.1997ZM18.471 16.8328C18.5335 16.7882 18.5424 16.7525 18.4889 16.7169C18.4265 16.7436 18.4175 16.7793 18.471 16.8328ZM18.6405 18.1614C18.7296 18.1435 18.7385 18.1257 18.6672 18.1079C18.5602 18.1168 18.5513 18.1346 18.6405 18.1614ZM18.6672 16.9933L18.7029 16.9576C18.7029 16.9487 18.694 16.9487 18.6761 16.9487C18.6494 16.9487 18.6137 16.9665 18.6672 16.9933ZM18.6761 17.4569C18.7207 17.4302 18.685 17.4124 18.6583 17.4124C18.6494 17.4124 18.6315 17.4124 18.6761 17.4569ZM18.7296 18.5626L18.7564 18.5359C18.7475 18.5269 18.7029 18.5359 18.7296 18.5626ZM18.7118 18.0811C18.7118 18.0989 18.7207 18.1079 18.7207 18.1079C18.7296 18.1079 18.7564 18.0722 18.7118 18.0811ZM18.8723 18.7142C18.8901 18.6785 18.8634 18.6696 18.8455 18.6696C18.8277 18.6696 18.8099 18.6874 18.8723 18.7142ZM18.801 18.3129C18.8188 18.3308 18.8366 18.3397 18.8545 18.3397C18.8723 18.3397 18.8901 18.3308 18.908 18.3219C18.8901 18.304 18.8723 18.2951 18.8545 18.2951C18.8366 18.2951 18.8188 18.2951 18.801 18.3129ZM18.5067 15.5666C18.4978 15.5577 18.4889 15.5577 18.471 15.5577C18.4532 15.5577 18.4354 15.5755 18.4086 15.6112C18.4354 15.629 18.4532 15.6469 18.471 15.6469C18.4889 15.6469 18.5067 15.629 18.5156 15.6112L18.5067 15.5666ZM18.5424 16.2889L18.5691 16.2621C18.5602 16.2532 18.5156 16.2621 18.5424 16.2889ZM18.5335 17.1003L18.5602 17.127C18.5691 17.1181 18.5602 17.0735 18.5335 17.1003ZM18.7296 17.3589L18.7564 17.3321C18.7475 17.3232 18.7029 17.3321 18.7296 17.3589ZM18.7118 16.9219C18.7118 16.9398 18.7207 16.9487 18.7207 16.9487C18.7296 16.9487 18.7564 16.913 18.7118 16.9219ZM17.2941 13.284L17.41 13.1324C17.4011 13.1056 17.3832 13.0967 17.3654 13.0967C17.303 13.0967 17.2406 13.2216 17.2941 13.284ZM17.5081 14.5323C17.4546 14.5501 17.4456 14.5858 17.4813 14.6482C17.4991 14.6125 17.5081 14.5769 17.5081 14.5323ZM17.5972 13.2216C17.5883 13.2037 17.5705 13.1948 17.5526 13.1948C17.5348 13.1948 17.517 13.2037 17.517 13.2126C17.5259 13.2216 17.5348 13.2305 17.5616 13.2305C17.5705 13.2305 17.5794 13.2305 17.5972 13.2216ZM17.5972 13.3642C17.5883 13.3464 17.5705 13.3375 17.5526 13.3375C17.5348 13.3375 17.517 13.3464 17.517 13.3553C17.5259 13.3642 17.5348 13.3642 17.5616 13.3642C17.5705 13.3642 17.5794 13.3642 17.5972 13.3642ZM18.3105 15.0138C18.4086 14.9781 18.3997 14.9425 18.2927 14.9068C18.2214 14.9335 18.2303 14.9692 18.3105 15.0138ZM17.6329 12.9273C17.6151 12.9184 17.5972 12.9095 17.5794 12.9095C17.5437 12.9095 17.5081 12.9273 17.4813 12.963C17.5081 12.9897 17.5259 12.9986 17.5526 12.9986C17.5794 12.9986 17.6151 12.9719 17.6329 12.9273ZM17.8291 13.4891C17.7845 13.4891 17.6418 13.5158 17.7399 13.5604C17.7934 13.5604 17.8291 13.5515 17.8291 13.4891ZM17.8023 12.963C17.7756 12.9897 17.8201 12.9986 17.8023 12.963V12.963ZM17.8201 14.2737C17.7845 14.2916 17.7934 14.247 17.8201 14.2737V14.2737ZM17.9896 14.5412C18.0252 14.5055 18.0252 14.4788 17.9896 14.4431C17.9628 14.4699 17.9628 14.5055 17.9896 14.5412ZM18.0252 15.5755C18.0341 15.5845 18.0341 15.5845 18.0431 15.5845C18.0698 15.5845 18.0698 15.531 18.0431 15.531C18.0431 15.531 18.0341 15.531 18.0252 15.5755ZM18.0609 14.8444C18.0787 14.88 18.0965 14.9068 18.1233 14.9068C18.1411 14.9068 18.159 14.889 18.1768 14.8622C18.159 14.8265 18.1322 14.8176 18.1144 14.8176C18.0965 14.8176 18.0787 14.8265 18.0609 14.8444ZM18.1857 16.2443C18.1679 16.2086 18.2125 16.2175 18.1857 16.2443V16.2443ZM17.5616 12.4458C17.6061 12.4191 17.5794 12.4012 17.5437 12.4012C17.5348 12.4012 17.517 12.4012 17.5616 12.4458ZM17.8023 12.4369L17.8291 12.4101C17.8201 12.4012 17.7756 12.4101 17.8023 12.4369ZM17.8201 14.1935L17.8023 14.1667C17.7845 14.1756 17.7934 14.2202 17.8201 14.1935ZM17.838 13.1235C17.8647 13.1502 17.8736 13.1056 17.838 13.1235V13.1235ZM18.0074 13.0432C18.0163 12.9897 18.0074 12.9719 17.9985 12.9719C17.9806 12.9719 17.9628 13.0165 18.0074 13.0432ZM18.0431 14.0151C18.0252 13.9795 18.0698 13.9884 18.0431 14.0151V14.0151ZM18.1144 13.3286L18.1055 13.284C17.9985 13.2929 17.9896 13.3107 18.1144 13.3286ZM19.3449 18.8836V18.9193C19.3538 18.9371 19.3627 18.9549 19.3449 18.9906L19.3181 18.9995C19.2914 18.9995 19.2735 18.9995 19.2557 18.9906H18.9704C18.9169 18.9995 18.8634 19.0084 18.8099 19.0084C18.7385 19.0084 18.6672 18.9995 18.5959 18.9906L18.4175 18.9995C18.3908 19.0084 18.364 19.0173 18.3373 19.0173C18.3195 19.0173 18.3016 19.0084 18.2749 18.9638C18.2838 18.9282 18.2838 18.9014 18.2838 18.8301C18.3284 18.8033 18.373 18.7855 18.4175 18.7588H18.4086C18.3908 18.7053 18.3819 18.6518 18.3819 18.5983C18.3819 18.5448 18.3819 18.4734 18.364 18.3219V18.3129C18.3284 18.197 18.3016 18.0722 18.2927 17.9474C18.2927 17.9206 18.2927 17.8939 18.2838 17.8671L18.266 17.7423C18.2125 17.5729 18.1768 17.3856 18.159 17.2073C18.15 17.1092 18.1411 17.0468 18.1144 17.0022C18.1055 16.9487 18.0965 16.8952 18.0876 16.806C18.0431 16.7793 17.9717 16.7436 17.8736 16.6901C17.8201 16.6544 17.7488 16.6188 17.6686 16.5831C17.5883 16.5564 17.5081 16.5296 17.4456 16.494L17.4189 16.4761C17.3921 16.4672 17.3743 16.4583 17.3476 16.4494C17.3386 16.494 17.3297 16.5564 17.3119 16.6188C17.2851 16.6901 17.2762 16.7704 17.2762 16.8774C17.2851 16.9398 17.2673 17.0111 17.2406 17.0824C17.2227 17.127 17.2138 17.1627 17.2138 17.1894C17.2138 17.2519 17.2138 17.3054 17.196 17.3678C17.196 17.4124 17.1781 17.4569 17.1692 17.5015L17.1603 17.5372C17.1603 17.5907 17.1425 17.6709 17.1157 17.7869C17.0979 17.8404 17.089 17.8939 17.0801 17.9384C17.0711 17.9919 17.0622 18.0454 17.0711 18.0989C17.0711 18.1524 17.0622 18.2059 17.0355 18.2594C17.0355 18.2862 17.0266 18.3219 17.0176 18.3754L16.9998 18.4824C16.982 18.5804 16.9641 18.6785 16.9463 18.7677L17.0622 18.8212C17.089 18.8301 17.0979 18.8658 17.0801 18.8836L17.0533 19.0084C17.0266 19.0084 16.9998 19.0084 16.982 18.9995C16.9641 18.9995 16.9374 18.9995 16.9106 18.9906H16.126C16.1081 19.0084 16.0814 19.0084 16.0546 19.0084C16.0457 19.0084 16.0368 19.0084 16.0279 19.0084C16.0101 19.0084 16.0011 18.9728 16.0101 18.9549C16.0101 18.946 16.0011 18.9014 16.0101 18.839C16.0279 18.8123 16.0546 18.8123 16.0814 18.8123L16.1706 18.7588L16.2062 18.5091C16.2151 18.3397 16.233 18.1614 16.2776 18.0009L16.2865 17.9652C16.2865 17.8939 16.3043 17.8136 16.3311 17.7334C16.3578 17.6442 16.3667 17.5729 16.3667 17.5015C16.3846 17.3589 16.3935 17.2697 16.4113 17.2251L16.4202 17.1538C16.4291 17.0914 16.4381 17.0468 16.447 17.02C16.4559 16.9665 16.4737 16.8952 16.4916 16.806C16.5094 16.7169 16.5272 16.6544 16.5361 16.6009L16.5896 16.2621C16.6075 16.1819 16.6164 16.1016 16.6075 16.0303C16.6075 15.9768 16.6164 15.9233 16.6342 15.8698C16.661 15.8252 16.6788 15.7539 16.6877 15.6558C16.7056 15.531 16.7145 15.4418 16.7234 15.3794L16.8036 14.9425C16.8126 14.889 16.8215 14.8533 16.8215 14.8355C16.8661 14.675 16.9017 14.5145 16.9017 14.354C16.9017 14.2916 16.9106 14.2381 16.9285 14.1935C16.9463 14.1489 16.9641 14.0776 16.9731 13.9795C16.9909 13.8368 17.0087 13.6852 17.0444 13.5426C17.0711 13.4445 17.089 13.3464 17.0979 13.2483C17.1068 13.1413 17.1157 13.0432 17.1425 12.9451C17.1603 12.8916 17.1692 12.8471 17.1692 12.8025C17.1781 12.7133 17.1781 12.642 17.1781 12.5885C17.1781 12.5439 17.1871 12.4993 17.196 12.4547C17.1871 12.4012 17.1692 12.3566 17.1603 12.3031V12.2675C17.1514 12.2318 17.1514 12.1872 17.1603 12.1516H17.1871C17.2406 12.1427 17.3386 12.1427 17.4011 12.1427C17.4189 12.1427 17.4278 12.1427 17.4367 12.1427C17.4456 12.1427 17.4546 12.1427 17.4635 12.1427C17.4902 12.1427 17.517 12.1427 17.5437 12.1337C17.5883 12.1248 17.624 12.1248 17.6596 12.1248C17.6953 12.1248 17.731 12.1248 17.7666 12.1337C17.8201 12.1427 17.9539 12.1427 18.0609 12.1516H18.2125V12.3031L18.1857 12.3121C18.1679 12.3745 18.15 12.4369 18.1233 12.4904L18.1946 12.9273C18.2214 12.9808 18.2303 13.0343 18.2214 13.1056L18.2838 13.4445C18.3016 13.5336 18.3195 13.605 18.3284 13.6585V13.6852C18.364 13.8011 18.3819 13.9171 18.3908 14.0419L18.4086 14.1043C18.4354 14.1756 18.4532 14.247 18.4443 14.3094C18.4443 14.3451 18.4443 14.3807 18.4532 14.4075L18.48 14.568C18.5067 14.6928 18.5424 14.8176 18.5424 14.9425L18.5691 15.0851C18.5691 15.103 18.578 15.1297 18.587 15.1475C18.6315 15.2189 18.6405 15.2902 18.6315 15.3705C18.6315 15.4329 18.6405 15.4953 18.6583 15.5488L18.6672 15.6201C18.6761 15.6736 18.694 15.745 18.7118 15.843C18.7296 15.95 18.7475 16.0214 18.7564 16.0749L18.792 16.28C18.801 16.2978 18.8099 16.3424 18.8188 16.387C18.8277 16.4315 18.8366 16.4672 18.8455 16.494C18.8545 16.5564 18.8545 16.6099 18.8545 16.6723C18.8545 16.7347 18.8634 16.7882 18.8901 16.8417C18.9258 16.9754 18.9615 17.1092 18.9615 17.2429C18.9615 17.3143 18.9971 17.5461 19.0328 17.6174C19.0506 17.6709 19.0595 17.7244 19.0595 17.7869C19.0506 17.8404 19.0595 17.9117 19.0952 17.983L19.122 18.0365C19.1487 18.1079 19.1576 18.1703 19.1487 18.2149C19.1398 18.2862 19.1487 18.3664 19.1755 18.4467C19.2022 18.5002 19.2111 18.5983 19.2111 18.7766C19.2379 18.7855 19.2735 18.8033 19.327 18.8212C19.3538 18.8301 19.3627 18.8658 19.3449 18.8836Z" fill="black"/>
<path d="M11.5734 18.2059L11.6002 18.1792C11.5913 18.1703 11.5467 18.1792 11.5734 18.2059ZM11.8588 17.8939C11.7785 17.8939 11.7696 17.9117 11.8499 17.9474C11.939 17.9295 11.939 17.9117 11.8588 17.8939ZM11.4843 15.736C11.5199 15.7004 11.5199 15.6736 11.4843 15.6469C11.4843 15.6825 11.4843 15.7093 11.4843 15.736ZM11.5289 17.6977L11.5467 17.6709C11.5467 17.662 11.5021 17.6709 11.5289 17.6977ZM11.6359 16.9576C11.5378 16.9754 11.5289 16.9933 11.618 17.0111C11.7161 17.0022 11.725 16.9844 11.6359 16.9576ZM11.5824 17.3856C11.6002 17.4124 11.618 17.4302 11.6359 17.4302C11.6626 17.4302 11.6804 17.4124 11.6983 17.3678C11.6804 17.3499 11.6626 17.341 11.6448 17.341C11.618 17.341 11.6002 17.3589 11.5824 17.3856ZM11.6002 16.6723C11.618 16.6812 11.6359 16.6901 11.6537 16.6901C11.6626 16.6901 11.6804 16.6812 11.6983 16.6723C11.6894 16.6544 11.6715 16.6455 11.6537 16.6455C11.6359 16.6455 11.618 16.6544 11.6002 16.6723ZM11.7874 18.3397C11.7964 18.4199 11.8142 18.4378 11.8409 18.4378C11.8944 18.4378 11.9569 18.3397 11.9569 18.3397C11.9212 18.2773 11.8855 18.2505 11.8499 18.2505C11.8231 18.2505 11.8053 18.2773 11.7874 18.3397ZM11.9301 17.2786C11.9212 17.2251 11.9123 17.1984 11.9034 17.1984C11.8944 17.1984 11.8855 17.2162 11.8766 17.2519C11.8855 17.3054 11.8944 17.3321 11.9034 17.3321C11.9123 17.3321 11.9212 17.3143 11.9301 17.2786ZM11.8053 15.1297C11.8053 15.1297 11.7072 15.0762 11.6448 15.0762C11.618 15.0762 11.6002 15.0851 11.6091 15.1297C11.6091 15.1565 11.6359 15.1654 11.6626 15.1654C11.7161 15.1654 11.7874 15.1386 11.8053 15.1297ZM11.7339 16.3067L11.7072 16.28C11.6983 16.2889 11.7072 16.3335 11.7339 16.3067ZM11.9123 15.3972C11.8855 15.3615 11.939 15.3705 11.9123 15.3972V15.3972ZM11.8855 16.066C11.9034 16.1105 11.9301 16.1373 11.9479 16.1373C11.9569 16.1373 11.9658 16.1195 11.9836 16.0838C11.9658 16.057 11.9479 16.0481 11.9212 16.0481C11.9123 16.0481 11.9034 16.057 11.8855 16.066ZM13.8472 16.806C13.8828 16.7704 13.9185 16.7436 13.9542 16.7169C13.9185 16.699 13.8918 16.6901 13.865 16.6901C13.8204 16.6901 13.8026 16.7258 13.8472 16.806ZM13.8472 16.3691C13.9007 16.3424 13.8828 16.3245 13.865 16.3245C13.8472 16.3245 13.8204 16.3424 13.8472 16.3691ZM13.8561 17.5194C13.972 17.4748 13.972 17.4391 13.8293 17.4213L13.8561 17.5194ZM14.0344 15.9946C13.9898 16.0303 14.0166 16.0481 14.0523 16.0481C14.0612 16.0481 14.0701 16.0392 14.0344 15.9946ZM14.1236 17.2608C14.1058 17.2519 14.0879 17.2429 14.0701 17.2429C14.0344 17.2429 13.9988 17.2608 13.972 17.2964C13.9988 17.3232 14.0255 17.3321 14.0433 17.3321C14.079 17.3321 14.1058 17.3054 14.1236 17.2608ZM13.9809 17.6888C14.0166 17.7066 14.0433 17.7155 14.0701 17.7155C14.1058 17.7155 14.1236 17.6977 14.1325 17.6442C14.1236 17.6085 14.1058 17.5996 14.0879 17.5996C14.0433 17.5996 13.9898 17.662 13.9809 17.6888ZM14.1325 16.5385C14.0968 16.5296 14.0701 16.5207 14.0523 16.5207C13.9988 16.5207 13.9988 16.5564 14.0255 16.6455C14.0612 16.6099 14.0968 16.5742 14.1325 16.5385ZM14.0612 16.8863C14.1503 16.8684 14.1593 16.8506 14.079 16.8328C13.9809 16.8417 13.972 16.8595 14.0612 16.8863ZM14.2752 18.197C14.3019 18.2238 14.3108 18.1792 14.2752 18.197V18.197ZM11.4932 13.4266L11.5021 13.4623C11.511 13.4356 11.511 13.4088 11.4932 13.4266ZM11.5021 13.0343L11.4932 13.0967C11.511 13.07 11.511 13.0521 11.5021 13.0343ZM11.511 14.5234C11.5199 14.5412 11.5289 14.5501 11.5378 14.5501C11.5556 14.5501 11.5556 14.4966 11.5199 14.4966C11.5199 14.4966 11.511 14.5055 11.511 14.5234ZM14.0879 14.6215C14.0968 14.6482 14.1147 14.6571 14.1236 14.6571C14.1414 14.6571 14.1593 14.6393 14.186 14.5947C14.1682 14.5858 14.1593 14.5769 14.1414 14.5769C14.1236 14.5769 14.1058 14.5858 14.0879 14.6215ZM14.1414 15.3705L14.1682 15.3972C14.1771 15.3883 14.1682 15.3437 14.1414 15.3705ZM11.4664 12.6598L11.4843 12.6866C11.511 12.6955 11.5199 12.6955 11.5378 12.6955C11.5645 12.6955 11.5824 12.6866 11.5913 12.6509C11.5378 12.6509 11.4932 12.6598 11.4664 12.6598ZM11.5556 12.5439C11.5645 12.5617 11.5734 12.5706 11.5824 12.5706C11.6002 12.5706 11.6091 12.5171 11.5734 12.5171C11.5645 12.5171 11.5556 12.5261 11.5556 12.5439ZM11.6983 12.9897C11.6894 12.9719 11.6715 12.963 11.6537 12.963C11.6359 12.963 11.618 12.9719 11.6002 12.9897C11.618 12.9986 11.6359 13.0076 11.6537 13.0076C11.6626 13.0076 11.6804 12.9986 11.6983 12.9897ZM11.6983 13.9616C11.7429 13.9616 11.7339 13.8992 11.7161 13.8992C11.7072 13.8992 11.6983 13.9081 11.6983 13.9616ZM11.6983 13.2305C11.7072 13.2305 11.725 13.2305 11.7339 13.2305C11.7607 13.2305 11.7696 13.2216 11.7696 13.2216C11.7696 13.2126 11.7607 13.2037 11.7429 13.2037C11.725 13.2037 11.7072 13.2037 11.6983 13.2305ZM11.7161 13.6496C11.7161 13.6139 11.7696 13.6496 11.7161 13.6496V13.6496ZM11.7874 14.2737C11.7696 14.2559 11.7518 14.2559 11.7429 14.2559C11.725 14.2559 11.7072 14.2648 11.6894 14.2826C11.6894 14.3183 11.7072 14.3361 11.7161 14.3361C11.7339 14.3361 11.7607 14.3183 11.7874 14.2737ZM11.7607 12.7311C11.7429 12.7757 11.725 12.8114 11.6983 12.856C11.7161 12.8649 11.725 12.8649 11.7429 12.8649C11.7964 12.8649 11.7964 12.7846 11.7607 12.7311ZM11.7785 13.6763L11.7518 13.6585C11.7429 13.6674 11.7518 13.6852 11.7607 13.6852C11.7696 13.6852 11.7785 13.6852 11.7785 13.6763ZM11.7874 14.3807C11.8053 14.3807 11.8142 14.3807 11.8231 14.3807C11.8499 14.3807 11.8677 14.3807 11.8677 14.3718C11.8677 14.3629 11.8499 14.354 11.832 14.354C11.8231 14.354 11.8053 14.3629 11.7874 14.3807ZM11.7785 12.4369L11.7518 12.4191C11.7429 12.4191 11.7518 12.4636 11.7785 12.4369ZM11.9747 13.712C11.9034 13.7387 11.832 13.7922 11.9836 13.8011C11.9747 13.7744 11.9747 13.7387 11.9747 13.712ZM11.9479 14.5769C11.8677 14.6125 11.8855 14.6304 11.9301 14.6304C11.9479 14.6304 11.9569 14.6215 11.9747 14.6215L11.9479 14.5769ZM11.9569 12.9986C11.939 12.963 11.9836 12.9719 11.9569 12.9986V12.9986ZM12.0104 12.642C12.0549 12.6152 12.046 12.5974 12.0193 12.5974C12.0014 12.5974 11.9747 12.6152 12.0104 12.642ZM12.2244 12.4636C12.2957 12.4369 12.3135 12.3923 12.2779 12.321C12.2244 12.4191 12.1263 12.4191 12.2244 12.4636ZM12.26 12.7401C12.2333 12.7668 12.2868 12.7757 12.26 12.7401V12.7401ZM12.4205 12.5617C12.4562 12.5885 12.4829 12.6063 12.5097 12.6331C12.5275 12.5885 12.5008 12.5171 12.4651 12.5171C12.4562 12.5171 12.4384 12.5261 12.4205 12.5617ZM12.5364 12.9719C12.6256 12.963 12.6345 12.9451 12.5454 12.9184C12.4651 12.9184 12.4651 12.9362 12.5364 12.9719ZM12.6523 12.6241L12.6256 12.5974C12.6167 12.6063 12.6256 12.6509 12.6523 12.6241ZM12.7772 13.1056C12.795 13.07 12.7683 13.0611 12.7504 13.0611C12.7326 13.0611 12.7148 13.0789 12.7772 13.1056ZM12.7683 12.7757C12.8663 12.7668 12.8753 12.749 12.7861 12.7222C12.688 12.7401 12.6791 12.7579 12.7683 12.7757ZM13.0001 12.9541L13.0268 12.9273C13.0179 12.9184 12.9733 12.9273 13.0001 12.9541ZM13.2498 12.7579L13.2319 12.7401C13.2141 12.7401 13.223 12.7846 13.2498 12.7579ZM13.4638 12.963C13.4905 12.9541 13.5083 12.9451 13.5262 12.9273C13.5083 12.9273 13.4816 12.9184 13.4638 12.9184C13.4192 12.9184 13.3835 12.9362 13.4638 12.963ZM13.4816 12.5528L13.5262 12.5171C13.5173 12.5082 13.5083 12.4993 13.4994 12.4993C13.4638 12.4993 13.437 12.5171 13.4816 12.5528ZM13.6421 12.8381L13.7134 12.7846C13.7313 12.7579 13.7402 12.7311 13.758 12.6955C13.7402 12.6955 13.7223 12.6955 13.7045 12.6955C13.6153 12.6955 13.6243 12.7579 13.6421 12.8381ZM13.8204 14.4699V14.4877C13.8293 14.5145 13.8472 14.5323 13.865 14.5323C13.8918 14.5323 13.9185 14.5055 13.9542 14.452C13.9542 14.4075 13.9363 14.3896 13.9185 14.3896C13.8918 14.3896 13.8561 14.4164 13.8204 14.4699ZM13.9096 15.5666C13.9363 15.5934 13.9453 15.5488 13.9096 15.5666V15.5666ZM13.758 12.4369L13.7313 12.4191C13.7223 12.4191 13.7313 12.4636 13.758 12.4369ZM13.8828 14.1667C13.8918 14.1311 13.8739 14.1132 13.8561 14.1132C13.8472 14.1132 13.8383 14.1221 13.8828 14.1667ZM13.8115 12.3566C13.7937 12.3299 13.7758 12.3299 13.7669 12.3299C13.7491 12.3299 13.7313 12.3388 13.7313 12.3477C13.7313 12.3477 13.7491 12.3566 13.7758 12.3566C13.7848 12.3566 13.7937 12.3566 13.8115 12.3566ZM13.9274 12.963L13.9453 12.9273C13.9363 12.9184 13.8918 12.9273 13.9274 12.963ZM13.9453 12.8738C13.9542 12.8916 13.9631 12.9006 13.972 12.9006C13.9988 12.9006 14.0077 12.856 13.9453 12.8738ZM14.1147 14.0597C14.0879 14.033 14.0701 14.0241 14.0523 14.0241C14.0255 14.0241 14.0077 14.033 13.9988 14.0686C14.0166 14.0954 14.0344 14.1132 14.0523 14.1132C14.0701 14.1132 14.0968 14.0954 14.1147 14.0597ZM14.1147 13.5515C14.0968 13.5158 14.1414 13.5247 14.1147 13.5515V13.5515ZM14.1414 12.7757C14.186 12.749 14.1682 12.6955 14.1503 12.7044C14.1414 12.7044 14.1325 12.7222 14.1414 12.7757ZM14.1682 13.8725C14.1414 13.8368 14.1949 13.8457 14.1682 13.8725V13.8725ZM14.1682 14.247C14.1414 14.2113 14.1949 14.2202 14.1682 14.247V14.247ZM14.0968 12.4547C14.1414 12.428 14.1236 12.3745 14.1058 12.3745C14.0968 12.3745 14.0879 12.4012 14.0968 12.4547ZM14.1771 13.4445C14.186 13.498 14.2128 13.5158 14.2484 13.5158C14.2573 13.5158 14.2663 13.5158 14.3108 13.4891V13.4712C14.293 13.4534 14.2573 13.4445 14.2217 13.4445C14.2038 13.4445 14.1949 13.4445 14.1771 13.4445ZM14.3198 15.2724C14.3198 15.2367 14.3287 15.21 14.3287 15.1921C14.2573 15.2189 14.2573 15.2545 14.3198 15.2724ZM14.2752 12.2942C14.2484 12.2942 14.2128 12.2942 14.186 12.2853C14.1949 12.3031 14.2128 12.321 14.2395 12.3388C14.2752 12.321 14.3019 12.3121 14.2752 12.2942ZM14.5783 18.8212C14.6051 18.8301 14.6229 18.8568 14.6229 18.8836C14.6318 18.9014 14.6318 18.9282 14.6318 18.9549C14.6318 18.9995 14.5873 19.0173 14.5605 19.0173C14.5338 19.0084 14.5159 19.0084 14.4892 19.0084C14.4357 19.0084 14.3733 19.0173 14.3198 19.0173C14.2752 19.0173 14.2306 19.0084 14.186 18.9995H13.7313C13.6778 19.0084 13.6243 19.0173 13.5797 19.0173C13.5262 19.0173 13.5083 18.9638 13.5262 18.8836C13.5262 18.8479 13.5618 18.8212 13.5975 18.8212L13.6688 18.732V18.6785C13.6688 18.5626 13.6688 18.4913 13.6599 18.4556V18.3754C13.6599 18.3308 13.6599 18.304 13.6688 18.2862C13.6688 18.2416 13.6778 18.1703 13.6778 18.0811C13.6778 18.0187 13.6778 17.9474 13.6688 17.8582C13.6688 17.8225 13.6688 17.7958 13.6778 17.7779V17.7423C13.6688 17.7066 13.6688 17.6799 13.6688 17.6442C13.6688 17.5907 13.6778 17.5283 13.6867 17.4659V17.4213C13.6867 17.3499 13.6778 17.2608 13.6599 17.0914C13.6599 17.0557 13.6599 17.0111 13.6688 16.9487C13.6688 16.7971 13.6778 16.6634 13.6867 16.5118V16.4137C13.6778 16.3424 13.6778 16.271 13.6778 16.1908C13.6778 16.1373 13.6778 16.0838 13.6778 16.0303C13.6778 16.0125 13.6778 15.843 13.6688 15.7717C13.6599 15.745 13.6599 15.7182 13.6688 15.6201V15.531C13.6688 15.4864 13.6778 15.4507 13.6688 15.4329C13.6688 15.4061 13.6688 15.3794 13.6688 15.3526C13.6688 15.308 13.6688 15.2545 13.6778 15.201C13.6778 15.1743 13.6778 15.1386 13.6778 15.1119C13.6778 15.0405 13.6778 14.987 13.6688 14.9335C13.6599 14.889 13.6599 14.8533 13.6688 14.8087C13.6688 14.7374 13.6688 14.666 13.6688 14.5947V14.4788C13.6688 14.4164 13.6688 14.3718 13.6778 14.354C13.6778 14.3094 13.6778 14.2826 13.6867 14.2559C13.6956 14.2024 13.6956 14.14 13.6867 14.0865C13.6778 14.0508 13.6688 14.0241 13.6688 14.0062C13.6688 13.926 13.6688 13.8636 13.6599 13.819C13.6599 13.7833 13.6599 13.7476 13.6688 13.7298C13.6688 13.6941 13.6688 13.6585 13.6688 13.5961C13.6688 13.5604 13.6688 13.5336 13.6688 13.5069C13.6778 13.4088 13.6867 13.3286 13.6867 13.284L13.651 13.0165C13.6153 13.0521 13.5618 13.0789 13.5083 13.0967C13.4816 13.1056 13.4459 13.1235 13.4013 13.1502L13.3122 13.2037C13.2765 13.2305 13.2408 13.2483 13.2052 13.2661C13.1338 13.3018 13.0714 13.3375 12.9912 13.3821C12.9555 13.4088 12.9198 13.4266 12.8753 13.4266C12.7861 13.4266 12.7148 13.3375 12.6613 13.2751C12.6078 13.2305 12.4116 13.1146 12.3403 13.0967C12.2868 13.0789 12.2333 13.0521 12.1887 13.0165C12.1709 12.9897 12.153 12.9719 12.1263 12.9719C12.1263 13.0343 12.1263 13.1056 12.1352 13.1948C12.1352 13.2305 12.1263 13.2572 12.1263 13.2751V13.3107C12.1263 13.3464 12.1352 13.3821 12.1352 13.4177C12.1352 13.4623 12.1263 13.5247 12.1174 13.5871V13.6317C12.1174 13.7031 12.1263 13.7922 12.1441 13.9616C12.1441 13.9973 12.1441 14.0419 12.1352 14.1132C12.1352 14.2559 12.1263 14.3985 12.1174 14.5412V14.6393C12.1263 14.7106 12.1263 14.782 12.1263 14.8622C12.1263 14.9157 12.1263 14.9692 12.1263 15.0316C12.1263 15.0405 12.1263 15.21 12.1352 15.2813C12.1441 15.308 12.1441 15.3437 12.1352 15.4329V15.522C12.1263 15.5666 12.1263 15.6023 12.1352 15.6201C12.1352 15.6469 12.1352 15.6736 12.1352 15.7004C12.1352 15.745 12.1352 15.7985 12.1263 15.852C12.1263 15.8787 12.1263 15.9144 12.1263 15.9411C12.1263 16.0125 12.1263 16.0749 12.1352 16.1284C12.1441 16.164 12.1441 16.2086 12.1352 16.2443C12.1352 16.28 12.1263 16.3245 12.1263 16.378C12.1263 16.4048 12.1263 16.4315 12.1352 16.4583V16.5831C12.1352 16.6188 12.1263 16.7614 12.1174 16.7971C12.1084 16.8506 12.1084 16.913 12.1174 16.9665C12.1263 17.0022 12.1352 17.0289 12.1352 17.0468C12.1352 17.127 12.1352 17.1894 12.1441 17.234C12.1441 17.2697 12.1441 17.3054 12.1352 17.3232C12.1352 17.3589 12.1352 17.4034 12.1352 17.4569C12.1352 17.4926 12.1352 17.5194 12.1352 17.5461C12.1263 17.6442 12.1174 17.7244 12.1174 17.769V18.0544C12.1263 18.1346 12.1352 18.1881 12.1352 18.2684C12.1352 18.4021 12.1352 18.4824 12.1263 18.518V18.6339C12.1263 18.6607 12.1263 18.6963 12.1263 18.7231C12.1441 18.7588 12.1798 18.7855 12.2689 18.8479C12.2689 18.8836 12.2868 18.9193 12.2244 19.0173C12.0728 19.0173 11.9301 19.0084 11.7874 18.9995H11.404C11.3505 19.0084 11.297 19.0173 11.2435 19.0173C11.2079 19.0263 11.1811 18.9906 11.1811 18.9638V18.8925C11.1811 18.8568 11.1989 18.8212 11.2435 18.8212C11.2881 18.8123 11.3238 18.7855 11.3416 18.7498C11.3416 18.732 11.3416 18.7053 11.3505 18.6339L11.3327 18.1168C11.3238 18.0811 11.3238 18.0454 11.3238 18.0187C11.3238 17.9563 11.3327 17.8849 11.3505 17.7334V17.4213C11.3416 17.3054 11.3327 17.1984 11.3327 17.0824C11.3327 17.0557 11.3327 17.0289 11.3327 16.9933C11.3327 16.9576 11.3238 16.9309 11.3238 16.913C11.3059 16.806 11.3059 16.7079 11.3238 16.6366C11.3505 16.592 11.3505 16.5385 11.3327 16.4672C11.3238 16.4494 11.3238 16.4048 11.3327 16.3424C11.3505 16.28 11.3505 16.2265 11.3505 16.1819C11.3327 16.0749 11.3238 16.0035 11.3238 15.8876C11.3327 15.8609 11.3327 15.7628 11.3327 15.5934C11.3505 15.5042 11.3327 15.424 11.3059 15.3615C11.297 15.2991 11.297 15.2456 11.3059 15.2189C11.3238 15.1743 11.3238 15.1297 11.3149 15.0762V14.9603C11.3327 14.8622 11.3505 14.7195 11.3505 14.6125V14.14L11.3238 13.8279C11.3238 13.7922 11.3327 13.7476 11.3505 13.6496L11.3327 13.4177C11.3059 13.3642 11.3059 13.3107 11.3238 13.2572C11.3416 13.2305 11.3505 13.2037 11.3505 13.177V12.9897L11.3149 12.7044C11.3149 12.6063 11.3149 12.5439 11.3059 12.4726C11.297 12.4547 11.297 12.428 11.3059 12.4012C11.2881 12.3745 11.2614 12.3656 11.2168 12.3566C11.1811 12.3477 11.1633 12.3121 11.1722 12.2853C11.1811 12.2407 11.1633 12.1783 11.2079 12.1516C11.2168 12.1427 11.2346 12.1337 11.2435 12.1337C11.2703 12.1337 11.2881 12.1427 11.3149 12.1516C11.3594 12.1516 11.404 12.1605 11.4575 12.1605C11.4754 12.1605 11.4932 12.1605 11.511 12.1605C11.5378 12.1516 11.5556 12.1516 11.5734 12.1516C11.5824 12.1516 11.5913 12.1516 11.6359 12.1516C11.6715 12.1516 11.7072 12.1516 11.7429 12.1605H12.0282C12.1084 12.1427 12.1798 12.1337 12.26 12.1248C12.3403 12.1248 12.3849 12.1694 12.4027 12.2229C12.4473 12.2496 12.5008 12.2853 12.5543 12.321C12.6345 12.3834 12.7237 12.428 12.8218 12.4636C12.8485 12.4815 12.8842 12.4993 12.9288 12.5171C13.0179 12.4547 13.1249 12.3923 13.2319 12.3477L13.2676 12.321C13.3211 12.2853 13.4013 12.2496 13.4816 12.214C13.5173 12.2051 13.544 12.1872 13.5975 12.1605C13.6421 12.1605 13.6867 12.1605 13.7313 12.1605H13.9185C13.9809 12.1516 14.0433 12.1427 14.1147 12.1427C14.2306 12.1427 14.3465 12.1605 14.4713 12.1605C14.507 12.1605 14.5427 12.1605 14.5783 12.1516C14.6051 12.1516 14.6318 12.1783 14.6318 12.214C14.6318 12.2764 14.6408 12.3121 14.5873 12.3477C14.5516 12.3745 14.507 12.3745 14.4535 12.4191L14.4624 12.9362C14.4803 12.9719 14.4803 13.0076 14.4803 13.0343C14.4803 13.0967 14.4713 13.177 14.4535 13.3196V13.6317C14.4624 13.7209 14.4713 13.8011 14.4713 13.8725C14.4713 13.9081 14.4713 13.9438 14.4624 13.9795C14.4624 13.9973 14.4713 14.0241 14.4713 14.0597C14.4713 14.0954 14.4803 14.1221 14.4803 14.14C14.4981 14.247 14.4981 14.345 14.4803 14.4164C14.4535 14.461 14.4535 14.5145 14.4624 14.5858C14.4803 14.6036 14.4803 14.6482 14.4624 14.7106C14.4535 14.773 14.4535 14.8265 14.4535 14.8711C14.4713 14.9781 14.4803 15.0495 14.4803 15.1654C14.4713 15.1921 14.4624 15.2902 14.4624 15.4596C14.4535 15.5488 14.4624 15.629 14.4981 15.6915C14.507 15.7539 14.507 15.8074 14.4981 15.8341C14.4803 15.8787 14.4803 15.9322 14.4892 15.9857V16.0927C14.4803 16.1373 14.4803 16.1997 14.4624 16.2889C14.4624 16.3513 14.4535 16.3959 14.4535 16.4404V16.913L14.4803 17.2251C14.4803 17.2608 14.4713 17.3054 14.4535 17.4034L14.4624 17.6442C14.4981 17.6888 14.4981 17.7423 14.4803 17.7958C14.4624 17.8225 14.4535 17.8493 14.4535 17.876V18.0633L14.4892 18.3486C14.4892 18.4467 14.4892 18.518 14.4981 18.5626C14.4981 18.6072 14.4803 18.6696 14.4892 18.7855L14.5783 18.8212Z" fill="black"/>
<path d="M8.98836 17.1449C9.04186 17.1181 9.05077 17.0824 8.98836 17.1449V17.1449ZM9.07752 18.5448L9.05077 18.518C9.04186 18.5269 9.05077 18.5715 9.07752 18.5448ZM9.17561 18.09C9.16669 18.0722 9.14886 18.0633 9.13102 18.0633C9.11319 18.0633 9.09536 18.0722 9.10427 18.0811C9.10427 18.09 9.11319 18.0989 9.13994 18.0989C9.14886 18.0989 9.15777 18.09 9.17561 18.09ZM9.13994 18.2327L9.09536 18.2773C9.10427 18.2773 9.11319 18.2862 9.12211 18.2862C9.15777 18.2862 9.18452 18.2684 9.13994 18.2327ZM9.19344 18.7053C9.16669 18.732 9.21127 18.7409 9.19344 18.7053V18.7053ZM9.43419 18.1435C9.41636 18.1079 9.46094 18.1168 9.43419 18.1435V18.1435ZM9.00619 15.5845L9.01511 15.6112C9.05969 15.5755 9.02402 15.5755 9.00619 15.5845ZM9.05969 16.2978L9.07752 16.28C9.07752 16.271 9.03294 16.271 9.05969 16.2978ZM9.04186 15.5488C9.04186 15.5666 9.04186 15.5755 9.05077 15.5755C9.05969 15.5755 9.07752 15.5399 9.04186 15.5488ZM9.19344 16.1284C9.16669 16.1551 9.21127 16.164 9.19344 16.1284V16.1284ZM9.23802 16.806L9.26477 16.7793C9.25586 16.7704 9.21127 16.7793 9.23802 16.806ZM9.22019 17.6085C9.22911 17.662 9.23802 17.6888 9.24694 17.6888C9.25586 17.6888 9.26477 17.6709 9.26477 17.6264C9.26477 17.5729 9.25586 17.5461 9.24694 17.5461C9.23802 17.5461 9.22911 17.5729 9.22019 17.6085ZM9.22019 17.9563C9.23802 17.983 9.24694 17.9919 9.25586 17.9919C9.27369 17.9919 9.27369 17.9384 9.23802 17.9384C9.22911 17.9384 9.22019 17.9384 9.22019 17.9563ZM9.26477 16.066L9.23802 16.0392C9.22911 16.0392 9.23802 16.0927 9.26477 16.066ZM9.28261 16.5385C9.38069 16.5296 9.38961 16.5118 9.30044 16.485C9.20236 16.5029 9.19344 16.5207 9.28261 16.5385ZM9.37177 17.6709C9.39852 17.6977 9.40744 17.6531 9.37177 17.6709V17.6709ZM9.46094 18.6072C9.52335 18.6072 9.54119 18.5894 9.54119 18.5448C9.53227 18.518 9.52335 18.4913 9.51444 18.4645C9.39852 18.5091 9.38069 18.5537 9.46094 18.6072ZM9.05969 14.461L9.07752 14.4431C9.07752 14.4253 9.03294 14.4342 9.05969 14.461ZM9.43419 16.0303C9.41636 15.9946 9.46094 16.0035 9.43419 16.0303V16.0303ZM9.50552 16.6366C9.46094 16.6455 9.37177 16.6901 9.45202 16.7169C9.46985 16.7258 9.4966 16.7169 9.51444 16.699C9.51444 16.6812 9.50552 16.6544 9.50552 16.6366ZM9.4966 17.6442C9.43419 17.6531 9.46985 17.6353 9.4966 17.6442V17.6442ZM9.48769 16.9487C9.4431 16.9933 9.4431 17.0289 9.50552 17.0646C9.50552 17.0289 9.50552 16.9933 9.48769 16.9487ZM9.07752 13.9438L9.05077 13.926C9.04186 13.926 9.05077 13.9706 9.07752 13.9438ZM9.05077 14.345L9.06861 14.3718C9.07752 14.3718 9.07752 14.3183 9.05077 14.345ZM9.14886 13.9884C9.11319 14.0241 9.07752 14.0508 9.04186 14.0776C9.06861 14.0954 9.10427 14.0954 9.12211 14.0954C9.16669 14.0954 9.18452 14.0686 9.14886 13.9884ZM9.13994 13.7566C9.19344 13.7031 9.19344 13.6674 9.13102 13.6406C9.06861 13.6852 9.07752 13.7209 9.13994 13.7566ZM9.12211 13.2305C9.06861 13.2661 9.07752 13.3018 9.13994 13.3464C9.19344 13.2929 9.18452 13.2572 9.12211 13.2305ZM9.17561 12.9541C9.17561 12.9184 9.15777 12.9095 9.13994 12.9095C9.12211 12.9095 9.10427 12.9184 9.10427 12.9273C9.10427 12.9451 9.12211 12.9541 9.17561 12.9541ZM9.20236 14.1846C9.17561 14.1578 9.15777 14.1489 9.13994 14.1489C9.11319 14.1489 9.10427 14.1667 9.08644 14.1935C9.10427 14.2202 9.12211 14.2381 9.13994 14.2381C9.16669 14.2381 9.18452 14.2202 9.20236 14.1846ZM9.19344 12.4904L9.22019 12.4636C9.21127 12.4547 9.16669 12.4636 9.19344 12.4904ZM9.22019 12.9808L9.18452 12.963C9.17561 12.963 9.18452 12.9897 9.20236 12.9897C9.20236 12.9897 9.21127 12.9897 9.22019 12.9808ZM9.17561 12.8827C9.17561 12.9006 9.18452 12.9095 9.18452 12.9095C9.20236 12.9095 9.22019 12.8738 9.17561 12.8827ZM9.26477 14.1311L9.23802 14.1043C9.22911 14.1132 9.23802 14.1578 9.26477 14.1311ZM9.30936 14.88C9.25586 14.9246 9.26477 14.9603 9.32719 14.996C9.38069 14.9514 9.37177 14.9157 9.30936 14.88ZM9.36286 14.5947C9.34502 14.5769 9.32719 14.568 9.30936 14.568C9.30044 14.568 9.28261 14.5769 9.28261 14.5858C9.28261 14.5947 9.29152 14.6036 9.31827 14.6036C9.33611 14.6036 9.34502 14.6036 9.36286 14.5947ZM9.31827 12.7757L9.35394 12.7311C9.34502 12.7311 9.33611 12.7222 9.32719 12.7222C9.30044 12.7222 9.25586 12.7401 9.31827 12.7757ZM9.30936 14.2381C9.35394 14.2202 9.34502 14.2024 9.31827 14.2024C9.30044 14.2024 9.27369 14.2113 9.30936 14.2381ZM9.34502 15.7628C9.41635 15.736 9.41636 15.7182 9.33611 15.7093C9.25586 15.736 9.25586 15.7539 9.34502 15.7628ZM9.36286 12.3121C9.25586 12.321 9.24694 12.3388 9.33611 12.3656C9.42527 12.3477 9.43419 12.3299 9.36286 12.3121ZM9.42527 13.8546C9.40744 13.8279 9.35394 13.7655 9.31827 13.7655C9.30044 13.7655 9.28261 13.7833 9.27369 13.819C9.28261 13.8636 9.30044 13.8903 9.33611 13.8903C9.35394 13.8903 9.38961 13.8725 9.42527 13.8546ZM9.35394 12.6776C9.36286 12.7044 9.38069 12.7044 9.38961 12.7044C9.40744 12.7044 9.41636 12.6598 9.35394 12.6776ZM9.41636 12.2853H9.40744C9.40744 12.3031 9.40744 12.3121 9.41636 12.3121C9.42527 12.3121 9.43419 12.2942 9.41636 12.2853ZM9.72844 18.7766C9.8176 18.839 9.79977 18.8568 9.79085 18.9638C9.79085 18.9995 9.75519 19.0263 9.71952 19.0173C9.64819 19.0084 9.56794 18.9906 9.4966 18.9817H9.38961C9.32719 18.9906 9.26477 19.0173 9.19344 19.0173C9.13102 19.0173 9.07752 18.9995 9.01511 18.9906C8.92594 18.9906 8.83678 18.9995 8.74761 19.0084C8.71194 19.0084 8.68519 18.9638 8.69411 18.9282L8.70303 18.8568C8.71194 18.8212 8.72978 18.8033 8.76544 18.7944C8.79219 18.7944 8.81894 18.7766 8.85461 18.7409C8.84569 18.6339 8.84569 18.5448 8.85461 18.4913C8.87244 18.4021 8.86353 18.3308 8.84569 18.2594C8.81894 18.2149 8.81894 18.1524 8.83678 18.0811L8.85461 18.0187C8.88136 17.9384 8.88136 17.876 8.85461 17.8136C8.84569 17.7601 8.84569 17.7066 8.85461 17.6442C8.86353 17.6174 8.87244 17.5818 8.87244 17.5194C8.87244 17.4034 8.86353 17.3232 8.85461 17.2697C8.84569 17.2162 8.84569 17.1538 8.84569 17.0914C8.84569 17.02 8.84569 16.9398 8.86353 16.8595C8.87244 16.7971 8.87244 16.7436 8.86353 16.6812C8.84569 16.6277 8.84569 16.5653 8.84569 16.5118C8.84569 16.485 8.84569 16.4494 8.84569 16.3959C8.85461 16.3513 8.85461 16.3067 8.85461 16.2889V16.0838C8.85461 16.0303 8.86353 15.95 8.86353 15.843C8.86353 15.745 8.86353 15.6647 8.86353 15.6201V15.5488C8.87244 15.4864 8.87244 15.424 8.85461 15.3615C8.82786 15.2813 8.82786 15.21 8.85461 15.1386C8.88136 15.0673 8.88136 14.987 8.87244 14.9157C8.86353 14.8622 8.85461 14.7998 8.85461 14.7285C8.85461 14.675 8.86353 14.6125 8.86353 14.5412C8.87244 14.4699 8.87244 14.3807 8.85461 14.2826C8.83678 14.2202 8.83678 14.1489 8.85461 14.0686C8.86353 14.033 8.87244 13.9884 8.86353 13.9616C8.85461 13.9081 8.84569 13.8457 8.84569 13.7833C8.84569 13.7387 8.85461 13.6941 8.85461 13.6406V13.6139C8.85461 13.5604 8.85461 13.4712 8.86353 13.3553C8.87244 13.3018 8.87244 13.2483 8.87244 13.2037C8.87244 13.1413 8.87244 13.0878 8.85461 13.0432C8.84569 12.9897 8.84569 12.9273 8.85461 12.8738C8.86353 12.8471 8.86353 12.8114 8.86353 12.7579V12.6509C8.86353 12.6063 8.86353 12.5706 8.86353 12.5261C8.86353 12.4904 8.86353 12.4458 8.83678 12.3745C8.80111 12.3566 8.74761 12.3566 8.72978 12.321C8.69411 12.2853 8.68519 12.2318 8.74761 12.1427C8.75653 12.1337 8.77436 12.1337 8.79219 12.1337C8.84569 12.1337 8.89919 12.1516 8.95269 12.1605H9.12211C9.22019 12.1427 9.30044 12.1337 9.39852 12.1337C9.42527 12.1337 9.45202 12.1337 9.48769 12.1427C9.48769 12.1427 9.4966 12.1427 9.50552 12.1427C9.55902 12.1427 9.63035 12.1248 9.68385 12.1248C9.72844 12.1248 9.7641 12.1337 9.78194 12.1605C9.79085 12.1872 9.79977 12.214 9.79085 12.2764C9.79977 12.3299 9.75519 12.3566 9.70169 12.3477L9.6571 12.3745V12.4993C9.66602 12.6687 9.67494 12.8381 9.67494 13.0076V13.0432C9.67494 13.1146 9.67494 13.1948 9.6571 13.284C9.64819 13.3642 9.6571 13.4445 9.66602 13.5158C9.67494 13.6585 9.67494 13.7476 9.67494 13.7922V13.8636C9.67494 13.9795 9.66602 14.1043 9.6571 14.2202C9.6571 14.3094 9.64819 14.3807 9.64819 14.4342V14.773C9.64819 14.8622 9.64819 14.9335 9.66602 15.0049C9.68385 15.0584 9.68385 15.1208 9.66602 15.1743C9.6571 15.2189 9.64819 15.2902 9.64819 15.3883C9.6571 15.5131 9.66602 15.6112 9.66602 15.6736V16.1195C9.66602 16.173 9.6571 16.2086 9.6571 16.2265C9.64819 16.3067 9.63927 16.387 9.63927 16.4583C9.63927 16.5474 9.64819 16.6277 9.66602 16.7079C9.66602 16.7704 9.66602 16.8239 9.66602 16.8774C9.64819 16.9219 9.64819 16.9933 9.6571 17.0914C9.6571 17.2429 9.6571 17.3856 9.6571 17.5372C9.64819 17.5907 9.64819 17.6442 9.64819 17.6977C9.64819 17.7423 9.64819 17.7958 9.6571 17.8404C9.6571 17.9028 9.6571 17.9652 9.6571 18.0187C9.6571 18.0722 9.6571 18.1168 9.6571 18.1524C9.64819 18.197 9.64819 18.2416 9.6571 18.2862C9.66602 18.3843 9.67494 18.4556 9.68385 18.5002C9.69277 18.5537 9.69277 18.6161 9.68385 18.6696L9.6571 18.732C9.68385 18.7498 9.71952 18.7677 9.72844 18.7766Z" fill="black"/>
<path d="M4.33458 18.2327V18.3129C4.36133 18.3218 4.38808 18.304 4.40592 18.2594C4.38808 18.2327 4.37025 18.2238 4.35242 18.2238C4.35242 18.2238 4.3435 18.2238 4.33458 18.2327ZM4.31675 17.8939L4.32567 17.9028C4.42375 17.8939 4.43267 17.876 4.31675 17.8939ZM4.33458 17.5461V17.5729C4.3435 17.5818 4.35242 17.5818 4.36133 17.5818C4.37917 17.5818 4.397 17.5729 4.41483 17.5639C4.397 17.5461 4.37917 17.5372 4.36133 17.5372C4.35242 17.5372 4.3435 17.5372 4.33458 17.5461ZM4.5575 18.8301C4.64666 18.8123 4.65558 18.7944 4.56641 18.7766C4.48617 18.7766 4.48617 18.7944 4.5575 18.8301ZM4.59316 18.1435C4.59316 18.197 4.60208 18.2238 4.611 18.2238C4.61991 18.2238 4.62883 18.2059 4.64666 18.1613C4.63775 18.1078 4.61991 18.0811 4.611 18.0811C4.611 18.0811 4.60208 18.1078 4.59316 18.1435ZM5.02116 18.7766C4.99441 18.8033 5.03899 18.8123 5.02116 18.7766V18.7766ZM5.01224 18.518L5.03008 18.5358C5.04791 18.5358 5.03899 18.4913 5.01224 18.518ZM5.09249 18.411L5.12816 18.3753C5.12816 18.3664 5.11033 18.3575 5.10141 18.3575C5.07466 18.3575 5.03899 18.3753 5.09249 18.411ZM5.22624 18.8033L5.19949 18.7766C5.19058 18.7855 5.19949 18.8301 5.22624 18.8033ZM5.57399 18.8123L5.59182 18.7855C5.59182 18.7766 5.54724 18.7855 5.57399 18.8123ZM5.70774 18.6428C5.68099 18.6696 5.72557 18.6785 5.70774 18.6428V18.6428ZM5.77907 18.5715L5.75232 18.5537C5.74341 18.5537 5.75232 18.5983 5.77907 18.5715ZM5.94849 18.5358C5.93065 18.5002 5.97524 18.5091 5.94849 18.5358V18.5358ZM6.09115 18.8123C6.07332 18.7766 6.1179 18.7855 6.09115 18.8123V18.8123ZM6.29623 18.6607C6.34973 18.6072 6.34082 18.5715 6.2784 18.5448C6.2249 18.5804 6.23382 18.625 6.29623 18.6607ZM6.56373 18.4021C6.61723 18.3843 6.64398 18.3664 6.60832 18.3486C6.56373 18.3486 6.52807 18.3486 6.48348 18.3575C6.4924 18.3753 6.51915 18.3843 6.56373 18.4021ZM6.68856 18.5715C6.72423 18.5893 6.75098 18.6072 6.77773 18.6072C6.8134 18.6072 6.83123 18.5804 6.84015 18.5358C6.83123 18.5002 6.8134 18.4823 6.79556 18.4823C6.75098 18.4823 6.69748 18.5537 6.68856 18.5715ZM7.06306 18.4199C7.0274 18.4378 7.03631 18.3932 7.06306 18.4199V18.4199ZM4.31675 16.0214C4.31675 16.0481 4.3435 16.0659 4.37025 16.0659C4.42375 16.0659 4.49508 16.0303 4.51292 16.0214C4.51292 16.0303 4.41483 15.9679 4.36133 15.9679C4.33458 15.9679 4.31675 15.9857 4.31675 16.0214ZM4.44158 17.1984L4.42375 17.1716C4.41483 17.1805 4.41483 17.2251 4.44158 17.1984ZM4.59316 16.9487C4.61991 17.0022 4.63775 17.0289 4.65558 17.0289C4.6645 17.0289 4.68233 17.0111 4.69125 16.9754C4.67341 16.9487 4.65558 16.9398 4.63775 16.9398C4.61991 16.9398 4.611 16.9398 4.59316 16.9487ZM4.80716 17.3856C4.78041 17.3589 4.83391 17.3589 4.80716 17.3856V17.3856ZM4.80716 18.4021C4.78041 18.3664 4.83391 18.3753 4.80716 18.4021V18.4021ZM4.41483 13.8903C4.397 13.8725 4.37917 13.8635 4.36133 13.8635C4.35242 13.8635 4.33458 13.8725 4.31675 13.8814C4.32567 13.8992 4.3435 13.9081 4.36133 13.9081C4.37917 13.9081 4.397 13.8992 4.41483 13.8903ZM4.40592 14.8622C4.45942 14.8533 4.4505 14.7909 4.43267 14.7909C4.42375 14.7909 4.41483 14.8087 4.40592 14.8622ZM4.40592 14.131C4.42375 14.131 4.43267 14.131 4.44158 14.131C4.47725 14.131 4.48617 14.1221 4.48617 14.1132C4.48617 14.1043 4.46833 14.0954 4.4505 14.0954C4.44158 14.0954 4.42375 14.1043 4.40592 14.131ZM4.43267 14.5501C4.42375 14.5055 4.48617 14.5501 4.43267 14.5501V14.5501ZM4.49508 15.1654C4.48617 15.1565 4.46833 15.1475 4.4505 15.1475C4.43267 15.1475 4.41483 15.1565 4.397 15.1743C4.40592 15.2189 4.41483 15.2367 4.43267 15.2367C4.4505 15.2367 4.46833 15.21 4.49508 15.1654ZM4.504 15.2724C4.51292 15.2813 4.53075 15.2813 4.53966 15.2813C4.56641 15.2813 4.57533 15.2724 4.57533 15.2635C4.57533 15.2545 4.56641 15.2456 4.54858 15.2456C4.53075 15.2456 4.51292 15.2545 4.504 15.2724ZM4.61991 16.2889C4.60208 16.2532 4.64666 16.2621 4.61991 16.2889V16.2889ZM4.6645 15.4685C4.58425 15.5042 4.60208 15.522 4.64666 15.522C4.69125 15.522 4.76258 15.5042 4.76258 15.4864C4.75366 15.4685 4.73583 15.4596 4.70908 15.4596C4.69125 15.4596 4.68233 15.4596 4.6645 15.4685ZM4.75366 16.5831C4.76258 16.5385 4.74475 16.5296 4.72691 16.5296C4.70016 16.5296 4.68233 16.5474 4.75366 16.5831ZM4.718 16.2532C4.7715 16.2264 4.75366 16.2086 4.73583 16.2086C4.70908 16.2086 4.69125 16.2175 4.718 16.2532ZM4.825 15.3705V15.3526C4.7715 15.3348 4.7715 15.3972 4.78933 15.3972C4.79825 15.3972 4.80716 15.3883 4.825 15.3705ZM4.40592 12.428C4.38808 12.4101 4.37025 12.4012 4.36133 12.4012C4.3435 12.4012 4.32567 12.4101 4.32567 12.4191C4.32567 12.428 4.3435 12.428 4.37025 12.428C4.37917 12.428 4.38808 12.428 4.40592 12.428ZM4.47725 13.6317C4.45942 13.6763 4.43267 13.712 4.41483 13.7565C4.43267 13.7565 4.44158 13.7655 4.4505 13.7655C4.51292 13.7655 4.504 13.6852 4.47725 13.6317ZM4.49508 14.5769L4.45942 14.559C4.4505 14.559 4.45942 14.5858 4.47725 14.5858C4.47725 14.5858 4.48617 14.5858 4.49508 14.5769ZM4.49508 13.3375L4.46833 13.3196C4.45942 13.3196 4.46833 13.3642 4.49508 13.3375ZM4.45942 12.8827C4.48617 12.9095 4.49508 12.8649 4.45942 12.8827V12.8827ZM4.6645 13.8992C4.64666 13.8635 4.69125 13.8725 4.6645 13.8992V13.8992ZM4.75366 14.6036C4.68233 14.5947 4.51291 14.6839 4.64666 14.7195C4.72691 14.6839 4.84283 14.6125 4.75366 14.6036ZM4.78041 14.3005C4.76258 14.2826 4.74475 14.2737 4.72691 14.2737C4.718 14.2737 4.70016 14.2826 4.68233 14.3005C4.70016 14.3094 4.70908 14.3183 4.72691 14.3183C4.74475 14.3183 4.76258 14.3183 4.78041 14.3005ZM4.78041 15.0405C4.76258 15.0227 4.74475 15.0138 4.72691 15.0138C4.718 15.0138 4.70016 15.0138 4.68233 15.0316C4.70016 15.0495 4.70908 15.0584 4.72691 15.0584C4.74475 15.0584 4.76258 15.0495 4.78041 15.0405ZM4.48617 13.0343C4.49508 12.9808 4.48617 12.9541 4.47725 12.9541C4.45942 12.9541 4.44158 13.0076 4.48617 13.0343ZM4.65558 12.5439C4.67341 12.4993 4.65558 12.4904 4.62883 12.4904C4.611 12.4904 4.59316 12.5082 4.65558 12.5439ZM4.75366 12.3566C4.76258 12.321 4.74475 12.3031 4.72691 12.3031C4.70016 12.3031 4.68233 12.321 4.75366 12.3566ZM4.75366 12.7668C4.76258 12.7311 4.74475 12.7222 4.72691 12.7222C4.70016 12.7222 4.68233 12.7401 4.75366 12.7668ZM4.718 13.5426C4.7715 13.5158 4.75366 13.498 4.73583 13.498C4.70908 13.498 4.69125 13.5158 4.718 13.5426ZM7.31273 19.0619C7.32164 19.1065 7.28598 19.1511 7.24139 19.1511C7.23248 19.16 7.21464 19.16 7.20573 19.16C7.16114 19.16 7.10764 19.1422 7.09873 19.0976C7.07198 19.0352 7.03631 19.0263 6.99173 18.9995C6.94715 18.9995 6.91148 18.9995 6.89365 18.9906C6.8134 18.9817 6.74206 18.9817 6.67073 18.9817C6.58157 18.9817 6.4924 18.9906 6.41215 18.9995C6.3854 18.9995 6.35865 18.9995 6.32298 18.9995C6.29623 18.9995 6.26948 18.9995 6.25165 18.9995C6.21599 18.9906 6.18032 18.9906 6.13574 18.9906C6.10899 18.9906 6.07332 18.9906 6.03765 18.9906C5.93957 18.9995 5.8504 18.9995 5.77907 18.9995C5.70774 18.9995 5.64532 18.9995 5.59182 18.9906C5.53832 18.9906 5.48482 18.9817 5.44024 18.9817C5.38674 18.9817 5.33324 18.9817 5.28866 18.9906C5.22624 18.9995 5.16383 18.9995 5.11033 18.9995C5.06574 18.9995 5.02116 18.9995 4.98549 18.9906C4.95875 18.9906 4.932 18.9906 4.91416 18.9906C4.88741 18.9906 4.86958 18.9906 4.84283 18.9906C4.75366 18.9995 4.68233 19.0084 4.63775 19.0173C4.611 19.0263 4.57533 19.0263 4.54858 19.0263C4.52183 19.0263 4.49508 19.0263 4.46833 19.0173L4.3435 18.9817C4.25433 18.9906 4.16517 18.9995 4.076 19.0084C4.0225 19.0084 3.99575 18.9549 4.00467 18.9103C4.01359 18.8658 4.01359 18.839 4.05817 18.8033C4.10275 18.7677 4.14733 18.7588 4.183 18.7231C4.17408 18.7053 4.17408 18.6874 4.183 18.6607C4.183 18.6339 4.19192 18.6072 4.19192 18.5715V18.1703C4.183 18.1435 4.183 18.1257 4.17408 18.0989C4.15625 18.0633 4.15625 18.0276 4.16517 18.0008C4.16517 17.9384 4.16517 17.8582 4.183 17.7601C4.183 17.7423 4.183 17.7155 4.19192 17.6888V17.4213C4.17408 17.3321 4.16517 17.2429 4.16517 17.1627C4.16517 17.127 4.16517 17.1003 4.17408 17.0646C4.17408 17.0468 4.17408 17.02 4.16517 16.9754C4.16517 16.9398 4.16517 16.913 4.16517 16.8952C4.13842 16.7882 4.13842 16.699 4.16517 16.6188C4.183 16.5742 4.183 16.5207 4.17408 16.4583C4.15625 16.4315 4.15625 16.3869 4.17408 16.3334C4.183 16.2621 4.19192 16.2086 4.183 16.164C4.16517 16.0659 4.16517 15.9857 4.16517 15.8787C4.16517 15.843 4.17408 15.745 4.17408 15.5755C4.183 15.4953 4.17408 15.415 4.14733 15.3437C4.1295 15.2813 4.1295 15.2367 4.14733 15.21C4.15625 15.1654 4.16517 15.1119 4.15625 15.0584V14.9514C4.15625 14.8355 4.16517 14.6839 4.19192 14.568V14.1667L4.16517 13.819C4.16517 13.7833 4.16517 13.7387 4.19192 13.6228L4.17408 13.4088C4.14733 13.3642 4.13842 13.3107 4.16517 13.2483C4.17408 13.2216 4.183 13.1859 4.19192 13.1591L4.183 12.9808L4.15625 12.7044C4.15625 12.6063 4.14733 12.535 4.14733 12.4904C4.14733 12.4726 4.14733 12.4458 4.14733 12.4191C4.11167 12.3834 4.076 12.3477 4.04925 12.3121H4.04034C3.98684 12.2407 3.97792 12.1783 4.06709 12.1426C4.076 12.1337 4.09383 12.1337 4.11167 12.1337C4.15625 12.1337 4.20975 12.1516 4.26325 12.1605H4.37025C4.44158 12.1516 4.504 12.1426 4.57533 12.1426C4.611 12.1516 4.65558 12.1516 4.69125 12.1516C4.78933 12.1516 4.89633 12.1426 4.99441 12.1426C5.01224 12.1426 5.02116 12.1426 5.03899 12.1426C5.05683 12.1426 5.07466 12.1426 5.09249 12.1516C5.11924 12.1694 5.13708 12.2051 5.12816 12.2407C5.11924 12.2586 5.11033 12.3031 5.10141 12.3299C5.06574 12.3745 4.99441 12.4012 4.96766 12.4636C4.96766 12.5261 4.97658 12.5706 4.97658 12.5885V12.6776C4.97658 12.7133 4.97658 12.749 4.97658 12.7579C4.96766 12.8114 4.95874 12.8827 4.95874 12.9719C4.95874 13.0343 4.95875 13.1056 4.96766 13.1859C4.96766 13.2216 4.96766 13.2483 4.95874 13.2661V13.3018C4.96766 13.3375 4.96766 13.3731 4.96766 13.4088C4.96766 13.4623 4.95874 13.5158 4.94983 13.5782V13.6317C4.94983 13.6941 4.95874 13.7833 4.97658 13.9527C4.97658 13.9884 4.97658 14.033 4.97658 14.1043C4.96766 14.1667 4.96766 14.2113 4.96766 14.247C4.96766 14.3094 4.95874 14.4075 4.94983 14.5323V14.6304C4.95874 14.7017 4.95874 14.773 4.95874 14.8533C4.95874 14.9068 4.95874 14.9603 4.95874 15.0138C4.95874 15.0316 4.95875 15.201 4.96766 15.2724C4.97658 15.2991 4.97658 15.3259 4.97658 15.424V15.5131C4.96766 15.5577 4.95875 15.5845 4.96766 15.6112C4.96766 15.638 4.97658 15.6647 4.97658 15.6915C4.97658 15.736 4.96766 15.7806 4.95874 15.8341C4.95874 15.8698 4.95874 15.8965 4.95874 15.9322C4.95874 15.9946 4.95874 16.057 4.97658 16.1105C4.97658 16.1551 4.97658 16.1908 4.97658 16.2264C4.96766 16.271 4.95874 16.3156 4.95874 16.3602C4.95874 16.3869 4.96766 16.4137 4.96766 16.4494V16.5653C4.96766 16.6188 4.96766 16.6634 4.95874 16.6901C4.95874 16.7258 4.95874 16.7525 4.94983 16.7793C4.94091 16.8417 4.94091 16.8952 4.94983 16.9576C4.95874 16.9844 4.96766 17.0111 4.96766 17.0379C4.96766 17.1092 4.96766 17.1716 4.97658 17.2162C4.97658 17.2608 4.97658 17.2875 4.97658 17.3054C4.96766 17.341 4.96766 17.3856 4.96766 17.4391C4.97658 17.4748 4.97658 17.5015 4.96766 17.5283C4.95875 17.6264 4.94983 17.7066 4.94983 17.7512V18.0365C4.95874 18.0811 4.96766 18.1257 4.96766 18.1792C4.99441 18.1792 5.02116 18.1881 5.04791 18.197L5.11033 18.2148C5.14599 18.2238 5.17274 18.2238 5.19949 18.2238H5.24408C5.27083 18.2238 5.29758 18.2238 5.31541 18.2148C5.34216 18.2059 5.36891 18.2059 5.39566 18.2059C5.43132 18.2059 5.45807 18.2059 5.48482 18.2148C5.51157 18.2238 5.55616 18.2238 5.60966 18.2238C5.72557 18.2238 5.80582 18.2238 5.85932 18.2148C5.91282 18.2059 5.97524 18.197 6.02874 18.197C6.10007 18.197 6.18032 18.2059 6.3319 18.2238H6.37648C6.40323 18.2238 6.42107 18.2238 6.4389 18.2148C6.50132 18.2059 6.55482 18.197 6.61723 18.197C6.67073 18.2148 6.78665 18.2148 6.84015 18.2148H6.98281C7.00065 18.1881 7.0274 18.1703 7.04523 18.1346C7.07198 18.0811 7.12548 18.0276 7.17898 18.0276C7.20573 18.0276 7.23248 18.0365 7.25923 18.0543C7.29489 18.0722 7.30381 18.1078 7.29489 18.197C7.28598 18.2327 7.28598 18.2594 7.27706 18.3397C7.28598 18.3575 7.28598 18.3843 7.29489 18.4199C7.32164 18.5983 7.27706 18.7766 7.29489 18.9906C7.29489 19.0173 7.30381 19.0352 7.31273 19.0619Z" fill="black"/>
</svg>
