<svg width="1393" height="402" viewBox="0 0 1393 402" fill="none" xmlns="http://www.w3.org/2000/svg">
<path d="M20 349.5V354C21.5 354.5 23 353.5 24 351C23 349.5 22 349 21 349C21 349 20.5 349 20 349.5ZM19 330.5L19.5 331C25 330.5 25.5 329.5 19 330.5ZM20 311V312.5C20.5 313 21 313 21.5 313C22.5 313 23.5 312.5 24.5 312C23.5 311 22.5 310.5 21.5 310.5C21 310.5 20.5 310.5 20 311ZM32.5 383C37.5 382 38 381 33 380C28.5 380 28.5 381 32.5 383ZM34.5 344.5C34.5 347.5 35 349 35.5 349C36 349 36.5 348 37.5 345.5C37 342.5 36 341 35.5 341C35.5 341 35 342.5 34.5 344.5ZM58.5 380C57 381.5 59.5 382 58.5 380V380ZM58 365.5L59 366.5C60 366.5 59.5 364 58 365.5ZM62.5 359.5L64.5 357.5C64.5 357 63.5 356.5 63 356.5C61.5 356.5 59.5 357.5 62.5 359.5ZM70 381.5L68.5 380C68 380.5 68.5 383 70 381.5ZM89.5 382L90.5 380.5C90.5 380 88 380.5 89.5 382ZM97 372.5C95.5 374 98 374.5 97 372.5V372.5ZM101 368.5L99.5 367.5C99 367.5 99.5 370 101 368.5ZM110.5 366.5C109.5 364.5 112 365 110.5 366.5V366.5ZM118.5 382C117.5 380 120 380.5 118.5 382V382ZM130 373.5C133 370.5 132.5 368.5 129 367C126 369 126.5 371.5 130 373.5ZM145 359C148 358 149.5 357 147.5 356C145 356 143 356 140.5 356.5C141 357.5 142.5 358 145 359ZM152 368.5C154 369.5 155.5 370.5 157 370.5C159 370.5 160 369 160.5 366.5C160 364.5 159 363.5 158 363.5C155.5 363.5 152.5 367.5 152 368.5ZM173 360C171 361 171.5 358.5 173 360V360ZM19 225.5C19 227 20.5 228 22 228C25 228 29 226 30 225.5C30 226 24.5 222.5 21.5 222.5C20 222.5 19 223.5 19 225.5ZM26 291.5L25 290C24.5 290.5 24.5 293 26 291.5ZM34.5 277.5C36 280.5 37 282 38 282C38.5 282 39.5 281 40 279C39 277.5 38 277 37 277C36 277 35.5 277 34.5 277.5ZM46.5 302C45 300.5 48 300.5 46.5 302V302ZM46.5 359C45 357 48 357.5 46.5 359V359ZM24.5 106C23.5 105 22.5 104.5 21.5 104.5C21 104.5 20 105 19 105.5C19.5 106.5 20.5 107 21.5 107C22.5 107 23.5 106.5 24.5 106ZM24 160.5C27 160 26.5 156.5 25.5 156.5C25 156.5 24.5 157.5 24 160.5ZM24 119.5C25 119.5 25.5 119.5 26 119.5C28 119.5 28.5 119 28.5 118.5C28.5 118 27.5 117.5 26.5 117.5C26 117.5 25 118 24 119.5ZM25.5 143C25 140.5 28.5 143 25.5 143V143ZM29 177.5C28.5 177 27.5 176.5 26.5 176.5C25.5 176.5 24.5 177 23.5 178C24 180.5 24.5 181.5 25.5 181.5C26.5 181.5 27.5 180 29 177.5ZM29.5 183.5C30 184 31 184 31.5 184C33 184 33.5 183.5 33.5 183C33.5 182.5 33 182 32 182C31 182 30 182.5 29.5 183.5ZM36 240.5C35 238.5 37.5 239 36 240.5V240.5ZM38.5 194.5C34 196.5 35 197.5 37.5 197.5C40 197.5 44 196.5 44 195.5C43.5 194.5 42.5 194 41 194C40 194 39.5 194 38.5 194.5ZM43.5 257C44 254.5 43 254 42 254C40.5 254 39.5 255 43.5 257ZM41.5 238.5C44.5 237 43.5 236 42.5 236C41 236 40 236.5 41.5 238.5ZM47.5 189V188C44.5 187 44.5 190.5 45.5 190.5C46 190.5 46.5 190 47.5 189ZM24 24C23 23 22 22.5 21.5 22.5C20.5 22.5 19.5 23 19.5 23.5C19.5 24 20.5 24 22 24C22.5 24 23 24 24 24ZM28 91.5C27 94 25.5 96 24.5 98.5C25.5 98.5 26 99 26.5 99C30 99 29.5 94.5 28 91.5ZM29 144.5L27 143.5C26.5 143.5 27 145 28 145C28 145 28.5 145 29 144.5ZM29 75L27.5 74C27 74 27.5 76.5 29 75ZM27 49.5C28.5 51 29 48.5 27 49.5V49.5ZM38.5 106.5C37.5 104.5 40 105 38.5 106.5V106.5ZM43.5 146C39.5 145.5 30 150.5 37.5 152.5C42 150.5 48.5 146.5 43.5 146ZM45 129C44 128 43 127.5 42 127.5C41.5 127.5 40.5 128 39.5 129C40.5 129.5 41 130 42 130C43 130 44 130 45 129ZM45 170.5C44 169.5 43 169 42 169C41.5 169 40.5 169 39.5 170C40.5 171 41 171.5 42 171.5C43 171.5 44 171 45 170.5ZM28.5 58C29 55 28.5 53.5 28 53.5C27 53.5 26 56.5 28.5 58ZM38 30.5C39 28 38 27.5 36.5 27.5C35.5 27.5 34.5 28.5 38 30.5ZM43.5 20C44 18 43 17 42 17C40.5 17 39.5 18 43.5 20ZM43.5 43C44 41 43 40.5 42 40.5C40.5 40.5 39.5 41.5 43.5 43ZM41.5 86.5C44.5 85 43.5 84 42.5 84C41 84 40 85 41.5 86.5ZM187 396C187.5 398.5 185.5 401 183 401C182.5 401.5 181.5 401.5 181 401.5C178.5 401.5 175.5 400.5 175 398C173.5 394.5 171.5 394 169 392.5C166.5 392.5 164.5 392.5 163.5 392C159 391.5 155 391.5 151 391.5C146 391.5 141 392 136.5 392.5C135 392.5 133.5 392.5 131.5 392.5C130 392.5 128.5 392.5 127.5 392.5C125.5 392 123.5 392 121 392C119.5 392 117.5 392 115.5 392C110 392.5 105 392.5 101 392.5C97 392.5 93.5 392.5 90.5 392C87.5 392 84.5 391.5 82 391.5C79 391.5 76 391.5 73.5 392C70 392.5 66.5 392.5 63.5 392.5C61 392.5 58.5 392.5 56.5 392C55 392 53.5 392 52.5 392C51 392 50 392 48.5 392C43.5 392.5 39.5 393 37 393.5C35.5 394 33.5 394 32 394C30.5 394 29 394 27.5 393.5L20.5 391.5C15.5 392 10.5 392.5 5.5 393C2.5 393 1 390 1.5 387.5C2 385 2 383.5 4.5 381.5C7 379.5 9.5 379 11.5 377C11 376 11 375 11.5 373.5C11.5 372 12 370.5 12 368.5V346C11.5 344.5 11.5 343.5 11 342C10 340 10 338 10.5 336.5C10.5 333 10.5 328.5 11.5 323C11.5 322 11.5 320.5 12 319V304C11 299 10.5 294 10.5 289.5C10.5 287.5 10.5 286 11 284C11 283 11 281.5 10.5 279C10.5 277 10.5 275.5 10.5 274.5C9 268.5 9 263.5 10.5 259C11.5 256.5 11.5 253.5 11 250C10 248.5 10 246 11 243C11.5 239 12 236 11.5 233.5C10.5 228 10.5 223.5 10.5 217.5C10.5 215.5 11 210 11 200.5C11.5 196 11 191.5 9.5 187.5C8.5 184 8.5 181.5 9.5 180C10 177.5 10.5 174.5 10 171.5V165.5C10 159 10.5 150.5 12 144V121.5L10.5 102C10.5 100 10.5 97.5 12 91L11 79C9.5 76.5 9 73.5 10.5 70C11 68.5 11.5 66.5 12 65L11.5 55L10 39.5C10 34 9.5 30 9.5 27.5C9.5 26.5 9.5 25 9.5 23.5C7.5 21.5 5.5 19.5 4 17.5H3.5C0.5 13.5 0 10 5 8.00002C5.5 7.5 6.5 7.5 7.5 7.5C10 7.5 13 8.50002 16 9.00001H22C26 8.50002 29.5 8.00002 33.5 8.00002C35.5 8.50002 38 8.50002 40 8.50002C45.5 8.50002 51.5 8.00002 57 8.00002C58 8.00002 58.5 8.00002 59.5 8.00002C60.5 8.00002 61.5 8.00002 62.5 8.50002C64 9.5 65 11.5 64.5 13.5C64 14.5 63.5 17 63 18.5C61 21 57 22.5 55.5 26C55.5 29.5 56 32 56 33V38C56 40 56 42 56 42.5C55.5 45.5 55 49.5 55 54.5C55 58 55 62 55.5 66.5C55.5 68.5 55.5 70 55 71V73C55.5 75 55.5 77 55.5 79C55.5 82 55 85 54.5 88.5V91.5C54.5 95 55 100 56 109.5C56 111.5 56 114 56 118C55.5 121.5 55.5 124 55.5 126C55.5 129.5 55 135 54.5 142V147.5C55 151.5 55 155.5 55 160C55 163 55 166 55 169C55 170 55 179.5 55.5 183.5C56 185 56 186.5 56 192V197C55.5 199.5 55 201 55.5 202.5C55.5 204 56 205.5 56 207C56 209.5 55.5 212 55 215C55 217 55 218.5 55 220.5C55 224 55 227.5 56 230.5C56 233 56 235 56 237C55.5 239.5 55 242 55 244.5C55 246 55.5 247.5 55.5 249.5V256C55.5 259 55.5 261.5 55 263C55 265 55 266.5 54.5 268C54 271.5 54 274.5 54.5 278C55 279.5 55.5 281 55.5 282.5C55.5 286.5 55.5 290 56 292.5C56 295 56 296.5 56 297.5C55.5 299.5 55.5 302 55.5 305C56 307 56 308.5 55.5 310C55 315.5 54.5 320 54.5 322.5V338.5C55 341 55.5 343.5 55.5 346.5C57 346.5 58.5 347 60 347.5L63.5 348.5C65.5 349 67 349 68.5 349H71C72.5 349 74 349 75 348.5C76.5 348 78 348 79.5 348C81.5 348 83 348 84.5 348.5C86 349 88.5 349 91.5 349C98 349 102.5 349 105.5 348.5C108.5 348 112 347.5 115 347.5C119 347.5 123.5 348 132 349H134.5C136 349 137 349 138 348.5C141.5 348 144.5 347.5 148 347.5C151 348.5 157.5 348.5 160.5 348.5H168.5C169.5 347 171 346 172 344C173.5 341 176.5 338 179.5 338C181 338 182.5 338.5 184 339.5C186 340.5 186.5 342.5 186 347.5C185.5 349.5 185.5 351 185 355.5C185.5 356.5 185.5 358 186 360C187.5 370 185 380 186 392C186 393.5 186.5 394.5 187 396ZM280.965 288.5C283.965 287 284.465 285 280.965 288.5V288.5ZM285.965 367L284.465 365.5C283.965 366 284.465 368.5 285.965 367ZM291.465 341.5C290.965 340.5 289.965 340 288.965 340C287.965 340 286.965 340.5 287.465 341C287.465 341.5 287.965 342 289.465 342C289.965 342 290.465 341.5 291.465 341.5ZM289.465 349.5L286.965 352C287.465 352 287.965 352.5 288.465 352.5C290.465 352.5 291.965 351.5 289.465 349.5ZM292.465 376C290.965 377.5 293.465 378 292.465 376V376ZM305.965 344.5C304.965 342.5 307.465 343 305.965 344.5V344.5ZM281.965 201L282.465 202.5C284.965 200.5 282.965 200.5 281.965 201ZM284.965 241L285.965 240C285.965 239.5 283.465 239.5 284.965 241ZM283.965 199C283.965 200 283.965 200.5 284.465 200.5C284.965 200.5 285.965 198.5 283.965 199ZM292.465 231.5C290.965 233 293.465 233.5 292.465 231.5V231.5ZM294.965 269.5L296.465 268C295.965 267.5 293.465 268 294.965 269.5ZM293.965 314.5C294.465 317.5 294.965 319 295.465 319C295.965 319 296.465 318 296.465 315.5C296.465 312.5 295.965 311 295.465 311C294.965 311 294.465 312.5 293.965 314.5ZM293.965 334C294.965 335.5 295.465 336 295.965 336C296.965 336 296.965 333 294.965 333C294.465 333 293.965 333 293.965 334ZM296.465 228L294.965 226.5C294.465 226.5 294.965 229.5 296.465 228ZM297.465 254.5C302.965 254 303.465 253 298.465 251.5C292.965 252.5 292.465 253.5 297.465 254.5ZM302.465 318C303.965 319.5 304.465 317 302.465 318V318ZM307.465 370.5C310.965 370.5 311.965 369.5 311.965 367C311.465 365.5 310.965 364 310.465 362.5C303.965 365 302.965 367.5 307.465 370.5ZM284.965 138L285.965 137C285.965 136 283.465 136.5 284.965 138ZM305.965 226C304.965 224 307.465 224.5 305.965 226V226ZM309.965 260C307.465 260.5 302.465 263 306.965 264.5C307.965 265 309.465 264.5 310.465 263.5C310.465 262.5 309.965 261 309.965 260ZM309.465 316.5C305.965 317 307.965 316 309.465 316.5V316.5ZM308.965 277.5C306.465 280 306.465 282 309.965 284C309.965 282 309.965 280 308.965 277.5ZM285.965 109L284.465 108C283.965 108 284.465 110.5 285.965 109ZM284.465 131.5L285.465 133C285.965 133 285.965 130 284.465 131.5ZM289.965 111.5C287.965 113.5 285.965 115 283.965 116.5C285.465 117.5 287.465 117.5 288.465 117.5C290.965 117.5 291.965 116 289.965 111.5ZM289.465 98.5C292.465 95.5 292.465 93.5 288.965 92C285.465 94.5 285.965 96.5 289.465 98.5ZM288.465 69C285.465 71 285.965 73 289.465 75.5C292.465 72.5 291.965 70.5 288.465 69ZM291.465 53.5C291.465 51.5 290.465 51 289.465 51C288.465 51 287.465 51.5 287.465 52C287.465 53 288.465 53.5 291.465 53.5ZM292.965 122.5C291.465 121 290.465 120.5 289.465 120.5C287.965 120.5 287.465 121.5 286.465 123C287.465 124.5 288.465 125.5 289.465 125.5C290.965 125.5 291.965 124.5 292.965 122.5ZM292.465 27.5L293.965 26C293.465 25.5 290.965 26 292.465 27.5ZM293.965 55L291.965 54C291.465 54 291.965 55.5 292.965 55.5C292.965 55.5 293.465 55.5 293.965 55ZM291.465 49.5C291.465 50.5 291.965 51 291.965 51C292.965 51 293.965 49 291.465 49.5ZM296.465 119.5L294.965 118C294.465 118.5 294.965 121 296.465 119.5ZM298.965 161.5C295.965 164 296.465 166 299.965 168C302.965 165.5 302.465 163.5 298.965 161.5ZM301.965 145.5C300.965 144.5 299.965 144 298.965 144C298.465 144 297.465 144.5 297.465 145C297.465 145.5 297.965 146 299.465 146C300.465 146 300.965 146 301.965 145.5ZM299.465 43.5L301.465 41C300.965 41 300.465 40.5 299.965 40.5C298.465 40.5 295.965 41.5 299.465 43.5ZM298.965 125.5C301.465 124.5 300.965 123.5 299.465 123.5C298.465 123.5 296.965 124 298.965 125.5ZM300.965 211C304.965 209.5 304.965 208.5 300.465 208C295.965 209.5 295.965 210.5 300.965 211ZM301.965 17.5C295.965 18 295.465 19 300.465 20.5C305.465 19.5 305.965 18.5 301.965 17.5ZM305.465 104C304.465 102.5 301.465 99 299.465 99C298.465 99 297.465 100 296.965 102C297.465 104.5 298.465 106 300.465 106C301.465 106 303.465 105 305.465 104ZM301.465 38C301.965 39.5 302.965 39.5 303.465 39.5C304.465 39.5 304.965 37 301.465 38ZM304.965 16H304.465C304.465 17 304.465 17.5 304.965 17.5C305.465 17.5 305.965 16.5 304.965 16ZM322.465 380C327.465 383.5 326.465 384.5 325.965 390.5C325.965 392.5 323.965 394 321.965 393.5C317.965 393 313.465 392 309.465 391.5H303.465C299.965 392 296.465 393.5 292.465 393.5C288.965 393.5 285.965 392.5 282.465 392C277.465 392 272.465 392.5 267.465 393C265.465 393 263.965 390.5 264.465 388.5L264.965 384.5C265.465 382.5 266.465 381.5 268.465 381C269.965 381 271.465 380 273.465 378C272.965 372 272.965 367 273.465 364C274.465 359 273.965 355 272.965 351C271.465 348.5 271.465 345 272.465 341L273.465 337.5C274.965 333 274.965 329.5 273.465 326C272.965 323 272.965 320 273.465 316.5C273.965 315 274.465 313 274.465 309.5C274.465 303 273.965 298.5 273.465 295.5C272.965 292.5 272.965 289 272.965 285.5C272.965 281.5 272.965 277 273.965 272.5C274.465 269 274.465 266 273.965 262.5C272.965 259.5 272.965 256 272.965 253C272.965 251.5 272.965 249.5 272.965 246.5C273.465 244 273.465 241.5 273.465 240.5V229C273.465 226 273.965 221.5 273.965 215.5C273.965 210 273.965 205.5 273.965 203V199C274.465 195.5 274.465 192 273.465 188.5C271.965 184 271.965 180 273.465 176C274.965 172 274.965 167.5 274.465 163.5C273.965 160.5 273.465 157 273.465 153C273.465 150 273.965 146.5 273.965 142.5C274.465 138.5 274.465 133.5 273.465 128C272.465 124.5 272.465 120.5 273.465 116C273.965 114 274.465 111.5 273.965 110C273.465 107 272.965 103.5 272.965 100C272.965 97.5 273.465 95 273.465 92V90.5C273.465 87.5 273.465 82.5 273.965 76C274.465 73 274.465 70 274.465 67.5C274.465 64 274.465 61 273.465 58.5C272.965 55.5 272.965 52 273.465 49C273.965 47.5 273.965 45.5 273.965 42.5V36.5C273.965 34 273.965 32 273.965 29.5C273.965 27.5 273.965 25 272.465 21C270.465 20 267.465 20 266.465 18C264.465 16 263.965 13 267.465 8.00002C267.965 7.5 268.965 7.5 269.965 7.5C272.965 7.5 275.965 8.50002 278.965 9.00001H288.465C293.965 8.00002 298.465 7.5 303.965 7.5C305.465 7.5 306.965 7.5 308.965 8.00002C308.965 8.00002 309.465 8.00002 309.965 8.00002C312.965 8.00002 316.965 7.00001 319.965 7.00001C322.465 7.00001 324.465 7.5 325.465 9.00001C325.965 10.5 326.465 12 325.965 15.5C326.465 18.5 323.965 20 320.965 19.5L318.465 21V28C318.965 37.5 319.465 47 319.465 56.5V58.5C319.465 62.5 319.465 67 318.465 72C317.965 76.5 318.465 81 318.965 85C319.465 93 319.465 98 319.465 100.5V104.5C319.465 111 318.965 118 318.465 124.5C318.465 129.5 317.965 133.5 317.965 136.5V155.5C317.965 160.5 317.965 164.5 318.965 168.5C319.965 171.5 319.965 175 318.965 178C318.465 180.5 317.965 184.5 317.965 190C318.465 197 318.965 202.5 318.965 206V231C318.965 234 318.465 236 318.465 237C317.965 241.5 317.465 246 317.465 250C317.465 255 317.965 259.5 318.965 264C318.965 267.5 318.965 270.5 318.965 273.5C317.965 276 317.965 280 318.465 285.5C318.465 294 318.465 302 318.465 310.5C317.965 313.5 317.965 316.5 317.965 319.5C317.965 322 317.965 325 318.465 327.5C318.465 331 318.465 334.5 318.465 337.5C318.465 340.5 318.465 343 318.465 345C317.965 347.5 317.965 350 318.465 352.5C318.965 358 319.465 362 319.965 364.5C320.465 367.5 320.465 371 319.965 374L318.465 377.5C319.965 378.5 321.965 379.5 322.465 380ZM425.93 348L427.43 346.5C426.93 346 424.43 346.5 425.93 348ZM441.93 330.5C437.43 330.5 436.93 331.5 441.43 333.5C446.43 332.5 446.43 331.5 441.93 330.5ZM420.93 209.5C422.93 207.5 422.93 206 420.93 204.5C420.93 206.5 420.93 208 420.93 209.5ZM423.43 319.5L424.43 318C424.43 317.5 421.93 318 423.43 319.5ZM429.43 278C423.93 279 423.43 280 428.43 281C433.93 280.5 434.43 279.5 429.43 278ZM426.43 302C427.43 303.5 428.43 304.5 429.43 304.5C430.93 304.5 431.93 303.5 432.93 301C431.93 300 430.93 299.5 429.93 299.5C428.43 299.5 427.43 300.5 426.43 302ZM427.43 262C428.43 262.5 429.43 263 430.43 263C430.93 263 431.93 262.5 432.93 262C432.43 261 431.43 260.5 430.43 260.5C429.43 260.5 428.43 261 427.43 262ZM437.93 355.5C438.43 360 439.43 361 440.93 361C443.93 361 447.43 355.5 447.43 355.5C445.43 352 443.43 350.5 441.43 350.5C439.93 350.5 438.93 352 437.93 355.5ZM445.93 296C445.43 293 444.93 291.5 444.43 291.5C443.93 291.5 443.43 292.5 442.93 294.5C443.43 297.5 443.93 299 444.43 299C444.93 299 445.43 298 445.93 296ZM438.93 175.5C438.93 175.5 433.43 172.5 429.93 172.5C428.43 172.5 427.43 173 427.93 175.5C427.93 177 429.43 177.5 430.93 177.5C433.93 177.5 437.93 176 438.93 175.5ZM434.93 241.5L433.43 240C432.93 240.5 433.43 243 434.93 241.5ZM444.93 190.5C443.43 188.5 446.43 189 444.93 190.5V190.5ZM443.43 228C444.43 230.5 445.93 232 446.93 232C447.43 232 447.93 231 448.93 229C447.93 227.5 446.93 227 445.43 227C444.93 227 444.43 227.5 443.43 228ZM553.43 269.5C555.43 267.5 557.43 266 559.43 264.5C557.43 263.5 555.93 263 554.43 263C551.93 263 550.93 265 553.43 269.5ZM553.43 245C556.43 243.5 555.43 242.5 554.43 242.5C553.43 242.5 551.93 243.5 553.43 245ZM553.93 309.5C560.43 307 560.43 305 552.43 304L553.93 309.5ZM563.93 224C561.43 226 562.93 227 564.93 227C565.43 227 565.93 226.5 563.93 224ZM568.93 295C567.93 294.5 566.93 294 565.93 294C563.93 294 561.93 295 560.43 297C561.93 298.5 563.43 299 564.43 299C566.43 299 567.93 297.5 568.93 295ZM560.93 319C562.93 320 564.43 320.5 565.93 320.5C567.93 320.5 568.93 319.5 569.43 316.5C568.93 314.5 567.93 314 566.93 314C564.43 314 561.43 317.5 560.93 319ZM569.43 254.5C567.43 254 565.93 253.5 564.93 253.5C561.93 253.5 561.93 255.5 563.43 260.5C565.43 258.5 567.43 256.5 569.43 254.5ZM565.43 274C570.43 273 570.93 272 566.43 271C560.93 271.5 560.43 272.5 565.43 274ZM577.43 347.5C578.93 349 579.43 346.5 577.43 347.5V347.5ZM421.43 80L421.93 82C422.43 80.5 422.43 79 421.43 80ZM421.93 58L421.43 61.5C422.43 60 422.43 59 421.93 58ZM422.43 141.5C422.93 142.5 423.43 143 423.93 143C424.93 143 424.93 140 422.93 140C422.93 140 422.43 140.5 422.43 141.5ZM566.93 147C567.43 148.5 568.43 149 568.93 149C569.93 149 570.93 148 572.43 145.5C571.43 145 570.93 144.5 569.93 144.5C568.93 144.5 567.93 145 566.93 147ZM569.93 189L571.43 190.5C571.93 190 571.43 187.5 569.93 189ZM419.93 37L420.93 38.5C422.43 39 422.93 39 423.93 39C425.43 39 426.43 38.5 426.93 36.5C423.93 36.5 421.43 37 419.93 37ZM424.93 30.5C425.43 31.5 425.93 32 426.43 32C427.43 32 427.93 29 425.93 29C425.43 29 424.93 29.5 424.93 30.5ZM432.93 55.5C432.43 54.5 431.43 54 430.43 54C429.43 54 428.43 54.5 427.43 55.5C428.43 56 429.43 56.5 430.43 56.5C430.93 56.5 431.93 56 432.93 55.5ZM432.93 110C435.43 110 434.93 106.5 433.93 106.5C433.43 106.5 432.93 107 432.93 110ZM432.93 69C433.43 69 434.43 69 434.93 69C436.43 69 436.93 68.5 436.93 68.5C436.93 68 436.43 67.5 435.43 67.5C434.43 67.5 433.43 67.5 432.93 69ZM433.93 92.5C433.93 90.5 436.93 92.5 433.93 92.5V92.5ZM437.93 127.5C436.93 126.5 435.93 126.5 435.43 126.5C434.43 126.5 433.43 127 432.43 128C432.43 130 433.43 131 433.93 131C434.93 131 436.43 130 437.93 127.5ZM436.43 41C435.43 43.5 434.43 45.5 432.93 48C433.93 48.5 434.43 48.5 435.43 48.5C438.43 48.5 438.43 44 436.43 41ZM437.43 94L435.93 93C435.43 93.5 435.93 94.5 436.43 94.5C436.93 94.5 437.43 94.5 437.43 94ZM437.93 133.5C438.93 133.5 439.43 133.5 439.93 133.5C441.43 133.5 442.43 133.5 442.43 133C442.43 132.5 441.43 132 440.43 132C439.93 132 438.93 132.5 437.93 133.5ZM437.43 24.5L435.93 23.5C435.43 23.5 435.93 26 437.43 24.5ZM448.43 96C444.43 97.5 440.43 100.5 448.93 101C448.43 99.5 448.43 97.5 448.43 96ZM446.93 144.5C442.43 146.5 443.43 147.5 445.93 147.5C446.93 147.5 447.43 147 448.43 147L446.93 144.5ZM447.43 56C446.43 54 448.93 54.5 447.43 56V56ZM450.43 36C452.93 34.5 452.43 33.5 450.93 33.5C449.93 33.5 448.43 34.5 450.43 36ZM462.43 26C466.43 24.5 467.43 22 465.43 18C462.43 23.5 456.93 23.5 462.43 26ZM464.43 41.5C462.93 43 465.93 43.5 464.43 41.5V41.5ZM473.43 31.5C475.43 33 476.93 34 478.43 35.5C479.43 33 477.93 29 475.93 29C475.43 29 474.43 29.5 473.43 31.5ZM479.93 54.5C484.93 54 485.43 53 480.43 51.5C475.93 51.5 475.93 52.5 479.93 54.5ZM486.43 35L484.93 33.5C484.43 34 484.93 36.5 486.43 35ZM493.43 62C494.43 60 492.93 59.5 491.93 59.5C490.93 59.5 489.93 60.5 493.43 62ZM492.93 43.5C498.43 43 498.93 42 493.93 40.5C488.43 41.5 487.93 42.5 492.93 43.5ZM505.93 53.5L507.43 52C506.93 51.5 504.43 52 505.93 53.5ZM519.93 42.5L518.93 41.5C517.93 41.5 518.43 44 519.93 42.5ZM531.93 54C533.43 53.5 534.43 53 535.43 52C534.43 52 532.93 51.5 531.93 51.5C529.43 51.5 527.43 52.5 531.93 54ZM532.93 31L535.43 29C534.93 28.5 534.43 28 533.93 28C531.93 28 530.43 29 532.93 31ZM541.93 47L545.93 44C546.93 42.5 547.43 41 548.43 39C547.43 39 546.43 39 545.43 39C540.43 39 540.93 42.5 541.93 47ZM551.93 138.5V139.5C552.43 141 553.43 142 554.43 142C555.93 142 557.43 140.5 559.43 137.5C559.43 135 558.43 134 557.43 134C555.93 134 553.93 135.5 551.93 138.5ZM556.93 200C558.43 201.5 558.93 199 556.93 200V200ZM548.43 24.5L546.93 23.5C546.43 23.5 546.93 26 548.43 24.5ZM555.43 121.5C555.93 119.5 554.93 118.5 553.93 118.5C553.43 118.5 552.93 119 555.43 121.5ZM551.43 20C550.43 18.5 549.43 18.5 548.93 18.5C547.93 18.5 546.93 19 546.93 19.5C546.93 19.5 547.93 20 549.43 20C549.93 20 550.43 20 551.43 20ZM557.93 54L558.93 52C558.43 51.5 555.93 52 557.93 54ZM558.93 49C559.43 50 559.93 50.5 560.43 50.5C561.93 50.5 562.43 48 558.93 49ZM568.43 115.5C566.93 114 565.93 113.5 564.93 113.5C563.43 113.5 562.43 114 561.93 116C562.93 117.5 563.93 118.5 564.93 118.5C565.93 118.5 567.43 117.5 568.43 115.5ZM568.43 87C567.43 85 569.93 85.5 568.43 87V87ZM569.93 43.5C572.43 42 571.43 39 570.43 39.5C569.93 39.5 569.43 40.5 569.93 43.5ZM571.43 105C569.93 103 572.93 103.5 571.43 105V105ZM571.43 126C569.93 124 572.93 124.5 571.43 126V126ZM567.43 25.5C569.93 24 568.93 21 567.93 21C567.43 21 566.93 22.5 567.43 25.5ZM571.93 81C572.43 84 573.93 85 575.93 85C576.43 85 576.93 85 579.43 83.5V82.5C578.43 81.5 576.43 81 574.43 81C573.43 81 572.93 81 571.93 81ZM579.93 183.5C579.93 181.5 580.43 180 580.43 179C576.43 180.5 576.43 182.5 579.93 183.5ZM577.43 16.5C575.93 16.5 573.93 16.5 572.43 16C572.93 17 573.93 18 575.43 19C577.43 18 578.93 17.5 577.43 16.5ZM594.43 382.5C595.93 383 596.93 384.5 596.93 386C597.43 387 597.43 388.5 597.43 390C597.43 392.5 594.93 393.5 593.43 393.5C591.93 393 590.93 393 589.43 393C586.43 393 582.93 393.5 579.93 393.5C577.43 393.5 574.93 393 572.43 392.5H546.93C543.93 393 540.93 393.5 538.43 393.5C535.43 393.5 534.43 390.5 535.43 386C535.43 384 537.43 382.5 539.43 382.5L543.43 377.5V374.5C543.43 368 543.43 364 542.93 362V357.5C542.93 355 542.93 353.5 543.43 352.5C543.43 350 543.93 346 543.93 341C543.93 337.5 543.93 333.5 543.43 328.5C543.43 326.5 543.43 325 543.93 324V322C543.43 320 543.43 318.5 543.43 316.5C543.43 313.5 543.93 310 544.43 306.5V304C544.43 300 543.93 295 542.93 285.5C542.93 283.5 542.93 281 543.43 277.5C543.43 269 543.93 261.5 544.43 253V247.5C543.93 243.5 543.93 239.5 543.93 235C543.93 232 543.93 229 543.93 226C543.93 225 543.93 215.5 543.43 211.5C542.93 210 542.93 208.5 543.43 203V198C543.43 195.5 543.93 193.5 543.43 192.5C543.43 191 543.43 189.5 543.43 188C543.43 185.5 543.43 182.5 543.93 179.5C543.93 178 543.93 176 543.93 174.5C543.93 170.5 543.93 167.5 543.43 164.5C542.93 162 542.93 160 543.43 157.5C543.43 153.5 543.43 149.5 543.43 145.5V139C543.43 135.5 543.43 133 543.93 132C543.93 129.5 543.93 128 544.43 126.5C544.93 123.5 544.93 120 544.43 117C543.93 115 543.43 113.5 543.43 112.5C543.43 108 543.43 104.5 542.93 102C542.93 100 542.93 98 543.43 97C543.43 95 543.43 93 543.43 89.5C543.43 87.5 543.43 86 543.43 84.5C543.93 79 544.43 74.5 544.43 72L542.43 57C540.43 59 537.43 60.5 534.43 61.5C532.93 62 530.93 63 528.43 64.5L523.43 67.5C521.43 69 519.43 70 517.43 71C513.43 73 509.93 75 505.43 77.5C503.43 79 501.43 80 498.93 80C493.93 80 489.93 75 486.93 71.5C483.93 69 472.93 62.5 468.93 61.5C465.93 60.5 462.93 59 460.43 57C459.43 55.5 458.43 54.5 456.93 54.5C456.93 58 456.93 62 457.43 67C457.43 69 456.93 70.5 456.93 71.5V73.5C456.93 75.5 457.43 77.5 457.43 79.5C457.43 82 456.93 85.5 456.43 89V91.5C456.43 95.5 456.93 100.5 457.93 110C457.93 112 457.93 114.5 457.43 118.5C457.43 126.5 456.93 134.5 456.43 142.5V148C456.93 152 456.93 156 456.93 160.5C456.93 163.5 456.93 166.5 456.93 170C456.93 170.5 456.93 180 457.43 184C457.93 185.5 457.93 187.5 457.43 192.5V197.5C456.93 200 456.93 202 457.43 203C457.43 204.5 457.43 206 457.43 207.5C457.43 210 457.43 213 456.93 216C456.93 217.5 456.93 219.5 456.93 221C456.93 225 456.93 228.5 457.43 231.5C457.93 233.5 457.93 236 457.43 238C457.43 240 456.93 242.5 456.93 245.5C456.93 247 456.93 248.5 457.43 250V257C457.43 259 456.93 267 456.43 269C455.93 272 455.93 275.5 456.43 278.5C456.93 280.5 457.43 282 457.43 283C457.43 287.5 457.43 291 457.93 293.5C457.93 295.5 457.93 297.5 457.43 298.5C457.43 300.5 457.43 303 457.43 306C457.43 308 457.43 309.5 457.43 311C456.93 316.5 456.43 321 456.43 323.5V339.5C456.93 344 457.43 347 457.43 351.5C457.43 359 457.43 363.5 456.93 365.5V372C456.93 373.5 456.93 375.5 456.93 377C457.93 379 459.93 380.5 464.93 384C464.93 386 465.93 388 462.43 393.5C453.93 393.5 445.93 393 437.93 392.5H416.43C413.43 393 410.43 393.5 407.43 393.5C405.43 394 403.93 392 403.93 390.5V386.5C403.93 384.5 404.93 382.5 407.43 382.5C409.93 382 411.93 380.5 412.93 378.5C412.93 377.5 412.93 376 413.43 372L412.43 343C411.93 341 411.93 339 411.93 337.5C411.93 334 412.43 330 413.43 321.5V304C412.93 297.5 412.43 291.5 412.43 285C412.43 283.5 412.43 282 412.43 280C412.43 278 411.93 276.5 411.93 275.5C410.93 269.5 410.93 264 411.93 260C413.43 257.5 413.43 254.5 412.43 250.5C411.93 249.5 411.93 247 412.43 243.5C413.43 240 413.43 237 413.43 234.5C412.43 228.5 411.93 224.5 411.93 218C412.43 216.5 412.43 211 412.43 201.5C413.43 196.5 412.43 192 410.93 188.5C410.43 185 410.43 182 410.93 180.5C411.93 178 411.93 175.5 411.43 172.5V166C412.43 160.5 413.43 152.5 413.43 146.5V120L411.93 102.5C411.93 100.5 412.43 98 413.43 92.5L412.43 79.5C410.93 76.5 410.93 73.5 411.93 70.5C412.93 69 413.43 67.5 413.43 66V55.5L411.43 39.5C411.43 34 411.43 30.5 410.93 26.5C410.43 25.5 410.43 24 410.93 22.5C409.93 21 408.43 20.5 405.93 20C403.93 19.5 402.93 17.5 403.43 16C403.93 13.5 402.93 10 405.43 8.50002C405.93 8.00002 406.93 7.5 407.43 7.5C408.93 7.5 409.93 8.00002 411.43 8.50002C413.93 8.50002 416.43 9.00001 419.43 9.00001C420.43 9.00001 421.43 9.00001 422.43 9.00001C423.93 8.50002 424.93 8.50002 425.93 8.50002C426.43 8.50002 426.93 8.50002 429.43 8.50002C431.43 8.50002 433.43 8.50002 435.43 9.00001H451.43C455.93 8.00002 459.93 7.5 464.43 7.00001C468.93 7.00001 471.43 9.5 472.43 12.5C474.93 14 477.93 16 480.93 18C485.43 21.5 490.43 24 495.93 26C497.43 27 499.43 28 501.93 29C506.93 25.5 512.93 22 518.93 19.5L520.93 18C523.93 16 528.43 14 532.93 12C534.93 11.5 536.43 10.5 539.43 9.00001C541.93 9.00001 544.43 9.00001 546.93 9.00001H557.43C560.93 8.50002 564.43 8.00002 568.43 8.00002C574.93 8.00002 581.43 9.00001 588.43 9.00001C590.43 9.00001 592.43 9.00001 594.43 8.50002C595.93 8.50002 597.43 10 597.43 12C597.43 15.5 597.93 17.5 594.93 19.5C592.93 21 590.43 21 587.43 23.5L587.93 52.5C588.93 54.5 588.93 56.5 588.93 58C588.93 61.5 588.43 66 587.43 74V91.5C587.93 96.5 588.43 101 588.43 105C588.43 107 588.43 109 587.93 111C587.93 112 588.43 113.5 588.43 115.5C588.43 117.5 588.93 119 588.93 120C589.93 126 589.93 131.5 588.93 135.5C587.43 138 587.43 141 587.93 145C588.93 146 588.93 148.5 587.93 152C587.43 155.5 587.43 158.5 587.43 161C588.43 167 588.93 171 588.93 177.5C588.43 179 587.93 184.5 587.93 194C587.43 199 587.93 203.5 589.93 207C590.43 210.5 590.43 213.5 589.93 215C588.93 217.5 588.93 220.5 589.43 223.5V229.5C588.93 232 588.93 235.5 587.93 240.5C587.93 244 587.43 246.5 587.43 249V275.5L588.93 293C588.93 295 588.43 297.5 587.43 303L587.93 316.5C589.93 319 589.93 322 588.93 325C587.93 326.5 587.43 328 587.43 329.5V340L589.43 356C589.43 361.5 589.43 365.5 589.93 368C589.93 370.5 588.93 374 589.43 380.5L594.43 382.5ZM698.719 381.5L700.719 379C700.719 379 700.219 379 699.719 379C697.719 379 695.719 380 698.719 381.5ZM704.219 334C703.719 333 702.719 332.5 702.719 332.5C701.219 332.5 701.219 336 704.219 334ZM701.219 377.5C701.219 378.5 701.719 378.5 701.719 378.5C702.719 378.5 703.719 377 701.219 377.5ZM713.719 365.5C714.219 362.5 713.719 361.5 713.219 361.5C712.219 361.5 711.219 364 713.719 365.5ZM714.719 346.5C716.219 348 716.719 345.5 714.719 346.5V346.5ZM729.719 317C730.219 315 730.719 313.5 729.219 311C726.719 313 726.719 315 729.719 317ZM732.719 295.5C732.719 293.5 731.719 293 730.719 293C729.719 293 728.719 293.5 728.719 294C728.719 295 729.719 295.5 732.719 295.5ZM810.719 305.5L811.219 304.5C810.719 304.5 810.219 304.5 809.719 304.5C807.719 304.5 807.719 307.5 809.219 307.5C809.719 307.5 810.219 307 810.719 305.5ZM722.719 193.5C725.219 193.5 725.719 192.5 722.719 193.5V193.5ZM733.719 269L734.719 267.5C734.719 267 732.219 267.5 733.719 269ZM731.219 168.5C732.219 166.5 730.719 165.5 729.719 165.5C728.719 165.5 727.719 166.5 731.219 168.5ZM733.719 204L734.719 202.5C734.719 202 732.219 202.5 733.719 204ZM734.719 250.5L733.219 249C732.719 249.5 733.219 252 734.719 250.5ZM733.219 227C734.719 228.5 735.219 226 733.219 227V227ZM737.219 177C735.219 178 735.719 175.5 737.219 177V177ZM740.219 217.5C742.719 216 741.719 215 740.719 215C739.719 215 738.219 216 740.219 217.5ZM743.719 237.5L747.719 239.5C747.719 237 747.719 232.5 745.719 232.5C745.219 232.5 744.219 233 743.719 234C743.719 235.5 743.719 236.5 743.719 237.5ZM748.219 154.5C747.219 153.5 746.219 153 745.719 153C744.719 153 743.719 153.5 743.719 154C743.719 154.5 744.219 154.5 746.219 154.5C746.719 154.5 747.219 154.5 748.219 154.5ZM747.719 193L746.219 192C745.719 192 746.219 194.5 747.719 193ZM746.219 175C747.719 176.5 748.219 174 746.219 175V175ZM746.219 146.5C747.719 148 748.219 145 746.219 146.5V146.5ZM747.219 87C746.219 85 748.719 85.5 747.219 87V87ZM757.219 228C759.219 225.5 761.719 224 763.219 221C761.719 220.5 760.719 220 759.719 220C756.219 220 755.719 223.5 757.219 228ZM765.719 91.5V90.5C764.719 90 763.719 90 762.719 90C760.719 90 758.719 91 757.219 93C758.719 94.5 759.719 95 761.219 95C762.719 95 764.219 94 765.719 91.5ZM775.219 211.5C776.719 213 779.219 214.5 781.219 215.5V214C780.719 210.5 779.719 205 779.219 198C778.219 192.5 777.219 189 775.719 186.5C774.719 183.5 774.219 180.5 774.219 177C774.719 173 774.219 169 773.219 164.5L769.719 145.5C769.219 143 768.719 140.5 767.719 137C767.719 138 767.719 139.5 767.719 141C767.719 144 767.719 147.5 767.219 151C766.719 152 766.219 154 765.719 157C765.219 159.5 764.719 161.5 764.219 163L762.219 174C761.719 177 761.219 181.5 760.219 187C759.219 193 758.219 197 757.719 200L757.219 203.5L760.719 205C763.219 206.5 765.219 207 766.719 207.5C769.719 208.5 772.719 210 775.219 211.5ZM769.219 232C769.719 232.5 770.719 233 771.719 233C772.719 233 773.719 232.5 774.719 232C773.719 231 772.719 230.5 771.719 230.5C770.719 230.5 770.219 231 769.219 232ZM795.719 176C798.219 174 797.219 171.5 796.219 171.5C795.719 171.5 795.219 172.5 795.719 176ZM798.219 194C800.719 192.5 799.719 189.5 798.719 189.5C798.219 189.5 797.719 191 798.219 194ZM799.219 256C798.219 254 800.719 254.5 799.219 256V256ZM805.719 235.5C810.219 233.5 806.219 231.5 802.719 231.5C801.719 231.5 800.719 231.5 800.219 232C800.719 234.5 801.719 236 803.719 236C804.219 236 804.719 236 805.719 235.5ZM812.719 271C816.219 268.5 816.719 266.5 813.719 264.5C810.219 266 809.719 268 812.719 271ZM822.219 345.5C827.219 344.5 827.719 343.5 823.719 342.5C817.719 343 817.219 344 822.219 345.5ZM823.719 280L825.719 278C825.719 277.5 825.219 277.5 824.219 277.5C822.719 277.5 820.719 278.5 823.719 280ZM824.219 306C826.719 304.5 824.719 303.5 823.219 303.5C822.719 303.5 821.719 303.5 824.219 306ZM827.219 368L828.719 366.5C828.219 366 825.719 366.5 827.219 368ZM826.219 341C826.219 342 826.719 342.5 826.719 342.5C827.219 342.5 828.719 340.5 826.219 341ZM835.219 376.5C836.219 374.5 834.719 374 833.719 374C832.719 374 831.719 375 835.219 376.5ZM831.219 354C832.219 355 833.219 355.5 834.219 355.5C835.219 355.5 836.219 355 837.219 354.5C836.219 353.5 835.219 353 834.219 353C833.219 353 832.219 353 831.219 354ZM814.719 200C814.219 199.5 813.719 199.5 812.719 199.5C811.719 199.5 810.719 200.5 809.219 202.5C810.719 203.5 811.719 204.5 812.719 204.5C813.719 204.5 814.719 203.5 815.219 202.5L814.719 200ZM816.719 240.5L818.219 239C817.719 238.5 815.219 239 816.719 240.5ZM816.219 286L817.719 287.5C818.219 287 817.719 284.5 816.219 286ZM827.219 300.5L828.719 299C828.219 298.5 825.719 299 827.219 300.5ZM826.219 276C826.219 277 826.719 277.5 826.719 277.5C827.219 277.5 828.719 275.5 826.219 276ZM746.719 72L753.219 63.5C752.719 62 751.719 61.5 750.719 61.5C747.219 61.5 743.719 68.5 746.719 72ZM758.719 142C755.719 143 755.219 145 757.219 148.5C758.219 146.5 758.719 144.5 758.719 142ZM763.719 68.5C763.219 67.5 762.219 67 761.219 67C760.219 67 759.219 67.5 759.219 68C759.719 68.5 760.219 69 761.719 69C762.219 69 762.719 69 763.719 68.5ZM763.719 76.5C763.219 75.5 762.219 75 761.219 75C760.219 75 759.219 75.5 759.219 76C759.719 76.5 760.219 76.5 761.719 76.5C762.219 76.5 762.719 76.5 763.719 76.5ZM803.719 169C809.219 167 808.719 165 802.719 163C798.719 164.5 799.219 166.5 803.719 169ZM765.719 52C764.719 51.5 763.719 51 762.719 51C760.719 51 758.719 52 757.219 54C758.719 55.5 759.719 56 761.219 56C762.719 56 764.719 54.5 765.719 52ZM776.719 83.5C774.219 83.5 766.219 85 771.719 87.5C774.719 87.5 776.719 87 776.719 83.5ZM775.219 54C773.719 55.5 776.219 56 775.219 54V54ZM776.219 127.5C774.219 128.5 774.719 126 776.219 127.5V127.5ZM785.719 142.5C787.719 140.5 787.719 139 785.719 137C784.219 138.5 784.219 140.5 785.719 142.5ZM787.719 200.5C788.219 201 788.219 201 788.719 201C790.219 201 790.219 198 788.719 198C788.719 198 788.219 198 787.719 200.5ZM789.719 159.5C790.719 161.5 791.719 163 793.219 163C794.219 163 795.219 162 796.219 160.5C795.219 158.5 793.719 158 792.719 158C791.719 158 790.719 158.5 789.719 159.5ZM796.719 238C795.719 236 798.219 236.5 796.719 238V238ZM761.719 25C764.219 23.5 762.719 22.5 760.719 22.5C760.219 22.5 759.219 22.5 761.719 25ZM775.219 24.5L776.719 23C776.219 22.5 773.719 23 775.219 24.5ZM776.219 123L775.219 121.5C774.219 122 774.719 124.5 776.219 123ZM777.219 63C778.719 64.5 779.219 62 777.219 63V63ZM786.719 58.5C787.219 55.5 786.719 54.5 786.219 54.5C785.219 54.5 784.219 57 786.719 58.5ZM788.719 113C787.719 111 790.219 111.5 788.719 113V113ZM792.719 74.5L792.219 72C786.219 72.5 785.719 73.5 792.719 74.5ZM861.719 386V388C862.219 389 862.719 390 861.719 392L860.219 392.5C858.719 392.5 857.719 392.5 856.719 392H840.719C837.719 392.5 834.719 393 831.719 393C827.719 393 823.719 392.5 819.719 392L809.719 392.5C808.219 393 806.719 393.5 805.219 393.5C804.219 393.5 803.219 393 801.719 390.5C802.219 388.5 802.219 387 802.219 383C804.719 381.5 807.219 380.5 809.719 379H809.219C808.219 376 807.719 373 807.719 370C807.719 367 807.719 363 806.719 354.5V354C804.719 347.5 803.219 340.5 802.719 333.5C802.719 332 802.719 330.5 802.219 329L801.219 322C798.219 312.5 796.219 302 795.219 292C794.719 286.5 794.219 283 792.719 280.5C792.219 277.5 791.719 274.5 791.219 269.5C788.719 268 784.719 266 779.219 263C776.219 261 772.219 259 767.719 257C763.219 255.5 758.719 254 755.219 252L753.719 251C752.219 250.5 751.219 250 749.719 249.5C749.219 252 748.719 255.5 747.719 259C746.219 263 745.719 267.5 745.719 273.5C746.219 277 745.219 281 743.719 285C742.719 287.5 742.219 289.5 742.219 291C742.219 294.5 742.219 297.5 741.219 301C741.219 303.5 740.219 306 739.719 308.5L739.219 310.5C739.219 313.5 738.219 318 736.719 324.5C735.719 327.5 735.219 330.5 734.719 333C734.219 336 733.719 339 734.219 342C734.219 345 733.719 348 732.219 351C732.219 352.5 731.719 354.5 731.219 357.5L730.219 363.5C729.219 369 728.219 374.5 727.219 379.5L733.719 382.5C735.219 383 735.719 385 734.719 386L733.219 393C731.719 393 730.219 393 729.219 392.5C728.219 392.5 726.719 392.5 725.219 392H681.219C680.219 393 678.719 393 677.219 393C676.719 393 676.219 393 675.719 393C674.719 393 674.219 391 674.719 390C674.719 389.5 674.219 387 674.719 383.5C675.719 382 677.219 382 678.719 382L683.719 379L685.719 365C686.219 355.5 687.219 345.5 689.719 336.5L690.219 334.5C690.219 330.5 691.219 326 692.719 321.5C694.219 316.5 694.719 312.5 694.719 308.5C695.719 300.5 696.219 295.5 697.219 293L697.719 289C698.219 285.5 698.719 283 699.219 281.5C699.719 278.5 700.719 274.5 701.719 269.5C702.719 264.5 703.719 261 704.219 258L707.219 239C708.219 234.5 708.719 230 708.219 226C708.219 223 708.719 220 709.719 217C711.219 214.5 712.219 210.5 712.719 205C713.719 198 714.219 193 714.719 189.5L719.219 165C719.719 162 720.219 160 720.219 159C722.719 150 724.719 141 724.719 132C724.719 128.5 725.219 125.5 726.219 123C727.219 120.5 728.219 116.5 728.719 111C729.719 103 730.719 94.5 732.719 86.5C734.219 81 735.219 75.5 735.719 70C736.219 64 736.719 58.5 738.219 53C739.219 50 739.719 47.5 739.719 45C740.219 40 740.219 36 740.219 33C740.219 30.5 740.719 28 741.219 25.5C740.719 22.5 739.719 20 739.219 17V15C738.719 13 738.719 10.5 739.219 8.50002H740.719C743.719 8.00002 749.219 8.00002 752.719 8.00002C753.719 8.00002 754.219 8.00002 754.719 8.00002C755.219 8.00002 755.719 8.00002 756.219 8.00002C757.719 8.00002 759.219 8.00002 760.719 7.5C763.219 7.00001 765.219 7.00001 767.219 7.00001C769.219 7.00001 771.219 7.00001 773.219 7.5C776.219 8.00002 783.719 8.00002 789.719 8.50002H798.219V17L796.719 17.5C795.719 21 794.719 24.5 793.219 27.5L797.219 52C798.719 55 799.219 58 798.719 62L802.219 81C803.219 86 804.219 90 804.719 93V94.5C806.719 101 807.719 107.5 808.219 114.5L809.219 118C810.719 122 811.719 126 811.219 129.5C811.219 131.5 811.219 133.5 811.719 135L813.219 144C814.719 151 816.719 158 816.719 165L818.219 173C818.219 174 818.719 175.5 819.219 176.5C821.719 180.5 822.219 184.5 821.719 189C821.719 192.5 822.219 196 823.219 199L823.719 203C824.219 206 825.219 210 826.219 215.5C827.219 221.5 828.219 225.5 828.719 228.5L830.719 240C831.219 241 831.719 243.5 832.219 246C832.719 248.5 833.219 250.5 833.719 252C834.219 255.5 834.219 258.5 834.219 262C834.219 265.5 834.719 268.5 836.219 271.5C838.219 279 840.219 286.5 840.219 294C840.219 298 842.219 311 844.219 315C845.219 318 845.719 321 845.719 324.5C845.219 327.5 845.719 331.5 847.719 335.5L849.219 338.5C850.719 342.5 851.219 346 850.719 348.5C850.219 352.5 850.719 357 852.219 361.5C853.719 364.5 854.219 370 854.219 380C855.719 380.5 857.719 381.5 860.719 382.5C862.219 383 862.719 385 861.719 386ZM956.195 309.5C955.195 306 955.695 307 956.195 309.5V309.5ZM958.695 349.5C960.195 349.5 966.195 347 962.695 345C961.195 343 959.695 342.5 958.195 342.5C956.695 342.5 955.195 343.5 953.695 347.5C955.195 349 956.695 349.5 958.695 349.5ZM976.695 377.5L974.195 375.5C973.195 376 973.695 379 975.195 379C975.195 379 975.695 378.5 976.695 377.5ZM982.695 341.5C982.195 341 981.695 341 981.195 341C980.695 341 979.195 341.5 977.695 342.5C978.695 343.5 979.695 344 981.195 344C981.195 344 981.695 344 982.195 344L982.695 341.5ZM982.195 277.5L982.695 275C978.195 275 978.195 276 982.195 277.5ZM982.195 305V301.5C982.695 299.5 982.695 297.5 982.695 295.5C981.195 295.5 979.695 296.5 979.195 300C979.695 304.5 980.695 305.5 982.195 305ZM981.695 358V357C979.695 357.5 978.695 359 980.695 363C982.695 361.5 984.695 360 985.195 358H981.695ZM1008.2 362.5C1006.7 364 1009.2 364.5 1008.2 362.5V362.5ZM1045.7 377C1044.7 376 1043.7 375.5 1043.2 375.5C1042.2 375.5 1041.2 376 1041.2 376.5C1041.2 377 1042.2 377 1043.7 377C1044.2 377 1044.7 377 1045.7 377ZM1048.2 369.5C1048.7 371 1049.2 371 1049.7 371C1050.7 371 1051.2 368.5 1049.2 368.5C1048.7 368.5 1048.2 368.5 1048.2 369.5ZM1060.2 380C1059.2 378 1061.7 378.5 1060.2 380V380ZM1075.7 370.5C1079.7 368.5 1079.7 367.5 1075.2 367.5C1070.7 368.5 1070.7 369.5 1075.7 370.5ZM1101.7 366.5L1100.2 365C1099.7 365.5 1100.2 368 1101.7 366.5ZM963.195 197.5C962.695 196 961.695 195 960.695 195C959.695 195 958.195 196 957.195 197.5C958.195 199.5 959.195 200.5 960.195 200.5C961.195 200.5 962.195 199.5 963.195 197.5ZM964.195 264L965.695 263C965.695 262 962.695 262.5 964.195 264ZM967.195 292.5L968.195 291C968.195 290.5 965.695 291 967.195 292.5ZM966.695 333C968.195 334.5 968.195 332 966.695 333V333ZM967.195 377.5C966.695 378 976.695 369 972.695 370.5C968.695 371.5 964.695 373 967.195 377.5ZM974.695 351.5L976.195 350C975.695 349.5 973.195 350 974.695 351.5ZM976.195 349.5C980.195 349 978.695 346 978.695 344C975.195 344.5 976.695 347.5 976.195 349.5ZM982.195 367.5C987.695 366.5 988.195 365.5 983.195 365C977.695 365 977.695 366 982.195 367.5ZM994.695 376L996.195 377.5C996.695 377 996.195 374.5 994.695 376ZM996.195 382.5C994.695 380.5 997.695 381 996.195 382.5V382.5ZM960.195 149C957.695 151 957.695 153.5 961.195 155.5C964.195 153 964.195 150.5 960.195 149ZM964.695 238C962.695 236.5 960.695 236.5 958.195 236.5C959.195 238 960.195 239 961.195 239C962.195 239 963.195 238.5 964.695 238ZM970.195 223C965.195 224 964.695 225 969.195 226C974.695 225.5 975.195 224.5 970.195 223ZM967.195 247C968.695 248.5 969.695 249 970.695 249C971.695 249 972.695 248 973.695 246C972.695 245 971.695 244 970.695 244C969.695 244 968.695 245 967.195 247ZM974.195 207C973.195 206 972.195 205.5 971.195 205.5C970.695 205.5 969.695 206 968.695 207C969.695 207.5 970.195 208 971.195 208C972.195 208 973.195 208 974.195 207ZM1057.2 348.5L1060.7 347.5C1062.7 347 1064.2 346.5 1065.7 346.5C1067.7 346.5 1069.2 347 1070.7 347.5C1073.2 348.5 1075.7 348.5 1077.7 345.5C1077.2 342.5 1077.2 339 1077.7 336C1078.2 335 1078.2 333.5 1078.2 332V318.5C1077.7 312 1077.7 307.5 1077.7 304.5V302.5C1077.7 300 1077.2 297.5 1077.2 295C1077.2 291.5 1077.7 288 1078.2 285C1078.2 283.5 1078.2 281.5 1077.7 279C1076.7 275 1076.7 271 1077.7 267C1078.2 264.5 1078.2 262 1078.2 259.5V257.5C1078.2 256 1078.2 254 1078.2 252.5C1077.7 249 1077.7 245.5 1077.7 242.5C1077.7 238 1078.2 234.5 1078.2 232L1077.7 219.5C1076.2 215.5 1076.2 211.5 1077.7 207C1078.7 204 1078.7 201 1077.2 197.5C1076.2 197 1074.7 196.5 1073.2 195.5L1067.2 192.5C1064.2 191 1062.2 190 1061.2 189C1059.2 188 1057.7 187.5 1056.7 186.5C1054.2 184.5 1051.2 183 1048.2 182C1046.2 181.5 1044.7 181.5 1043.7 181C1039.7 179 1036.7 177.5 1034.2 177C1032.2 176 1030.7 175 1029.7 174C1028.2 173 1026.2 172 1023.2 170.5C1021.7 170 1020.2 169 1018.7 168C1014.2 165.5 1010.7 163 1008.2 162L994.195 155C992.695 154.5 991.695 154 990.695 156L990.195 167C990.195 170 990.195 174.5 990.195 180C990.195 186 990.195 190 990.195 193L989.695 198.5L990.195 207C991.695 211.5 991.695 215.5 989.695 222V233.5C990.195 236 990.195 239 990.195 242.5C990.195 245.5 990.195 249 989.695 254V263C990.195 264 990.195 265.5 990.195 267C991.195 271 991.195 275 990.195 279C989.695 281.5 989.695 283.5 990.195 285C990.695 288 990.695 291.5 990.695 295C990.695 297.5 990.695 300 990.195 302.5V304.5C990.695 307.5 990.195 312 989.695 319.5L990.195 336C991.195 339 991.195 342.5 990.195 345.5C990.195 346.5 990.195 347.5 992.695 348.5C997.695 348 1002.2 347.5 1006.2 347.5C1009.2 347.5 1012.7 348 1015.7 348.5C1018.7 349 1023.2 349 1029.7 349C1032.7 349 1035.2 349 1036.7 348.5C1038.2 348 1039.7 348 1041.2 348C1043.2 348 1044.7 348 1046.2 348.5C1047.2 349 1048.7 349 1050.2 349H1052.2C1054.2 349 1055.7 349 1057.2 348.5ZM963.195 87C964.195 88.5 964.695 89 965.195 89C966.195 89 966.195 86 964.195 86C963.695 86 963.695 86 963.195 87ZM979.695 121C979.695 121 974.695 118 971.195 118C969.695 118 968.695 118.5 968.695 121C969.195 122.5 970.195 123 972.195 123C975.195 123 979.195 121.5 979.695 121ZM976.195 186.5L974.695 185.5C974.195 185.5 974.695 188 976.195 186.5ZM1040.2 145.5L1038.7 144C1038.2 144.5 1038.7 147 1040.2 145.5ZM1043.7 148C1041.7 149.5 1039.7 151.5 1038.2 153C1039.7 153.5 1041.2 154 1042.7 154C1045.2 154 1046.2 152.5 1043.7 148ZM1047.2 159C1045.7 157.5 1044.7 156.5 1043.2 156.5C1042.2 156.5 1041.2 157.5 1040.7 159C1041.7 161 1042.7 161.5 1043.7 161.5C1044.7 161.5 1046.2 161 1047.2 159ZM1050.7 156L1049.2 154.5C1048.7 155 1049.2 157.5 1050.7 156ZM1053.2 162C1055.7 160.5 1054.7 159.5 1053.7 159.5C1052.7 159.5 1051.2 160.5 1053.2 162ZM1084.7 184C1087.7 181 1087.7 179 1084.2 177.5C1080.7 179.5 1080.7 182 1084.7 184ZM1087.7 203.5C1086.2 205 1088.7 205.5 1087.7 203.5V203.5ZM1089.7 297C1091.2 298.5 1091.7 296 1089.7 297V297ZM1089.7 318.5C1092.2 317 1091.2 314 1090.7 314C1089.7 314 1089.2 315.5 1089.7 318.5ZM1089.7 166C1091.2 167.5 1091.7 165 1089.7 166V166ZM1094.2 254C1100.7 252 1100.7 250 1094.7 248.5C1088.2 250 1088.2 251.5 1094.2 254ZM1101.2 349C1100.2 347 1102.7 347.5 1101.2 349V349ZM1093.7 214.5C1095.7 212.5 1097.7 211 1099.7 209.5C1097.7 208.5 1096.2 208.5 1095.2 208.5C1092.7 208.5 1091.7 210 1093.7 214.5ZM1094.2 190C1096.7 189 1095.7 188 1094.7 188C1093.7 188 1092.2 188.5 1094.2 190ZM1104.2 171.5L1103.2 171C1102.7 172 1104.7 172.5 1104.2 171.5ZM1109.2 239.5C1108.2 239 1107.2 239 1106.2 239C1104.2 239 1102.2 240 1100.7 242C1102.2 243.5 1103.7 244 1104.7 244C1106.2 244 1108.2 242.5 1109.2 239.5ZM1101.2 263.5C1103.2 264.5 1104.7 265.5 1106.2 265.5C1108.2 265.5 1109.2 264 1109.7 261.5C1109.2 259.5 1108.2 258.5 1107.2 258.5C1104.7 258.5 1101.7 262.5 1101.2 263.5ZM1109.7 199.5C1107.7 199 1106.7 198.5 1105.2 198.5C1102.7 198.5 1102.2 201 1103.7 205.5C1105.7 203.5 1107.7 201.5 1109.7 199.5ZM1105.7 219C1111.2 218 1111.2 217 1106.7 216C1101.2 216.5 1100.7 217.5 1105.7 219ZM960.195 23C957.695 25.5 957.695 27.5 961.195 29.5C964.195 27 964.195 25 960.195 23ZM973.695 56C976.695 55.5 976.195 52.5 975.195 52.5C974.695 52 974.195 53 973.695 56ZM975.195 38.5C974.695 36 978.195 38.5 975.195 38.5V38.5ZM978.695 73C978.195 72.5 977.195 72 976.195 72C975.195 72 974.195 72.5 973.195 73.5C973.695 76 974.195 77 975.195 77C976.195 77 977.195 75.5 978.695 73ZM978.695 40L976.695 39C976.195 39.5 976.695 40.5 977.695 40.5C978.195 40.5 978.195 40.5 978.695 40ZM982.695 78C982.195 77.5 982.195 77.5 981.695 77.5C980.695 77.5 979.695 78 982.695 78ZM985.695 136C984.695 134 987.195 134.5 985.695 136V136ZM984.695 45L993.695 44.5C995.195 43 995.695 41.5 993.195 41.5C990.695 41 986.195 43 984.695 45ZM991.195 134C994.195 132.5 993.195 131.5 992.195 131.5C990.695 131.5 989.695 132 991.195 134ZM1005.7 125C1003.7 124 1001.7 123.5 999.695 123.5C1000.2 125 1001.2 126 1002.7 126C1003.2 126 1004.2 125.5 1005.7 125ZM1006.7 37C1007.2 32.5 1006.2 31 1003.7 31C1002.7 31 1001.2 31.5 999.695 32C1002.7 33 1005.2 34.5 1006.7 37ZM1009.7 37.5L1007.7 36.5C1007.2 36.5 1007.7 38 1008.7 38C1008.7 38 1009.2 38 1009.7 37.5ZM1017.7 128C1017.2 127 1016.2 127 1016.2 127C1014.7 127 1014.7 130 1017.7 128ZM1027.2 159C1027.7 156 1027.2 155 1026.7 155C1025.7 155 1024.7 157.5 1027.2 159ZM1028.2 140.5C1029.7 142 1030.2 139.5 1028.2 140.5V140.5ZM1038.2 168L1039.7 169.5C1040.2 169 1039.7 166.5 1038.2 168ZM994.695 25C993.695 24 992.695 23.5 992.195 23.5C991.195 23.5 990.195 23.5 989.195 24.5C990.195 25.5 990.695 26 991.695 26C992.695 26 993.695 25.5 994.695 25ZM998.195 123.5C998.195 121 1001.2 123.5 998.195 123.5V123.5ZM1001.2 136C995.695 137 995.695 138 1000.2 138.5C1005.7 138.5 1006.2 137.5 1001.2 136ZM1003.2 144.5C1004.2 142.5 1002.7 141.5 1001.7 141.5C1000.7 141.5 999.695 142.5 1003.2 144.5ZM1017.2 22.5L1015.7 21C1015.2 21.5 1015.7 24 1017.2 22.5ZM1030.7 32.5C1030.2 32 1029.7 32 1029.7 32C1027.7 32 1027.7 35 1028.7 35C1029.2 35 1029.7 34.5 1030.7 32.5ZM1046.2 22.5C1047.7 24 1048.2 21.5 1046.2 22.5V22.5ZM1056.7 29C1056.2 33.5 1057.7 35.5 1060.7 35C1060.2 33 1060.7 28 1058.7 28C1058.2 28 1057.2 28.5 1056.7 29ZM1069.7 17C1069.2 18.5 1069.2 21 1069.7 23.5C1071.2 21.5 1073.2 20 1075.2 18L1069.7 17ZM1087.2 27.5C1086.2 26.5 1085.2 26 1084.2 26C1083.7 26 1082.7 26.5 1081.7 27C1082.7 28 1083.2 28.5 1084.2 28.5C1085.2 28.5 1086.2 28 1087.2 27.5ZM1109.2 33C1107.7 31 1110.7 31.5 1109.2 33V33ZM1122.2 217.5C1122.7 220.5 1122.7 224 1122.2 227C1121.2 231 1120.7 235 1121.2 239.5V259C1121.2 261.5 1121.2 265.5 1121.2 271C1121.7 276 1121.7 280 1121.7 282.5C1122.2 284.5 1122.2 287 1122.2 290.5V294.5C1122.7 297 1122.2 302 1121.7 310C1121.2 313.5 1121.2 318 1121.7 322.5C1122.2 327.5 1122.7 332 1122.2 336V338.5C1122.2 340.5 1122.7 343 1122.7 345.5C1122.7 351.5 1122.2 358 1121.2 366.5V378C1121.2 381 1120.2 382.5 1116.7 382.5C1116.2 383.5 1107.2 392 1106.7 392.5C1105.7 392.5 1104.7 393 1103.2 393C1101.2 393 1099.2 392.5 1097.2 392L1093.2 393.5C1090.2 393.5 1087.2 393.5 1084.2 393.5C1081.7 393 1077.7 392.5 1072.2 392C1069.7 392 1067.2 392 1064.7 392C1059.2 392 1053.2 392 1047.7 392C1044.7 391.5 1042.2 391.5 1039.2 391.5C1036.7 391.5 1033.7 391.5 1030.7 392C1022.2 392 1014.2 392 1005.7 392C1003.7 392 1001.7 391.5 1000.2 391.5C997.695 391.5 995.695 392 993.695 392.5C992.695 392.5 991.195 392.5 989.695 392.5C987.695 392.5 986.195 392.5 984.695 392.5C980.195 391.5 975.195 391.5 970.695 391.5C966.195 391.5 962.195 391.5 957.695 392C956.695 392 954.695 392.5 951.695 392.5H946.695C945.195 393 943.695 392.5 942.695 393C940.195 393.5 937.695 391.5 938.695 389C938.695 387.5 939.195 386.5 938.695 384.5C938.195 382.5 940.195 380 942.695 380.5C943.195 381 945.195 378.5 947.195 377.5V366.5C946.195 358 945.695 351.5 945.695 345.5C945.695 343 945.695 340.5 946.195 338.5V336C945.695 332 945.695 327.5 946.695 322.5C947.195 318 946.695 313.5 946.195 310C945.695 302 945.695 297 946.195 294.5V290.5C946.195 287 946.195 284.5 946.195 282.5C946.195 280 946.695 276 946.695 271C947.195 265.5 947.195 261.5 947.195 259V239.5C947.195 235 947.195 231 946.195 227C945.195 224 945.195 220.5 946.195 217.5C946.695 215 947.195 211 947.195 205.5C946.695 198.5 946.195 193.5 946.195 190L946.695 165C946.695 162 946.695 160 946.695 159C947.195 154.5 947.695 150.5 947.695 146.5C947.695 141.5 947.195 136.5 946.695 132C946.195 128.5 946.195 125.5 946.695 123C947.195 120 947.195 116 946.695 111C946.695 105.5 946.695 100.5 946.695 96.5C946.695 92.5 946.695 89 946.695 86C947.195 83 947.195 80.5 947.195 77.5C947.195 74.5 947.195 72 946.695 69.5C946.695 65.5 946.695 62.5 946.695 59.5C946.695 56.5 946.695 54 946.695 52C947.195 49.5 947.195 47 946.695 44.5C946.195 39 946.195 35.5 945.695 32.5C944.695 29.5 944.695 26.5 945.695 23.5V22.5C944.695 21.5 943.195 20.5 941.695 20.5C939.695 20 938.195 18.5 939.195 10.5C939.195 9.00001 940.695 8.50002 942.195 8.50002C942.695 8.50002 943.195 8.50002 943.695 8.50002C945.695 9.5 947.195 9.5 948.695 9.5C954.695 9.5 960.695 9.5 966.695 9.5C970.195 8.50002 973.695 8.50002 976.695 8.50002C978.695 8.50002 980.695 8.50002 982.195 9.00001C983.695 9.00001 985.695 9.5 987.195 9.5C990.195 9.5 992.695 9.00001 995.195 8.00002C996.195 7.5 997.695 7.5 999.695 7.5C1001.2 7.5 1002.7 7.5 1004.7 8.00002L1008.2 9.00001C1009.7 9.5 1011.2 9.5 1012.2 9.5H1016.2C1017.2 9.5 1018.2 9.5 1019.7 9.00001C1021.2 8.50002 1022.7 8.50002 1024.2 8.50002C1025.7 8.50002 1027.2 8.50002 1029.2 9.00001C1030.2 9.5 1032.7 9.5 1036.2 9.5C1042.2 9.5 1046.7 9.5 1050.2 9.00001C1053.2 8.50002 1056.2 8.50002 1059.7 8.50002C1063.7 8.50002 1068.2 8.50002 1075.7 9.5H1082.7C1085.7 8.50002 1088.7 8.50002 1093.2 8.50002C1096.2 7.5 1099.7 7.5 1102.7 7.5C1104.7 7.5 1106.2 7.5 1108.7 7.5L1110.7 2.5C1111.2 1.00002 1112.2 6.91414e-06 1113.7 0.5C1114.7 0.5 1115.2 0.5 1115.7 0.5C1117.2 0.5 1118.2 0.5 1119.7 6.91414e-06C1122.2 6.91414e-06 1123.7 3 1122.2 5C1120.7 9.00001 1122.2 12.5 1121.2 18C1121.2 25 1121.2 32.5 1121.2 39.5C1121.2 46 1122.7 53.5 1119.7 62C1118.7 62.5 1118.2 62.5 1117.7 62.5C1112.7 62.5 1111.7 62 1110.2 56.5L1107.7 52.5C1103.2 52 1099.2 52 1095.2 52C1090.2 52 1085.7 52.5 1080.7 53C1077.7 53 1074.7 53 1071.7 53C1070.2 52.5 1068.2 52.5 1065.7 52.5C1063.7 52.5 1061.7 52.5 1059.7 52.5C1054.2 53 1049.7 53 1045.2 53C1041.2 53 1037.7 53 1035.2 52.5C1029.7 52.5 1023.7 52.5 1018.2 52.5C1014.2 53 1011.2 53 1008.2 53C1005.2 53 1002.7 53 1001.2 52.5C999.695 52.5 998.195 52.5 996.695 52.5C995.695 52.5 994.695 52.5 991.695 56L989.695 62L990.695 70.5C991.195 74 991.195 77 990.695 80C990.195 81 990.195 82.5 989.695 84.5V92.5C990.195 96 990.195 99 990.695 101C990.695 102.5 990.695 104 991.195 105.5C993.195 106.5 995.195 107.5 996.195 108.5C1000.2 111.5 1005.2 113.5 1010.7 114C1014.7 115 1024.2 121 1027.2 123.5C1032.2 127 1037.7 129.5 1043.2 132C1049.7 134 1056.2 136.5 1062.2 140.5C1063.2 141 1064.7 141.5 1066.7 142.5C1068.2 143 1069.7 143.5 1070.7 144C1076.7 146 1081.2 148 1084.7 151C1086.2 153 1089.2 155 1092.7 156C1094.2 156 1096.2 157 1098.7 159C1101.7 161.5 1104.7 163 1106.7 163.5C1109.7 164.5 1112.2 165.5 1114.2 166.5C1114.7 166.5 1115.2 166.5 1115.7 166.5C1117.2 166.5 1118.2 166.5 1119.7 167.5C1121.7 169 1121.7 171 1122.2 176C1122.7 177.5 1122.7 178.5 1121.7 182V190C1121.7 193.5 1121.7 198.5 1121.2 205.5C1121.2 211 1121.2 215 1122.2 217.5ZM1347.72 362.5C1350.72 361 1350.72 360 1347.72 362.5V362.5ZM1349.72 302.5C1348.22 301 1351.22 301 1349.72 302.5V302.5ZM1372.72 341.5C1371.72 339.5 1374.22 340 1372.72 341.5V341.5ZM1216.72 114.5L1216.22 115C1217.22 115.5 1218.22 115 1219.22 113.5C1218.72 111 1217.72 110 1216.72 111V114.5ZM1350.72 260.5C1353.72 258 1353.72 255.5 1348.72 255.5L1350.72 260.5ZM1361.22 289.5C1362.72 291 1363.22 288 1361.22 289.5V289.5ZM1361.22 310.5C1363.72 309 1362.72 306.5 1361.72 306.5C1361.22 306.5 1360.72 307.5 1361.22 310.5ZM1370.72 380.5C1373.22 379 1372.22 378 1371.22 378C1370.22 378 1368.72 379 1370.72 380.5ZM1373.22 359L1371.72 357.5C1371.22 358 1371.72 360.5 1373.22 359ZM1348.22 135C1349.72 136.5 1350.22 133.5 1348.22 135V135ZM1353.22 125C1352.72 124 1352.22 123.5 1351.72 123.5C1350.22 123.5 1350.22 127 1353.22 125ZM1352.72 211.5C1350.72 212.5 1351.22 210 1352.72 211.5V211.5ZM1352.72 238L1351.22 236.5C1350.72 236.5 1351.22 239.5 1352.72 238ZM1356.22 175.5C1359.22 173 1358.72 170.5 1355.72 169.5C1352.22 171.5 1352.22 173.5 1356.22 175.5ZM1359.22 195.5C1357.72 197 1360.22 197.5 1359.22 195.5V195.5ZM1365.72 246C1372.22 244 1372.22 242 1366.22 240.5C1359.72 242 1359.22 244 1365.72 246ZM1371.22 201.5C1369.22 200.5 1367.72 200.5 1366.22 200.5C1364.22 200.5 1363.22 202 1365.22 206.5C1367.22 204.5 1369.22 203 1371.22 201.5ZM1365.72 182C1368.22 181 1367.22 179.5 1366.22 179.5C1365.22 179.5 1363.72 180.5 1365.72 182ZM1374.72 232V236C1374.72 234.5 1374.72 233 1374.72 232ZM1375.22 255.5L1375.72 252.5C1374.22 253.5 1373.22 255 1375.22 255.5ZM1375.22 208.5C1373.22 209.5 1373.22 208.5 1375.22 208.5V208.5ZM1375.72 191C1373.72 191.5 1373.72 193.5 1375.22 197.5V196.5C1375.22 195 1375.22 193 1375.72 191ZM1217.22 69.5C1217.22 71 1217.22 72.5 1216.72 74.5C1219.22 73 1219.72 71 1217.22 69.5ZM1221.22 31.5C1225.22 29.5 1225.22 27.5 1221.72 25C1218.22 26.5 1218.22 28.5 1221.22 31.5ZM1234.22 16.5H1229.72C1229.22 18 1229.72 19.5 1232.22 21C1234.22 19.5 1234.72 18 1234.22 16.5ZM1234.72 78.5C1235.22 80 1235.72 80.5 1236.22 80.5C1237.22 80.5 1237.22 77.5 1235.22 77.5C1234.72 77.5 1234.72 77.5 1234.72 78.5ZM1243.72 115L1244.72 110C1244.22 110 1243.22 110 1242.22 110C1240.72 110 1239.72 110.5 1239.72 112.5C1240.22 114.5 1241.72 115 1243.72 115ZM1246.22 30C1245.72 28 1249.22 30 1246.22 30V30ZM1249.72 31.5L1248.22 30.5C1247.72 31 1247.72 32 1248.72 32C1249.22 32 1249.22 32 1249.72 31.5ZM1258.72 40C1262.72 37.5 1269.22 33.5 1264.22 33C1260.22 32.5 1251.22 37.5 1258.72 40ZM1261.22 15.5L1260.22 16C1261.22 17 1262.22 17.5 1263.22 17.5C1263.72 17.5 1264.72 17 1264.72 15.5H1261.22ZM1277.72 28.5C1278.72 24 1277.72 22.5 1275.22 22.5C1274.22 22.5 1272.72 23 1270.72 23.5C1273.72 24.5 1276.22 26 1277.72 28.5ZM1280.72 29L1278.72 28C1278.22 28 1278.72 29.5 1279.72 29.5C1280.22 29.5 1280.22 29.5 1280.72 29ZM1301.72 24.5L1302.22 24C1301.72 23.5 1301.22 23.5 1300.72 23.5C1298.72 23.5 1298.72 26.5 1299.72 26.5C1300.22 26.5 1300.72 26 1301.72 24.5ZM1319.22 37L1317.72 35.5C1317.22 36 1317.72 38.5 1319.22 37ZM1327.72 20.5C1327.72 25 1328.72 27 1332.22 26.5C1331.72 24.5 1332.22 19.5 1329.72 19.5C1329.22 19.5 1328.72 20 1327.72 20.5ZM1352.22 66C1351.22 64 1353.72 64.5 1352.22 66V66ZM1350.22 149C1353.72 147 1352.22 146 1350.72 146C1349.72 146 1348.72 146.5 1348.72 147L1350.22 149ZM1355.72 105C1352.22 106.5 1352.22 108.5 1355.22 111.5C1358.72 109.5 1359.22 107 1355.72 105ZM1358.22 101.5C1357.22 100.5 1356.22 100 1355.72 100C1354.72 100 1353.72 100.5 1353.72 101C1353.72 101.5 1354.22 102 1356.22 102C1356.72 102 1357.22 102 1358.22 101.5ZM1359.22 135.5L1360.22 134C1360.22 133.5 1357.72 134 1359.22 135.5ZM1361.22 158C1362.72 159.5 1363.22 157 1361.22 158V158ZM1375.72 164V161.5C1373.72 163 1374.72 163.5 1375.72 164ZM1353.22 18.5C1353.72 19.5 1354.72 20 1355.72 20C1356.72 20 1357.72 19.5 1358.72 19C1357.72 18 1356.72 17.5 1355.72 17.5C1354.72 17.5 1354.22 17.5 1353.22 18.5ZM1350.72 39.5C1349.72 42 1351.22 43.5 1354.72 43.5C1360.72 40.5 1355.72 38.5 1352.72 38.5C1351.72 38.5 1350.72 39 1350.72 39.5ZM1359.22 82C1357.72 83.5 1360.22 84 1359.22 82V82ZM1367.22 59C1368.22 57 1366.72 56 1365.72 56C1364.72 56 1363.72 57 1367.22 59ZM1371.22 75C1371.22 72.5 1370.22 71.5 1369.22 71.5C1367.72 71.5 1365.72 73 1363.22 76.5C1364.22 78.5 1365.22 79.5 1366.22 79.5C1367.72 79.5 1369.22 78 1371.22 75ZM1368.72 137.5C1370.22 139 1370.72 136.5 1368.72 137.5V137.5ZM1391.22 382C1392.72 384.5 1392.72 388 1390.22 393C1388.72 393 1387.72 393.5 1386.22 393.5C1383.22 393.5 1380.22 393 1377.72 392.5C1374.72 392 1372.22 391.5 1369.72 391.5L1364.22 392C1362.72 391.5 1361.22 391.5 1359.72 391.5C1355.22 391.5 1351.22 392 1346.72 392.5C1345.72 393 1344.72 393 1343.72 393C1341.22 393 1338.72 392.5 1336.22 392.5C1335.72 392.5 1334.72 392.5 1334.22 392.5C1332.72 393 1330.72 391 1331.22 389.5C1331.22 387.5 1331.22 386 1331.22 384.5C1331.22 383 1332.22 381.5 1336.72 380.5L1340.22 377.5V370.5C1339.22 362.5 1338.72 355.5 1338.72 349.5C1338.72 347 1339.22 344.5 1339.22 342.5V340C1339.22 336 1339.22 331.5 1340.22 326.5C1340.22 322 1340.22 317.5 1339.72 314C1339.22 306 1339.22 301 1339.22 298.5V294C1339.22 287.5 1339.72 280.5 1340.22 274.5C1340.22 269.5 1340.22 265.5 1340.22 262.5L1340.72 242V238C1340.22 235.5 1340.22 233 1339.22 230.5C1338.72 227.5 1338.72 224.5 1339.22 221C1340.22 218.5 1340.22 215 1340.22 209.5C1340.22 202 1339.72 197 1339.72 193.5V168.5C1339.72 165.5 1339.72 163.5 1340.22 162.5C1340.22 160.5 1340.22 159 1340.72 157V142.5C1340.22 140 1340.22 137.5 1339.72 135.5C1339.72 132 1339.72 129 1339.72 126.5C1340.72 123.5 1340.72 119.5 1340.22 114.5C1339.72 109 1339.72 104 1339.72 100C1339.72 96 1339.72 92.5 1340.22 89.5C1340.22 88 1340.72 86.5 1340.72 85.5V76.5C1340.72 75 1340.22 74 1340.22 72.5C1340.22 67 1340.22 61 1340.22 55.5C1340.22 54 1340.72 52.5 1340.72 51.5C1338.72 51.5 1337.22 51.5 1335.72 52C1333.72 52.5 1331.72 52.5 1329.72 52.5C1327.72 52.5 1325.72 52.5 1323.72 52C1322.22 51.5 1320.72 51.5 1319.22 51.5C1318.72 51.5 1318.22 51.5 1317.72 51.5C1314.22 52 1311.22 52.5 1307.72 52.5C1305.22 52.5 1302.72 52 1299.72 52H1298.22C1297.22 52 1296.22 52 1294.72 52C1291.72 52 1288.22 52 1284.22 51.5C1280.72 51 1277.72 51 1275.22 51C1271.72 51 1268.72 51 1266.22 52C1263.22 52 1260.22 52 1257.22 52C1255.72 51.5 1254.22 51.5 1251.72 51.5V60C1251.72 61 1252.22 62.5 1252.22 63.5C1252.72 67.5 1252.72 70.5 1252.72 73.5C1252.72 76.5 1252.22 79 1252.22 81C1251.72 84 1251.72 86.5 1252.22 88.5C1252.72 94 1253.22 98 1253.72 100.5C1254.22 103.5 1254.22 107 1253.72 110L1253.22 111C1255.22 112.5 1258.72 114.5 1260.72 117.5C1260.72 120.5 1262.72 122.5 1261.22 125C1259.72 127 1257.72 127 1255.72 127C1255.22 127 1254.22 127 1253.72 127C1248.72 127 1244.22 125.5 1239.22 125H1216.22C1212.22 125 1208.22 125.5 1204.72 126C1202.72 126.5 1200.72 125.5 1200.72 124C1200.22 121.5 1199.22 118.5 1200.72 116.5C1202.72 113.5 1205.72 114 1208.22 111.5C1207.72 106.5 1207.72 103 1208.22 100C1209.22 95 1209.22 91 1207.72 87C1206.72 84.5 1206.72 81.5 1207.22 77L1208.22 74C1209.72 69.5 1209.72 65.5 1208.22 62.5C1207.72 59 1207.72 56 1208.72 53C1208.72 46 1208.72 38.5 1208.72 31.5C1208.22 29.5 1207.72 27 1207.72 24.5C1207.22 22.5 1208.22 21.5 1213.72 18C1214.72 16.5 1215.72 15.5 1217.72 11.5C1218.22 10 1219.72 9.00001 1224.72 8.50002H1235.72C1244.22 7.5 1251.22 7.00001 1256.72 7.00001C1259.72 7.00001 1262.22 7.00001 1264.22 7.5H1266.22C1267.72 7.00001 1268.72 7.00001 1270.22 7.00001C1273.22 7.00001 1276.22 7.5 1279.72 8.00002C1281.72 8.00002 1283.22 8.00002 1285.22 8.00002C1287.72 8.00002 1290.22 8.00002 1292.72 7.5C1297.72 7.5 1301.22 7.00001 1304.22 7.00001C1305.72 7.00001 1307.22 7.00001 1308.22 7.5H1312.22C1315.72 7.5 1318.22 7.5 1320.22 7.5C1322.72 7.5 1326.72 8.00002 1331.72 8.00002C1337.22 8.50002 1341.22 8.50002 1343.72 8.50002H1363.22C1367.72 8.50002 1371.22 8.00002 1375.72 7.5C1377.22 7.00001 1378.72 7.00001 1380.22 7.00001C1381.72 7.00001 1383.22 7.00001 1384.72 7.5C1385.72 7.00001 1386.72 7.00001 1387.72 7.00001C1388.22 7.00001 1388.72 7.00001 1389.72 7.5C1392.72 9.00001 1392.72 13 1389.72 19C1386.72 21 1385.22 21.5 1384.72 29.5C1385.22 32 1384.72 34.5 1384.72 37C1384.72 39 1383.72 40 1382.72 40L1383.72 63.5C1382.72 67.5 1382.72 71 1384.22 74C1384.72 77 1384.72 80.5 1384.22 83.5C1383.72 85 1383.22 87 1383.22 90.5C1383.22 97 1383.72 101.5 1383.72 104.5C1384.22 107.5 1384.72 111 1384.72 114C1384.72 118 1384.22 122.5 1383.72 127.5C1382.72 130.5 1382.72 134 1383.72 137C1384.22 140.5 1384.72 143.5 1384.72 147C1384.72 148.5 1384.22 150.5 1384.22 153C1384.22 156 1384.22 158 1383.72 159.5V170.5C1383.72 173.5 1383.72 178 1383.72 184C1383.72 189.5 1383.72 194 1383.72 196.5V200.5C1382.72 204 1383.22 207 1383.72 211C1385.22 215 1385.22 219.5 1383.72 223.5C1382.72 227.5 1382.72 231.5 1383.22 236C1383.72 238.5 1383.72 242 1383.72 246.5C1383.72 249.5 1383.72 252.5 1383.72 256.5C1382.72 260.5 1383.22 265.5 1383.72 271C1384.72 274.5 1384.72 278.5 1383.72 283C1383.22 285 1383.22 287 1383.72 289C1384.22 292 1384.22 295.5 1384.22 298.5C1384.22 301.5 1384.22 304 1383.72 306.5V308C1384.22 311.5 1383.72 316 1383.22 322.5C1383.22 325.5 1382.72 328.5 1382.72 331.5C1382.72 334.5 1383.22 337.5 1383.72 340C1384.72 343 1384.72 346.5 1383.72 349.5C1383.72 351 1383.22 353 1383.22 356V362C1383.72 364.5 1383.72 366.5 1383.72 369C1383.72 370.5 1383.72 372.5 1383.72 375.5C1384.22 377 1383.72 378 1384.22 379L1387.72 380.5C1389.22 380.5 1390.72 381 1391.22 382Z" fill="black"/>
</svg>
